<svg width="36" height="35" viewBox="0 0 36 35" fill="none" xmlns="http://www.w3.org/2000/svg">
<path d="M33.3179 0H3.31006C1.93506 0 0.817871 1.13281 0.817871 2.52344V32.4766C0.817871 33.8672 1.93506 35 3.31006 35H33.3179C34.6929 35 35.8179 33.8672 35.8179 32.4766V2.52344C35.8179 1.13281 34.6929 0 33.3179 0ZM11.396 30H6.2085V13.2969H11.4038V30H11.396ZM8.80225 11.0156C7.13818 11.0156 5.79443 9.66406 5.79443 8.00781C5.79443 6.35156 7.13818 5 8.80225 5C10.4585 5 11.8101 6.35156 11.8101 8.00781C11.8101 9.67187 10.4663 11.0156 8.80225 11.0156V11.0156ZM30.8413 30H25.6538V21.875C25.6538 19.9375 25.6147 17.4453 22.9585 17.4453C20.2554 17.4453 19.8413 19.5547 19.8413 21.7344V30H14.6538V13.2969H19.6304V15.5781H19.7007C20.396 14.2656 22.0913 12.8828 24.6147 12.8828C29.8647 12.8828 30.8413 16.3437 30.8413 20.8437V30V30Z" fill="white"/>
</svg>
