<svg id="visual" viewBox="0 0 960 540" width="960" height="540" xmlns="http://www.w3.org/2000/svg"
    xmlns:xlink="http://www.w3.org/1999/xlink" version="1.1">
    <path
        d="M0 239L26.7 252.2C53.3 265.3 106.7 291.7 160 298.8C213.3 306 266.7 294 320 282.2C373.3 270.3 426.7 258.7 480 263.7C533.3 268.7 586.7 290.3 640 297.7C693.3 305 746.7 298 800 290.8C853.3 283.7 906.7 276.3 933.3 272.7L960 269L960 541L933.3 541C906.7 541 853.3 541 800 541C746.7 541 693.3 541 640 541C586.7 541 533.3 541 480 541C426.7 541 373.3 541 320 541C266.7 541 213.3 541 160 541C106.7 541 53.3 541 26.7 541L0 541Z"
        fill="#eeeeee" stroke-linecap="round" stroke-linejoin="miter"></path>
</svg>
