<svg id="visual" viewBox="0 0 900 600" width="900" height="600" xmlns="http://www.w3.org/2000/svg" xmlns:xlink="http://www.w3.org/1999/xlink" version="1.1"><path d="M0 395L90 284L180 296L270 397L360 307L450 267L540 336L630 363L720 372L810 403L900 404L900 601L810 601L720 601L630 601L540 601L450 601L360 601L270 601L180 601L90 601L0 601Z" fill="#333333"></path><path d="M0 377L90 380L180 361L270 380L360 444L450 460L540 365L630 401L720 412L810 370L900 446L900 601L810 601L720 601L630 601L540 601L450 601L360 601L270 601L180 601L90 601L0 601Z" fill="#535353"></path><path d="M0 473L90 508L180 490L270 492L360 479L450 421L540 459L630 446L720 438L810 476L900 471L900 601L810 601L720 601L630 601L540 601L450 601L360 601L270 601L180 601L90 601L0 601Z" fill="#757575"></path><path d="M0 508L90 561L180 496L270 506L360 519L450 493L540 556L630 542L720 520L810 509L900 525L900 601L810 601L720 601L630 601L540 601L450 601L360 601L270 601L180 601L90 601L0 601Z" fill="#999999"></path></svg>