<svg id="visual" viewBox="0 0 900 600" width="900" height="600" xmlns="http://www.w3.org/2000/svg"
    xmlns:xlink="http://www.w3.org/1999/xlink" version="1.1" stroke="rgba(136,150,156,0.600)">
    <path
        d="M0 379L129 403L257 319L386 467L514 474L643 393L771 498L900 445L900 601L771 601L643 601L514 601L386 601L257 601L129 601L0 601Z"
        fill="#cccccc"></path>
    <path
        d="M0 409L129 476L257 481L386 474L514 400L643 496L771 477L900 375L900 601L771 601L643 601L514 601L386 601L257 601L129 601L0 601Z"
        fill="#bbb9b6"></path>
    <path
        d="M0 456L129 474L257 457L386 468L514 475L643 521L771 459L900 444L900 601L771 601L643 601L514 601L386 601L257 601L129 601L0 601Z"
        fill="#aaa6a0" stroke="rgba(117,101,114,0.45)"></path>
    <path
        d="M0 549L129 514L257 503L386 457L514 487L643 449L771 470L900 495L900 601L771 601L643 601L514 601L386 601L257 601L129 601L0 601Z"
        fill="#99948b" stroke="rgba(110,101,116,0.500)"></path>
    <path
        d="M0 558L129 590L257 589L386 527L514 544L643 585L771 563L900 516L900 601L771 601L643 601L514 601L386 601L257 601L129 601L0 601Z"
        fill="#888277" stroke="rgba(89,82,95,0.550)"></path>
</svg>