<svg id="visual" viewBox="0 0 900 600" width="900" height="600" xmlns="http://www.w3.org/2000/svg" xmlns:xlink="http://www.w3.org/1999/xlink" version="1.1"><path d="M0 264L90 301L180 358L270 362L360 263L450 391L540 312L630 320L720 358L810 393L900 265L900 601L810 601L720 601L630 601L540 601L450 601L360 601L270 601L180 601L90 601L0 601Z" fill="#444444"></path><path d="M0 454L90 433L180 372L270 420L360 394L450 354L540 446L630 466L720 438L810 367L900 361L900 601L810 601L720 601L630 601L540 601L450 601L360 601L270 601L180 601L90 601L0 601Z" fill="#5f5f5f"></path><path d="M0 514L90 472L180 439L270 483L360 486L450 441L540 521L630 498L720 411L810 522L900 422L900 601L810 601L720 601L630 601L540 601L450 601L360 601L270 601L180 601L90 601L0 601Z" fill="#7b7b7b"></path><path d="M0 530L90 481L180 553L270 481L360 582L450 550L540 578L630 524L720 527L810 534L900 577L900 601L810 601L720 601L630 601L540 601L450 601L360 601L270 601L180 601L90 601L0 601Z" fill="#999999"></path></svg>