<svg id="visual" viewBox="0 0 900 600" width="900" height="600" xmlns="http://www.w3.org/2000/svg" xmlns:xlink="http://www.w3.org/1999/xlink" version="1.1"><path d="M0 387L90 366L180 362L270 386L360 363L450 259L540 397L630 289L720 267L810 346L900 306L900 601L810 601L720 601L630 601L540 601L450 601L360 601L270 601L180 601L90 601L0 601Z" fill="#444444"></path><path d="M0 340L90 437L180 369L270 379L360 400L450 347L540 413L630 364L720 433L810 430L900 423L900 601L810 601L720 601L630 601L540 601L450 601L360 601L270 601L180 601L90 601L0 601Z" fill="#5f5f5f"></path><path d="M0 489L90 457L180 481L270 480L360 423L450 419L540 512L630 473L720 401L810 522L900 482L900 601L810 601L720 601L630 601L540 601L450 601L360 601L270 601L180 601L90 601L0 601Z" fill="#7b7b7b"></path><path d="M0 483L90 512L180 474L270 492L360 533L450 572L540 497L630 514L720 548L810 511L900 503L900 601L810 601L720 601L630 601L540 601L450 601L360 601L270 601L180 601L90 601L0 601Z" fill="#999999"></path></svg>