<svg id="visual" viewBox="0 0 900 600" width="900" height="600" xmlns="http://www.w3.org/2000/svg"
    xmlns:xlink="http://www.w3.org/1999/xlink" version="1.1">
    <rect x="0" y="0" width="900" height="600"></rect>
    <path
        d="M0 367L90 313L180 316L270 368L360 388L450 345L540 261L630 306L720 317L810 406L900 400L900 601L810 601L720 601L630 601L540 601L450 601L360 601L270 601L180 601L90 601L0 601Z"
        fill="#444444"></path>
    <path
        d="M0 429L90 402L180 357L270 335L360 378L450 446L540 453L630 407L720 409L810 337L900 373L900 601L810 601L720 601L630 601L540 601L450 601L360 601L270 601L180 601L90 601L0 601Z"
        fill="#5f5f5f"></path>
    <path
        d="M0 446L90 450L180 419L270 443L360 459L450 466L540 446L630 429L720 495L810 484L900 464L900 601L810 601L720 601L630 601L540 601L450 601L360 601L270 601L180 601L90 601L0 601Z"
        fill="#7b7b7b"></path>
    <path
        d="M0 517L90 502L180 483L270 479L360 568L450 518L540 488L630 504L720 542L810 567L900 511L900 601L810 601L720 601L630 601L540 601L450 601L360 601L270 601L180 601L90 601L0 601Z"
        fill="#999999"  ></path>
</svg>