<svg id="visual" viewBox="0 0 900 600" width="900" height="600" xmlns="http://www.w3.org/2000/svg" xmlns:xlink="http://www.w3.org/1999/xlink" version="1.1"><path d="M0 37L10 42C20 47 40 57 60 55C80 53 100 39 120 31C140 23 160 21 180 24C200 27 220 35 240 38C260 41 280 39 300 37C320 35 340 33 360 31C380 29 400 27 420 30C440 33 460 41 480 40C500 39 520 29 540 27C560 25 580 31 600 35C620 39 640 41 660 42C680 43 700 43 720 38C740 33 760 23 780 26C800 29 820 45 840 49C860 53 880 45 890 41L900 37L900 0L890 0C880 0 860 0 840 0C820 0 800 0 780 0C760 0 740 0 720 0C700 0 680 0 660 0C640 0 620 0 600 0C580 0 560 0 540 0C520 0 500 0 480 0C460 0 440 0 420 0C400 0 380 0 360 0C340 0 320 0 300 0C280 0 260 0 240 0C220 0 200 0 180 0C160 0 140 0 120 0C100 0 80 0 60 0C40 0 20 0 10 0L0 0Z" fill="#9d4ce6"></path><path d="M0 79L10 84C20 89 40 99 60 92C80 85 100 61 120 52C140 43 160 49 180 55C200 61 220 67 240 71C260 75 280 77 300 76C320 75 340 71 360 69C380 67 400 67 420 69C440 71 460 75 480 72C500 69 520 59 540 56C560 53 580 57 600 61C620 65 640 69 660 73C680 77 700 81 720 76C740 71 760 57 780 58C800 59 820 75 840 76C860 77 880 63 890 56L900 49L900 35L890 39C880 43 860 51 840 47C820 43 800 27 780 24C760 21 740 31 720 36C700 41 680 41 660 40C640 39 620 37 600 33C580 29 560 23 540 25C520 27 500 37 480 38C460 39 440 31 420 28C400 25 380 27 360 29C340 31 320 33 300 35C280 37 260 39 240 36C220 33 200 25 180 22C160 19 140 21 120 29C100 37 80 51 60 53C40 55 20 45 10 40L0 35Z" fill="#a455e6"></path><path d="M0 139L10 164C20 189 40 239 60 243C80 247 100 205 120 181C140 157 160 151 180 146C200 141 220 137 240 141C260 145 280 157 300 171C320 185 340 201 360 217C380 233 400 249 420 246C440 243 460 221 480 214C500 207 520 215 540 224C560 233 580 243 600 233C620 223 640 193 660 179C680 165 700 167 720 160C740 153 760 137 780 145C800 153 820 185 840 199C860 213 880 209 890 207L900 205L900 47L890 54C880 61 860 75 840 74C820 73 800 57 780 56C760 55 740 69 720 74C700 79 680 75 660 71C640 67 620 63 600 59C580 55 560 51 540 54C520 57 500 67 480 70C460 73 440 69 420 67C400 65 380 65 360 67C340 69 320 73 300 74C280 75 260 73 240 69C220 65 200 59 180 53C160 47 140 41 120 50C100 59 80 83 60 90C40 97 20 87 10 82L0 77Z" fill="#ab5ee6"></path><path d="M0 187L10 213C20 239 40 291 60 291C80 291 100 239 120 213C140 187 160 187 180 183C200 179 220 171 240 173C260 175 280 187 300 205C320 223 340 247 360 268C380 289 400 307 420 304C440 301 460 277 480 267C500 257 520 261 540 269C560 277 580 289 600 276C620 263 640 225 660 214C680 203 700 219 720 220C740 221 760 207 780 213C800 219 820 245 840 252C860 259 880 247 890 241L900 235L900 203L890 205C880 207 860 211 840 197C820 183 800 151 780 143C760 135 740 151 720 158C700 165 680 163 660 177C640 191 620 221 600 231C580 241 560 231 540 222C520 213 500 205 480 212C460 219 440 241 420 244C400 247 380 231 360 215C340 199 320 183 300 169C280 155 260 143 240 139C220 135 200 139 180 144C160 149 140 155 120 179C100 203 80 245 60 241C40 237 20 187 10 162L0 137Z" fill="#b166e6"></path><path d="M0 211L10 235C20 259 40 307 60 310C80 313 100 271 120 245C140 219 160 209 180 202C200 195 220 191 240 196C260 201 280 215 300 233C320 251 340 273 360 292C380 311 400 327 420 328C440 329 460 315 480 306C500 297 520 293 540 300C560 307 580 325 600 317C620 309 640 275 660 262C680 249 700 257 720 256C740 255 760 245 780 252C800 259 820 283 840 291C860 299 880 291 890 287L900 283L900 233L890 239C880 245 860 257 840 250C820 243 800 217 780 211C760 205 740 219 720 218C700 217 680 201 660 212C640 223 620 261 600 274C580 287 560 275 540 267C520 259 500 255 480 265C460 275 440 299 420 302C400 305 380 287 360 266C340 245 320 221 300 203C280 185 260 173 240 171C220 169 200 177 180 181C160 185 140 185 120 211C100 237 80 289 60 289C40 289 20 237 10 211L0 185Z" fill="#b76fe7"></path><path d="M0 235L10 256C20 277 40 319 60 324C80 329 100 297 120 271C140 245 160 225 180 215C200 205 220 205 240 211C260 217 280 229 300 246C320 263 340 285 360 308C380 331 400 355 420 355C440 355 460 331 480 321C500 311 520 315 540 323C560 331 580 343 600 335C620 327 640 299 660 289C680 279 700 287 720 286C740 285 760 275 780 283C800 291 820 317 840 322C860 327 880 311 890 303L900 295L900 281L890 285C880 289 860 297 840 289C820 281 800 257 780 250C760 243 740 253 720 254C700 255 680 247 660 260C640 273 620 307 600 315C580 323 560 305 540 298C520 291 500 295 480 304C460 313 440 327 420 326C400 325 380 309 360 290C340 271 320 249 300 231C280 213 260 199 240 194C220 189 200 193 180 200C160 207 140 217 120 243C100 269 80 311 60 308C40 305 20 257 10 233L0 209Z" fill="#bd78e7"></path><path d="M0 247L10 267C20 287 40 327 60 332C80 337 100 307 120 282C140 257 160 237 180 227C200 217 220 217 240 227C260 237 280 257 300 277C320 297 340 317 360 336C380 355 400 373 420 371C440 369 460 347 480 338C500 329 520 333 540 340C560 347 580 357 600 349C620 341 640 315 660 306C680 297 700 305 720 307C740 309 760 305 780 312C800 319 820 337 840 340C860 343 880 331 890 325L900 319L900 293L890 301C880 309 860 325 840 320C820 315 800 289 780 281C760 273 740 283 720 284C700 285 680 277 660 287C640 297 620 325 600 333C580 341 560 329 540 321C520 313 500 309 480 319C460 329 440 353 420 353C400 353 380 329 360 306C340 283 320 261 300 244C280 227 260 215 240 209C220 203 200 203 180 213C160 223 140 243 120 269C100 295 80 327 60 322C40 317 20 275 10 254L0 233Z" fill="#c380e7"></path><path d="M0 319L10 340C20 361 40 403 60 407C80 411 100 377 120 345C140 313 160 283 180 279C200 275 220 297 240 313C260 329 280 339 300 352C320 365 340 381 360 396C380 411 400 425 420 428C440 431 460 423 480 416C500 409 520 403 540 402C560 401 580 405 600 395C620 385 640 361 660 361C680 361 700 385 720 384C740 383 760 357 780 353C800 349 820 367 840 382C860 397 880 409 890 415L900 421L900 317L890 323C880 329 860 341 840 338C820 335 800 317 780 310C760 303 740 307 720 305C700 303 680 295 660 304C640 313 620 339 600 347C580 355 560 345 540 338C520 331 500 327 480 336C460 345 440 367 420 369C400 371 380 353 360 334C340 315 320 295 300 275C280 255 260 235 240 225C220 215 200 215 180 225C160 235 140 255 120 280C100 305 80 335 60 330C40 325 20 285 10 265L0 245Z" fill="#c889e7"></path><path d="M0 343L10 365C20 387 40 431 60 437C80 443 100 411 120 376C140 341 160 303 180 295C200 287 220 309 240 325C260 341 280 351 300 367C320 383 340 405 360 424C380 443 400 459 420 460C440 461 460 447 480 441C500 435 520 437 540 440C560 443 580 447 600 435C620 423 640 395 660 391C680 387 700 407 720 407C740 407 760 387 780 386C800 385 820 403 840 419C860 435 880 449 890 456L900 463L900 419L890 413C880 407 860 395 840 380C820 365 800 347 780 351C760 355 740 381 720 382C700 383 680 359 660 359C640 359 620 383 600 393C580 403 560 399 540 400C520 401 500 407 480 414C460 421 440 429 420 426C400 423 380 409 360 394C340 379 320 363 300 350C280 337 260 327 240 311C220 295 200 273 180 277C160 281 140 311 120 343C100 375 80 409 60 405C40 401 20 359 10 338L0 317Z" fill="#cc91e8"></path><path d="M0 499L10 506C20 513 40 527 60 529C80 531 100 521 120 518C140 515 160 519 180 523C200 527 220 531 240 528C260 525 280 515 300 509C320 503 340 501 360 506C380 511 400 523 420 529C440 535 460 535 480 535C500 535 520 535 540 534C560 533 580 531 600 526C620 521 640 513 660 513C680 513 700 521 720 525C740 529 760 529 780 528C800 527 820 525 840 525C860 525 880 527 890 528L900 529L900 461L890 454C880 447 860 433 840 417C820 401 800 383 780 384C760 385 740 405 720 405C700 405 680 385 660 389C640 393 620 421 600 433C580 445 560 441 540 438C520 435 500 433 480 439C460 445 440 459 420 458C400 457 380 441 360 422C340 403 320 381 300 365C280 349 260 339 240 323C220 307 200 285 180 293C160 301 140 339 120 374C100 409 80 441 60 435C40 429 20 385 10 363L0 341Z" fill="#d19ae8"></path><path d="M0 577L10 578C20 579 40 581 60 581C80 581 100 579 120 574C140 569 160 561 180 559C200 557 220 561 240 564C260 567 280 569 300 571C320 573 340 575 360 575C380 575 400 573 420 573C440 573 460 575 480 577C500 579 520 581 540 582C560 583 580 583 600 584C620 585 640 587 660 584C680 581 700 573 720 572C740 571 760 577 780 578C800 579 820 575 840 576C860 577 880 583 890 586L900 589L900 527L890 526C880 525 860 523 840 523C820 523 800 525 780 526C760 527 740 527 720 523C700 519 680 511 660 511C640 511 620 519 600 524C580 529 560 531 540 532C520 533 500 533 480 533C460 533 440 533 420 527C400 521 380 509 360 504C340 499 320 501 300 507C280 513 260 523 240 526C220 529 200 525 180 521C160 517 140 513 120 516C100 519 80 529 60 527C40 525 20 511 10 504L0 497Z" fill="#d5a2e9"></path><path d="M0 601L10 601C20 601 40 601 60 601C80 601 100 601 120 601C140 601 160 601 180 601C200 601 220 601 240 601C260 601 280 601 300 601C320 601 340 601 360 601C380 601 400 601 420 601C440 601 460 601 480 601C500 601 520 601 540 601C560 601 580 601 600 601C620 601 640 601 660 601C680 601 700 601 720 601C740 601 760 601 780 601C800 601 820 601 840 601C860 601 880 601 890 601L900 601L900 587L890 584C880 581 860 575 840 574C820 573 800 577 780 576C760 575 740 569 720 570C700 571 680 579 660 582C640 585 620 583 600 582C580 581 560 581 540 580C520 579 500 577 480 575C460 573 440 571 420 571C400 571 380 573 360 573C340 573 320 571 300 569C280 567 260 565 240 562C220 559 200 555 180 557C160 559 140 567 120 572C100 577 80 579 60 579C40 579 20 577 10 576L0 575Z" fill="#d9abe9"></path></svg>