<svg id="visual" viewBox="0 0 900 600" width="900" height="600" xmlns="http://www.w3.org/2000/svg" xmlns:xlink="http://www.w3.org/1999/xlink" version="1.1"><path d="M0 31L15 33C30 35 60 39 90 42C120 45 150 47 180 43C210 39 240 29 270 32C300 35 330 51 360 49C390 47 420 27 450 24C480 21 510 35 540 42C570 49 600 49 630 51C660 53 690 57 720 59C750 61 780 61 810 61C840 61 870 61 885 61L900 61L900 0L885 0C870 0 840 0 810 0C780 0 750 0 720 0C690 0 660 0 630 0C600 0 570 0 540 0C510 0 480 0 450 0C420 0 390 0 360 0C330 0 300 0 270 0C240 0 210 0 180 0C150 0 120 0 90 0C60 0 30 0 15 0L0 0Z" fill="#0b0221"></path><path d="M0 133L15 124C30 115 60 97 90 99C120 101 150 123 180 128C210 133 240 121 270 130C300 139 330 169 360 175C390 181 420 163 450 142C480 121 510 97 540 98C570 99 600 125 630 127C660 129 690 107 720 114C750 121 780 157 810 166C840 175 870 157 885 148L900 139L900 59L885 59C870 59 840 59 810 59C780 59 750 59 720 57C690 55 660 51 630 49C600 47 570 47 540 40C510 33 480 19 450 22C420 25 390 45 360 47C330 49 300 33 270 30C240 27 210 37 180 41C150 45 120 43 90 40C60 37 30 33 15 31L0 29Z" fill="#161831"></path><path d="M0 223L15 212C30 201 60 179 90 168C120 157 150 157 180 161C210 165 240 173 270 185C300 197 330 213 360 209C390 205 420 181 450 165C480 149 510 141 540 152C570 163 600 193 630 187C660 181 690 139 720 147C750 155 780 213 810 225C840 237 870 203 885 186L900 169L900 137L885 146C870 155 840 173 810 164C780 155 750 119 720 112C690 105 660 127 630 125C600 123 570 97 540 96C510 95 480 119 450 140C420 161 390 179 360 173C330 167 300 137 270 128C240 119 210 131 180 126C150 121 120 99 90 97C60 95 30 113 15 122L0 131Z" fill="#232841"></path><path d="M0 319L15 316C30 313 60 307 90 308C120 309 150 317 180 321C210 325 240 325 270 314C300 303 330 281 360 274C390 267 420 275 450 294C480 313 510 343 540 347C570 351 600 329 630 330C660 331 690 355 720 354C750 353 780 327 810 307C840 287 870 273 885 266L900 259L900 167L885 184C870 201 840 235 810 223C780 211 750 153 720 145C690 137 660 179 630 185C600 191 570 161 540 150C510 139 480 147 450 163C420 179 390 203 360 207C330 211 300 195 270 183C240 171 210 163 180 159C150 155 120 155 90 166C60 177 30 199 15 210L0 221Z" fill="#313952"></path><path d="M0 343L15 346C30 349 60 355 90 361C120 367 150 373 180 373C210 373 240 367 270 349C300 331 330 301 360 297C390 293 420 315 450 341C480 367 510 397 540 401C570 405 600 383 630 380C660 377 690 393 720 393C750 393 780 377 810 356C840 335 870 309 885 296L900 283L900 257L885 264C870 271 840 285 810 305C780 325 750 351 720 352C690 353 660 329 630 328C600 327 570 349 540 345C510 341 480 311 450 292C420 273 390 265 360 272C330 279 300 301 270 312C240 323 210 323 180 319C150 315 120 307 90 306C60 305 30 311 15 314L0 317Z" fill="#3f4b63"></path><path d="M0 391L15 389C30 387 60 383 90 387C120 391 150 403 180 411C210 419 240 423 270 409C300 395 330 363 360 360C390 357 420 383 450 402C480 421 510 433 540 437C570 441 600 437 630 445C660 453 690 473 720 469C750 465 780 437 810 412C840 387 870 365 885 354L900 343L900 281L885 294C870 307 840 333 810 354C780 375 750 391 720 391C690 391 660 375 630 378C600 381 570 403 540 399C510 395 480 365 450 339C420 313 390 291 360 295C330 299 300 329 270 347C240 365 210 371 180 371C150 371 120 365 90 359C60 353 30 347 15 344L0 341Z" fill="#4e5d74"></path><path d="M0 415L15 411C30 407 60 399 90 404C120 409 150 427 180 435C210 443 240 441 270 433C300 425 330 411 360 413C390 415 420 433 450 446C480 459 510 467 540 468C570 469 600 463 630 468C660 473 690 489 720 482C750 475 780 445 810 425C840 405 870 395 885 390L900 385L900 341L885 352C870 363 840 385 810 410C780 435 750 463 720 467C690 471 660 451 630 443C600 435 570 439 540 435C510 431 480 419 450 400C420 381 390 355 360 358C330 361 300 393 270 407C240 421 210 417 180 409C150 401 120 389 90 385C60 381 30 385 15 387L0 389Z" fill="#5f7186"></path><path d="M0 481L15 475C30 469 60 457 90 458C120 459 150 473 180 480C210 487 240 487 270 478C300 469 330 451 360 452C390 453 420 473 450 485C480 497 510 501 540 505C570 509 600 513 630 514C660 515 690 513 720 501C750 489 780 467 810 454C840 441 870 437 885 435L900 433L900 383L885 388C870 393 840 403 810 423C780 443 750 473 720 480C690 487 660 471 630 466C600 461 570 467 540 466C510 465 480 457 450 444C420 431 390 413 360 411C330 409 300 423 270 431C240 439 210 441 180 433C150 425 120 407 90 402C60 397 30 405 15 409L0 413Z" fill="#708498"></path><path d="M0 601L15 601C30 601 60 601 90 601C120 601 150 601 180 601C210 601 240 601 270 601C300 601 330 601 360 601C390 601 420 601 450 601C480 601 510 601 540 601C570 601 600 601 630 601C660 601 690 601 720 601C750 601 780 601 810 601C840 601 870 601 885 601L900 601L900 431L885 433C870 435 840 439 810 452C780 465 750 487 720 499C690 511 660 513 630 512C600 511 570 507 540 503C510 499 480 495 450 483C420 471 390 451 360 450C330 449 300 467 270 476C240 485 210 485 180 478C150 471 120 457 90 456C60 455 30 467 15 473L0 479Z" fill="#8298aa"></path></svg>