<svg id="visual" viewBox="0 0 900 600" width="900" height="600" xmlns="http://www.w3.org/2000/svg" xmlns:xlink="http://www.w3.org/1999/xlink" version="1.1"><path d="M0 37L10 42C20 47 40 57 60 66C80 75 100 83 120 83C140 83 160 75 180 70C200 65 220 63 240 69C260 75 280 89 300 84C320 79 340 55 360 45C380 35 400 39 420 41C440 43 460 43 480 49C500 55 520 67 540 73C560 79 580 79 600 82C620 85 640 91 660 93C680 95 700 93 720 91C740 89 760 87 780 86C800 85 820 85 840 84C860 83 880 81 890 80L900 79L900 0L890 0C880 0 860 0 840 0C820 0 800 0 780 0C760 0 740 0 720 0C700 0 680 0 660 0C640 0 620 0 600 0C580 0 560 0 540 0C520 0 500 0 480 0C460 0 440 0 420 0C400 0 380 0 360 0C340 0 320 0 300 0C280 0 260 0 240 0C220 0 200 0 180 0C160 0 140 0 120 0C100 0 80 0 60 0C40 0 20 0 10 0L0 0Z" fill="#9d4ce6"></path><path d="M0 103L10 101C20 99 40 95 60 105C80 115 100 139 120 141C140 143 160 123 180 112C200 101 220 99 240 107C260 115 280 133 300 129C320 125 340 99 360 88C380 77 400 81 420 88C440 95 460 105 480 108C500 111 520 107 540 104C560 101 580 99 600 109C620 119 640 141 660 151C680 161 700 159 720 149C740 139 760 121 780 116C800 111 820 119 840 120C860 121 880 115 890 112L900 109L900 77L890 78C880 79 860 81 840 82C820 83 800 83 780 84C760 85 740 87 720 89C700 91 680 93 660 91C640 89 620 83 600 80C580 77 560 77 540 71C520 65 500 53 480 47C460 41 440 41 420 39C400 37 380 33 360 43C340 53 320 77 300 82C280 87 260 73 240 67C220 61 200 63 180 68C160 73 140 81 120 81C100 81 80 73 60 64C40 55 20 45 10 40L0 35Z" fill="#a758e6"></path><path d="M0 157L10 148C20 139 40 121 60 128C80 135 100 167 120 169C140 171 160 143 180 135C200 127 220 139 240 148C260 157 280 163 300 159C320 155 340 141 360 135C380 129 400 131 420 134C440 137 460 141 480 138C500 135 520 125 540 121C560 117 580 119 600 135C620 151 640 181 660 192C680 203 700 195 720 184C740 173 760 159 780 156C800 153 820 161 840 159C860 157 880 145 890 139L900 133L900 107L890 110C880 113 860 119 840 118C820 117 800 109 780 114C760 119 740 137 720 147C700 157 680 159 660 149C640 139 620 117 600 107C580 97 560 99 540 102C520 105 500 109 480 106C460 103 440 93 420 86C400 79 380 75 360 86C340 97 320 123 300 127C280 131 260 113 240 105C220 97 200 99 180 110C160 121 140 141 120 139C100 137 80 113 60 103C40 93 20 97 10 99L0 101Z" fill="#b064e6"></path><path d="M0 181L10 180C20 179 40 177 60 186C80 195 100 215 120 211C140 207 160 179 180 178C200 177 220 203 240 211C260 219 280 209 300 200C320 191 340 183 360 185C380 187 400 199 420 198C440 197 460 183 480 177C500 171 520 173 540 171C560 169 580 163 600 172C620 181 640 205 660 222C680 239 700 249 720 241C740 233 760 207 780 202C800 197 820 213 840 214C860 215 880 201 890 194L900 187L900 131L890 137C880 143 860 155 840 157C820 159 800 151 780 154C760 157 740 171 720 182C700 193 680 201 660 190C640 179 620 149 600 133C580 117 560 115 540 119C520 123 500 133 480 136C460 139 440 135 420 132C400 129 380 127 360 133C340 139 320 153 300 157C280 161 260 155 240 146C220 137 200 125 180 133C160 141 140 169 120 167C100 165 80 133 60 126C40 119 20 137 10 146L0 155Z" fill="#b870e7"></path><path d="M0 205L10 208C20 211 40 217 60 225C80 233 100 243 120 237C140 231 160 209 180 212C200 215 220 243 240 252C260 261 280 251 300 241C320 231 340 221 360 218C380 215 400 219 420 218C440 217 460 211 480 209C500 207 520 209 540 203C560 197 580 183 600 195C620 207 640 245 660 268C680 291 700 299 720 284C740 269 760 231 780 223C800 215 820 237 840 242C860 247 880 235 890 229L900 223L900 185L890 192C880 199 860 213 840 212C820 211 800 195 780 200C760 205 740 231 720 239C700 247 680 237 660 220C640 203 620 179 600 170C580 161 560 167 540 169C520 171 500 169 480 175C460 181 440 195 420 196C400 197 380 185 360 183C340 181 320 189 300 198C280 207 260 217 240 209C220 201 200 175 180 176C160 177 140 205 120 209C100 213 80 193 60 184C40 175 20 177 10 178L0 179Z" fill="#c07ce7"></path><path d="M0 337L10 328C20 319 40 301 60 293C80 285 100 287 120 280C140 273 160 257 180 266C200 275 220 309 240 314C260 319 280 295 300 286C320 277 340 283 360 296C380 309 400 329 420 324C440 319 460 289 480 273C500 257 520 255 540 249C560 243 580 233 600 246C620 259 640 295 660 321C680 347 700 363 720 363C740 363 760 347 780 336C800 325 820 319 840 316C860 313 880 313 890 313L900 313L900 221L890 227C880 233 860 245 840 240C820 235 800 213 780 221C760 229 740 267 720 282C700 297 680 289 660 266C640 243 620 205 600 193C580 181 560 195 540 201C520 207 500 205 480 207C460 209 440 215 420 216C400 217 380 213 360 216C340 219 320 229 300 239C280 249 260 259 240 250C220 241 200 213 180 210C160 207 140 229 120 235C100 241 80 231 60 223C40 215 20 209 10 206L0 203Z" fill="#c788e7"></path><path d="M0 439L10 436C20 433 40 427 60 412C80 397 100 373 120 368C140 363 160 377 180 402C200 427 220 463 240 469C260 475 280 451 300 438C320 425 340 423 360 421C380 419 400 417 420 429C440 441 460 467 480 464C500 461 520 429 540 421C560 413 580 429 600 434C620 439 640 433 660 429C680 425 700 423 720 432C740 441 760 461 780 474C800 487 820 493 840 492C860 491 880 483 890 479L900 475L900 311L890 311C880 311 860 311 840 314C820 317 800 323 780 334C760 345 740 361 720 361C700 361 680 345 660 319C640 293 620 257 600 244C580 231 560 241 540 247C520 253 500 255 480 271C460 287 440 317 420 322C400 327 380 307 360 294C340 281 320 275 300 284C280 293 260 317 240 312C220 307 200 273 180 264C160 255 140 271 120 278C100 285 80 283 60 291C40 299 20 317 10 326L0 335Z" fill="#ce93e8"></path><path d="M0 553L10 551C20 549 40 545 60 549C80 553 100 565 120 571C140 577 160 577 180 575C200 573 220 569 240 570C260 571 280 577 300 580C320 583 340 583 360 579C380 575 400 567 420 564C440 561 460 563 480 565C500 567 520 569 540 567C560 565 580 559 600 560C620 561 640 569 660 573C680 577 700 577 720 573C740 569 760 561 780 561C800 561 820 569 840 566C860 563 880 549 890 542L900 535L900 473L890 477C880 481 860 489 840 490C820 491 800 485 780 472C760 459 740 439 720 430C700 421 680 423 660 427C640 431 620 437 600 432C580 427 560 411 540 419C520 427 500 459 480 462C460 465 440 439 420 427C400 415 380 417 360 419C340 421 320 423 300 436C280 449 260 473 240 467C220 461 200 425 180 400C160 375 140 361 120 366C100 371 80 395 60 410C40 425 20 431 10 434L0 437Z" fill="#d39fe8"></path><path d="M0 601L10 601C20 601 40 601 60 601C80 601 100 601 120 601C140 601 160 601 180 601C200 601 220 601 240 601C260 601 280 601 300 601C320 601 340 601 360 601C380 601 400 601 420 601C440 601 460 601 480 601C500 601 520 601 540 601C560 601 580 601 600 601C620 601 640 601 660 601C680 601 700 601 720 601C740 601 760 601 780 601C800 601 820 601 840 601C860 601 880 601 890 601L900 601L900 533L890 540C880 547 860 561 840 564C820 567 800 559 780 559C760 559 740 567 720 571C700 575 680 575 660 571C640 567 620 559 600 558C580 557 560 563 540 565C520 567 500 565 480 563C460 561 440 559 420 562C400 565 380 573 360 577C340 581 320 581 300 578C280 575 260 569 240 568C220 567 200 571 180 573C160 575 140 575 120 569C100 563 80 551 60 547C40 543 20 547 10 549L0 551Z" fill="#d9abe9"></path></svg>