<svg id="visual" viewBox="0 0 900 600" width="900" height="600" xmlns="http://www.w3.org/2000/svg" xmlns:xlink="http://www.w3.org/1999/xlink" version="1.1"><path d="M0 31L7.2 34C14.3 37 28.7 43 43 41C57.3 39 71.7 29 86 27C100.3 25 114.7 31 128.8 31C143 31 157 25 171.2 25C185.3 25 199.7 31 214 34C228.3 37 242.7 37 257 38C271.3 39 285.7 41 300 40C314.3 39 328.7 35 343 34C357.3 33 371.7 35 386 38C400.3 41 414.7 45 428.8 47C443 49 457 49 471.2 47C485.3 45 499.7 41 514 40C528.3 39 542.7 41 557 43C571.3 45 585.7 47 600 46C614.3 45 628.7 41 643 38C657.3 35 671.7 33 686 32C700.3 31 714.7 31 728.8 32C743 33 757 35 771.2 36C785.3 37 799.7 37 814 38C828.3 39 842.7 41 857 41C871.3 41 885.7 39 892.8 38L900 37L900 0L892.8 0C885.7 0 871.3 0 857 0C842.7 0 828.3 0 814 0C799.7 0 785.3 0 771.2 0C757 0 743 0 728.8 0C714.7 0 700.3 0 686 0C671.7 0 657.3 0 643 0C628.7 0 614.3 0 600 0C585.7 0 571.3 0 557 0C542.7 0 528.3 0 514 0C499.7 0 485.3 0 471.2 0C457 0 443 0 428.8 0C414.7 0 400.3 0 386 0C371.7 0 357.3 0 343 0C328.7 0 314.3 0 300 0C285.7 0 271.3 0 257 0C242.7 0 228.3 0 214 0C199.7 0 185.3 0 171.2 0C157 0 143 0 128.8 0C114.7 0 100.3 0 86 0C71.7 0 57.3 0 43 0C28.7 0 14.3 0 7.2 0L0 0Z" fill="#9d4ce6"></path><path d="M0 97L7.2 97C14.3 97 28.7 97 43 90C57.3 83 71.7 69 86 65C100.3 61 114.7 67 128.8 68C143 69 157 65 171.2 71C185.3 77 199.7 93 214 99C228.3 105 242.7 101 257 100C271.3 99 285.7 101 300 103C314.3 105 328.7 107 343 103C357.3 99 371.7 89 386 90C400.3 91 414.7 103 428.8 112C443 121 457 127 471.2 124C485.3 121 499.7 109 514 99C528.3 89 542.7 81 557 86C571.3 91 585.7 109 600 114C614.3 119 628.7 111 643 103C657.3 95 671.7 87 686 84C700.3 81 714.7 83 728.8 87C743 91 757 97 771.2 99C785.3 101 799.7 99 814 99C828.3 99 842.7 101 857 100C871.3 99 885.7 95 892.8 93L900 91L900 35L892.8 36C885.7 37 871.3 39 857 39C842.7 39 828.3 37 814 36C799.7 35 785.3 35 771.2 34C757 33 743 31 728.8 30C714.7 29 700.3 29 686 30C671.7 31 657.3 33 643 36C628.7 39 614.3 43 600 44C585.7 45 571.3 43 557 41C542.7 39 528.3 37 514 38C499.7 39 485.3 43 471.2 45C457 47 443 47 428.8 45C414.7 43 400.3 39 386 36C371.7 33 357.3 31 343 32C328.7 33 314.3 37 300 38C285.7 39 271.3 37 257 36C242.7 35 228.3 35 214 32C199.7 29 185.3 23 171.2 23C157 23 143 29 128.8 29C114.7 29 100.3 23 86 25C71.7 27 57.3 37 43 39C28.7 41 14.3 35 7.2 32L0 29Z" fill="#a455e6"></path><path d="M0 187L7.2 187C14.3 187 28.7 187 43 176C57.3 165 71.7 143 86 135C100.3 127 114.7 133 128.8 132C143 131 157 123 171.2 134C185.3 145 199.7 175 214 188C228.3 201 242.7 197 257 194C271.3 191 285.7 189 300 184C314.3 179 328.7 171 343 165C357.3 159 371.7 155 386 161C400.3 167 414.7 183 428.8 197C443 211 457 223 471.2 221C485.3 219 499.7 203 514 192C528.3 181 542.7 175 557 176C571.3 177 585.7 185 600 190C614.3 195 628.7 197 643 186C657.3 175 671.7 151 686 139C700.3 127 714.7 127 728.8 129C743 131 757 135 771.2 144C785.3 153 799.7 167 814 177C828.3 187 842.7 193 857 190C871.3 187 885.7 175 892.8 169L900 163L900 89L892.8 91C885.7 93 871.3 97 857 98C842.7 99 828.3 97 814 97C799.7 97 785.3 99 771.2 97C757 95 743 89 728.8 85C714.7 81 700.3 79 686 82C671.7 85 657.3 93 643 101C628.7 109 614.3 117 600 112C585.7 107 571.3 89 557 84C542.7 79 528.3 87 514 97C499.7 107 485.3 119 471.2 122C457 125 443 119 428.8 110C414.7 101 400.3 89 386 88C371.7 87 357.3 97 343 101C328.7 105 314.3 103 300 101C285.7 99 271.3 97 257 98C242.7 99 228.3 103 214 97C199.7 91 185.3 75 171.2 69C157 63 143 67 128.8 66C114.7 65 100.3 59 86 63C71.7 67 57.3 81 43 88C28.7 95 14.3 95 7.2 95L0 95Z" fill="#ab5ee6"></path><path d="M0 199L7.2 202C14.3 205 28.7 211 43 202C57.3 193 71.7 169 86 158C100.3 147 114.7 149 128.8 146C143 143 157 135 171.2 146C185.3 157 199.7 187 214 200C228.3 213 242.7 209 257 208C271.3 207 285.7 209 300 204C314.3 199 328.7 187 343 179C357.3 171 371.7 167 386 176C400.3 185 414.7 207 428.8 221C443 235 457 241 471.2 236C485.3 231 499.7 215 514 205C528.3 195 542.7 191 557 194C571.3 197 585.7 207 600 211C614.3 215 628.7 213 643 202C657.3 191 671.7 171 686 159C700.3 147 714.7 143 728.8 146C743 149 757 159 771.2 169C785.3 179 799.7 189 814 198C828.3 207 842.7 215 857 211C871.3 207 885.7 191 892.8 183L900 175L900 161L892.8 167C885.7 173 871.3 185 857 188C842.7 191 828.3 185 814 175C799.7 165 785.3 151 771.2 142C757 133 743 129 728.8 127C714.7 125 700.3 125 686 137C671.7 149 657.3 173 643 184C628.7 195 614.3 193 600 188C585.7 183 571.3 175 557 174C542.7 173 528.3 179 514 190C499.7 201 485.3 217 471.2 219C457 221 443 209 428.8 195C414.7 181 400.3 165 386 159C371.7 153 357.3 157 343 163C328.7 169 314.3 177 300 182C285.7 187 271.3 189 257 192C242.7 195 228.3 199 214 186C199.7 173 185.3 143 171.2 132C157 121 143 129 128.8 130C114.7 131 100.3 125 86 133C71.7 141 57.3 163 43 174C28.7 185 14.3 185 7.2 185L0 185Z" fill="#b166e6"></path><path d="M0 235L7.2 235C14.3 235 28.7 235 43 226C57.3 217 71.7 199 86 191C100.3 183 114.7 185 128.8 183C143 181 157 175 171.2 186C185.3 197 199.7 225 214 235C228.3 245 242.7 237 257 237C271.3 237 285.7 245 300 241C314.3 237 328.7 221 343 213C357.3 205 371.7 205 386 213C400.3 221 414.7 237 428.8 249C443 261 457 269 471.2 263C485.3 257 499.7 237 514 229C528.3 221 542.7 225 557 232C571.3 239 585.7 249 600 249C614.3 249 628.7 239 643 227C657.3 215 671.7 201 686 193C700.3 185 714.7 183 728.8 187C743 191 757 201 771.2 208C785.3 215 799.7 219 814 225C828.3 231 842.7 239 857 237C871.3 235 885.7 223 892.8 217L900 211L900 173L892.8 181C885.7 189 871.3 205 857 209C842.7 213 828.3 205 814 196C799.7 187 785.3 177 771.2 167C757 157 743 147 728.8 144C714.7 141 700.3 145 686 157C671.7 169 657.3 189 643 200C628.7 211 614.3 213 600 209C585.7 205 571.3 195 557 192C542.7 189 528.3 193 514 203C499.7 213 485.3 229 471.2 234C457 239 443 233 428.8 219C414.7 205 400.3 183 386 174C371.7 165 357.3 169 343 177C328.7 185 314.3 197 300 202C285.7 207 271.3 205 257 206C242.7 207 228.3 211 214 198C199.7 185 185.3 155 171.2 144C157 133 143 141 128.8 144C114.7 147 100.3 145 86 156C71.7 167 57.3 191 43 200C28.7 209 14.3 203 7.2 200L0 197Z" fill="#b76fe7"></path><path d="M0 259L7.2 259C14.3 259 28.7 259 43 252C57.3 245 71.7 231 86 223C100.3 215 114.7 213 128.8 211C143 209 157 207 171.2 217C185.3 227 199.7 249 214 256C228.3 263 242.7 255 257 255C271.3 255 285.7 263 300 261C314.3 259 328.7 247 343 242C357.3 237 371.7 239 386 246C400.3 253 414.7 265 428.8 274C443 283 457 289 471.2 284C485.3 279 499.7 263 514 258C528.3 253 542.7 259 557 265C571.3 271 585.7 277 600 277C614.3 277 628.7 271 643 259C657.3 247 671.7 229 686 219C700.3 209 714.7 207 728.8 213C743 219 757 233 771.2 240C785.3 247 799.7 247 814 253C828.3 259 842.7 271 857 270C871.3 269 885.7 255 892.8 248L900 241L900 209L892.8 215C885.7 221 871.3 233 857 235C842.7 237 828.3 229 814 223C799.7 217 785.3 213 771.2 206C757 199 743 189 728.8 185C714.7 181 700.3 183 686 191C671.7 199 657.3 213 643 225C628.7 237 614.3 247 600 247C585.7 247 571.3 237 557 230C542.7 223 528.3 219 514 227C499.7 235 485.3 255 471.2 261C457 267 443 259 428.8 247C414.7 235 400.3 219 386 211C371.7 203 357.3 203 343 211C328.7 219 314.3 235 300 239C285.7 243 271.3 235 257 235C242.7 235 228.3 243 214 233C199.7 223 185.3 195 171.2 184C157 173 143 179 128.8 181C114.7 183 100.3 181 86 189C71.7 197 57.3 215 43 224C28.7 233 14.3 233 7.2 233L0 233Z" fill="#bd78e7"></path><path d="M0 391L7.2 380C14.3 369 28.7 347 43 336C57.3 325 71.7 325 86 323C100.3 321 114.7 317 128.8 310C143 303 157 293 171.2 297C185.3 301 199.7 319 214 328C228.3 337 242.7 337 257 341C271.3 345 285.7 353 300 359C314.3 365 328.7 369 343 363C357.3 357 371.7 341 386 339C400.3 337 414.7 349 428.8 367C443 385 457 409 471.2 405C485.3 401 499.7 369 514 362C528.3 355 542.7 373 557 388C571.3 403 585.7 415 600 406C614.3 397 628.7 367 643 358C657.3 349 671.7 361 686 354C700.3 347 714.7 321 728.8 320C743 319 757 343 771.2 354C785.3 365 799.7 363 814 370C828.3 377 842.7 393 857 395C871.3 397 885.7 385 892.8 379L900 373L900 239L892.8 246C885.7 253 871.3 267 857 268C842.7 269 828.3 257 814 251C799.7 245 785.3 245 771.2 238C757 231 743 217 728.8 211C714.7 205 700.3 207 686 217C671.7 227 657.3 245 643 257C628.7 269 614.3 275 600 275C585.7 275 571.3 269 557 263C542.7 257 528.3 251 514 256C499.7 261 485.3 277 471.2 282C457 287 443 281 428.8 272C414.7 263 400.3 251 386 244C371.7 237 357.3 235 343 240C328.7 245 314.3 257 300 259C285.7 261 271.3 253 257 253C242.7 253 228.3 261 214 254C199.7 247 185.3 225 171.2 215C157 205 143 207 128.8 209C114.7 211 100.3 213 86 221C71.7 229 57.3 243 43 250C28.7 257 14.3 257 7.2 257L0 257Z" fill="#c380e7"></path><path d="M0 439L7.2 425C14.3 411 28.7 383 43 370C57.3 357 71.7 359 86 362C100.3 365 114.7 369 128.8 360C143 351 157 329 171.2 328C185.3 327 199.7 347 214 360C228.3 373 242.7 379 257 386C271.3 393 285.7 401 300 404C314.3 407 328.7 405 343 397C357.3 389 371.7 375 386 378C400.3 381 414.7 401 428.8 418C443 435 457 449 471.2 443C485.3 437 499.7 411 514 408C528.3 405 542.7 425 557 436C571.3 447 585.7 449 600 439C614.3 429 628.7 407 643 401C657.3 395 671.7 405 686 400C700.3 395 714.7 375 728.8 375C743 375 757 395 771.2 406C785.3 417 799.7 419 814 423C828.3 427 842.7 433 857 431C871.3 429 885.7 419 892.8 414L900 409L900 371L892.8 377C885.7 383 871.3 395 857 393C842.7 391 828.3 375 814 368C799.7 361 785.3 363 771.2 352C757 341 743 317 728.8 318C714.7 319 700.3 345 686 352C671.7 359 657.3 347 643 356C628.7 365 614.3 395 600 404C585.7 413 571.3 401 557 386C542.7 371 528.3 353 514 360C499.7 367 485.3 399 471.2 403C457 407 443 383 428.8 365C414.7 347 400.3 335 386 337C371.7 339 357.3 355 343 361C328.7 367 314.3 363 300 357C285.7 351 271.3 343 257 339C242.7 335 228.3 335 214 326C199.7 317 185.3 299 171.2 295C157 291 143 301 128.8 308C114.7 315 100.3 319 86 321C71.7 323 57.3 323 43 334C28.7 345 14.3 367 7.2 378L0 389Z" fill="#c889e7"></path><path d="M0 511L7.2 512C14.3 513 28.7 515 43 515C57.3 515 71.7 513 86 510C100.3 507 114.7 503 128.8 500C143 497 157 495 171.2 497C185.3 499 199.7 505 214 510C228.3 515 242.7 519 257 516C271.3 513 285.7 503 300 499C314.3 495 328.7 497 343 501C357.3 505 371.7 511 386 516C400.3 521 414.7 525 428.8 528C443 531 457 533 471.2 530C485.3 527 499.7 519 514 516C528.3 513 542.7 515 557 519C571.3 523 585.7 529 600 531C614.3 533 628.7 531 643 531C657.3 531 671.7 533 686 531C700.3 529 714.7 523 728.8 520C743 517 757 517 771.2 520C785.3 523 799.7 529 814 531C828.3 533 842.7 531 857 525C871.3 519 885.7 509 892.8 504L900 499L900 407L892.8 412C885.7 417 871.3 427 857 429C842.7 431 828.3 425 814 421C799.7 417 785.3 415 771.2 404C757 393 743 373 728.8 373C714.7 373 700.3 393 686 398C671.7 403 657.3 393 643 399C628.7 405 614.3 427 600 437C585.7 447 571.3 445 557 434C542.7 423 528.3 403 514 406C499.7 409 485.3 435 471.2 441C457 447 443 433 428.8 416C414.7 399 400.3 379 386 376C371.7 373 357.3 387 343 395C328.7 403 314.3 405 300 402C285.7 399 271.3 391 257 384C242.7 377 228.3 371 214 358C199.7 345 185.3 325 171.2 326C157 327 143 349 128.8 358C114.7 367 100.3 363 86 360C71.7 357 57.3 355 43 368C28.7 381 14.3 409 7.2 423L0 437Z" fill="#cc91e8"></path><path d="M0 541L7.2 540C14.3 539 28.7 537 43 536C57.3 535 71.7 535 86 533C100.3 531 114.7 527 128.8 524C143 521 157 519 171.2 522C185.3 525 199.7 533 214 537C228.3 541 242.7 541 257 537C271.3 533 285.7 525 300 521C314.3 517 328.7 517 343 519C357.3 521 371.7 525 386 529C400.3 533 414.7 537 428.8 540C443 543 457 545 471.2 544C485.3 543 499.7 539 514 537C528.3 535 542.7 535 557 537C571.3 539 585.7 543 600 544C614.3 545 628.7 543 643 545C657.3 547 671.7 553 686 553C700.3 553 714.7 547 728.8 544C743 541 757 541 771.2 542C785.3 543 799.7 545 814 547C828.3 549 842.7 551 857 548C871.3 545 885.7 537 892.8 533L900 529L900 497L892.8 502C885.7 507 871.3 517 857 523C842.7 529 828.3 531 814 529C799.7 527 785.3 521 771.2 518C757 515 743 515 728.8 518C714.7 521 700.3 527 686 529C671.7 531 657.3 529 643 529C628.7 529 614.3 531 600 529C585.7 527 571.3 521 557 517C542.7 513 528.3 511 514 514C499.7 517 485.3 525 471.2 528C457 531 443 529 428.8 526C414.7 523 400.3 519 386 514C371.7 509 357.3 503 343 499C328.7 495 314.3 493 300 497C285.7 501 271.3 511 257 514C242.7 517 228.3 513 214 508C199.7 503 185.3 497 171.2 495C157 493 143 495 128.8 498C114.7 501 100.3 505 86 508C71.7 511 57.3 513 43 513C28.7 513 14.3 511 7.2 510L0 509Z" fill="#d19ae8"></path><path d="M0 577L7.2 575C14.3 573 28.7 569 43 570C57.3 571 71.7 577 86 578C100.3 579 114.7 575 128.8 573C143 571 157 571 171.2 570C185.3 569 199.7 567 214 568C228.3 569 242.7 573 257 573C271.3 573 285.7 569 300 567C314.3 565 328.7 565 343 567C357.3 569 371.7 573 386 576C400.3 579 414.7 581 428.8 581C443 581 457 579 471.2 577C485.3 575 499.7 573 514 571C528.3 569 542.7 567 557 567C571.3 567 585.7 569 600 571C614.3 573 628.7 575 643 577C657.3 579 671.7 581 686 582C700.3 583 714.7 583 728.8 582C743 581 757 579 771.2 579C785.3 579 799.7 581 814 581C828.3 581 842.7 579 857 576C871.3 573 885.7 569 892.8 567L900 565L900 527L892.8 531C885.7 535 871.3 543 857 546C842.7 549 828.3 547 814 545C799.7 543 785.3 541 771.2 540C757 539 743 539 728.8 542C714.7 545 700.3 551 686 551C671.7 551 657.3 545 643 543C628.7 541 614.3 543 600 542C585.7 541 571.3 537 557 535C542.7 533 528.3 533 514 535C499.7 537 485.3 541 471.2 542C457 543 443 541 428.8 538C414.7 535 400.3 531 386 527C371.7 523 357.3 519 343 517C328.7 515 314.3 515 300 519C285.7 523 271.3 531 257 535C242.7 539 228.3 539 214 535C199.7 531 185.3 523 171.2 520C157 517 143 519 128.8 522C114.7 525 100.3 529 86 531C71.7 533 57.3 533 43 534C28.7 535 14.3 537 7.2 538L0 539Z" fill="#d5a2e9"></path><path d="M0 601L7.2 601C14.3 601 28.7 601 43 601C57.3 601 71.7 601 86 601C100.3 601 114.7 601 128.8 601C143 601 157 601 171.2 601C185.3 601 199.7 601 214 601C228.3 601 242.7 601 257 601C271.3 601 285.7 601 300 601C314.3 601 328.7 601 343 601C357.3 601 371.7 601 386 601C400.3 601 414.7 601 428.8 601C443 601 457 601 471.2 601C485.3 601 499.7 601 514 601C528.3 601 542.7 601 557 601C571.3 601 585.7 601 600 601C614.3 601 628.7 601 643 601C657.3 601 671.7 601 686 601C700.3 601 714.7 601 728.8 601C743 601 757 601 771.2 601C785.3 601 799.7 601 814 601C828.3 601 842.7 601 857 601C871.3 601 885.7 601 892.8 601L900 601L900 563L892.8 565C885.7 567 871.3 571 857 574C842.7 577 828.3 579 814 579C799.7 579 785.3 577 771.2 577C757 577 743 579 728.8 580C714.7 581 700.3 581 686 580C671.7 579 657.3 577 643 575C628.7 573 614.3 571 600 569C585.7 567 571.3 565 557 565C542.7 565 528.3 567 514 569C499.7 571 485.3 573 471.2 575C457 577 443 579 428.8 579C414.7 579 400.3 577 386 574C371.7 571 357.3 567 343 565C328.7 563 314.3 563 300 565C285.7 567 271.3 571 257 571C242.7 571 228.3 567 214 566C199.7 565 185.3 567 171.2 568C157 569 143 569 128.8 571C114.7 573 100.3 577 86 576C71.7 575 57.3 569 43 568C28.7 567 14.3 571 7.2 573L0 575Z" fill="#d9abe9"></path></svg>