<svg id="visual" viewBox="0 0 900 600" width="900" height="600" xmlns="http://www.w3.org/2000/svg" xmlns:xlink="http://www.w3.org/1999/xlink" version="1.1"><path d="M0 31L7.2 29C14.3 27 28.7 23 43 21C57.3 19 71.7 19 86 20C100.3 21 114.7 23 128.8 24C143 25 157 25 171.2 26C185.3 27 199.7 29 214 30C228.3 31 242.7 31 257 29C271.3 27 285.7 23 300 23C314.3 23 328.7 27 343 27C357.3 27 371.7 23 386 21C400.3 19 414.7 19 428.8 19C443 19 457 19 471.2 21C485.3 23 499.7 27 514 28C528.3 29 542.7 27 557 24C571.3 21 585.7 17 600 15C614.3 13 628.7 13 643 16C657.3 19 671.7 25 686 25C700.3 25 714.7 19 728.8 16C743 13 757 13 771.2 14C785.3 15 799.7 17 814 20C828.3 23 842.7 27 857 28C871.3 29 885.7 27 892.8 26L900 25L900 0L892.8 0C885.7 0 871.3 0 857 0C842.7 0 828.3 0 814 0C799.7 0 785.3 0 771.2 0C757 0 743 0 728.8 0C714.7 0 700.3 0 686 0C671.7 0 657.3 0 643 0C628.7 0 614.3 0 600 0C585.7 0 571.3 0 557 0C542.7 0 528.3 0 514 0C499.7 0 485.3 0 471.2 0C457 0 443 0 428.8 0C414.7 0 400.3 0 386 0C371.7 0 357.3 0 343 0C328.7 0 314.3 0 300 0C285.7 0 271.3 0 257 0C242.7 0 228.3 0 214 0C199.7 0 185.3 0 171.2 0C157 0 143 0 128.8 0C114.7 0 100.3 0 86 0C71.7 0 57.3 0 43 0C28.7 0 14.3 0 7.2 0L0 0Z" fill="#9d4ce6"></path><path d="M0 73L7.2 69C14.3 65 28.7 57 43 55C57.3 53 71.7 57 86 61C100.3 65 114.7 69 128.8 67C143 65 157 57 171.2 58C185.3 59 199.7 69 214 75C228.3 81 242.7 83 257 82C271.3 81 285.7 77 300 78C314.3 79 328.7 85 343 84C357.3 83 371.7 75 386 72C400.3 69 414.7 71 428.8 74C443 77 457 81 471.2 80C485.3 79 499.7 73 514 67C528.3 61 542.7 55 557 54C571.3 53 585.7 57 600 57C614.3 57 628.7 53 643 56C657.3 59 671.7 69 686 74C700.3 79 714.7 79 728.8 78C743 77 757 75 771.2 73C785.3 71 799.7 69 814 71C828.3 73 842.7 79 857 79C871.3 79 885.7 73 892.8 70L900 67L900 23L892.8 24C885.7 25 871.3 27 857 26C842.7 25 828.3 21 814 18C799.7 15 785.3 13 771.2 12C757 11 743 11 728.8 14C714.7 17 700.3 23 686 23C671.7 23 657.3 17 643 14C628.7 11 614.3 11 600 13C585.7 15 571.3 19 557 22C542.7 25 528.3 27 514 26C499.7 25 485.3 21 471.2 19C457 17 443 17 428.8 17C414.7 17 400.3 17 386 19C371.7 21 357.3 25 343 25C328.7 25 314.3 21 300 21C285.7 21 271.3 25 257 27C242.7 29 228.3 29 214 28C199.7 27 185.3 25 171.2 24C157 23 143 23 128.8 22C114.7 21 100.3 19 86 18C71.7 17 57.3 17 43 19C28.7 21 14.3 25 7.2 27L0 29Z" fill="#a455e6"></path><path d="M0 109L7.2 106C14.3 103 28.7 97 43 93C57.3 89 71.7 87 86 91C100.3 95 114.7 105 128.8 105C143 105 157 95 171.2 94C185.3 93 199.7 101 214 110C228.3 119 242.7 129 257 128C271.3 127 285.7 115 300 116C314.3 117 328.7 131 343 133C357.3 135 371.7 125 386 119C400.3 113 414.7 111 428.8 114C443 117 457 125 471.2 124C485.3 123 499.7 113 514 104C528.3 95 542.7 87 557 85C571.3 83 585.7 87 600 87C614.3 87 628.7 83 643 87C657.3 91 671.7 103 686 107C700.3 111 714.7 107 728.8 108C743 109 757 115 771.2 117C785.3 119 799.7 117 814 116C828.3 115 842.7 115 857 111C871.3 107 885.7 99 892.8 95L900 91L900 65L892.8 68C885.7 71 871.3 77 857 77C842.7 77 828.3 71 814 69C799.7 67 785.3 69 771.2 71C757 73 743 75 728.8 76C714.7 77 700.3 77 686 72C671.7 67 657.3 57 643 54C628.7 51 614.3 55 600 55C585.7 55 571.3 51 557 52C542.7 53 528.3 59 514 65C499.7 71 485.3 77 471.2 78C457 79 443 75 428.8 72C414.7 69 400.3 67 386 70C371.7 73 357.3 81 343 82C328.7 83 314.3 77 300 76C285.7 75 271.3 79 257 80C242.7 81 228.3 79 214 73C199.7 67 185.3 57 171.2 56C157 55 143 63 128.8 65C114.7 67 100.3 63 86 59C71.7 55 57.3 51 43 53C28.7 55 14.3 63 7.2 67L0 71Z" fill="#ab5ee6"></path><path d="M0 139L7.2 137C14.3 135 28.7 131 43 126C57.3 121 71.7 115 86 119C100.3 123 114.7 137 128.8 138C143 139 157 127 171.2 127C185.3 127 199.7 139 214 149C228.3 159 242.7 167 257 165C271.3 163 285.7 151 300 149C314.3 147 328.7 155 343 155C357.3 155 371.7 147 386 143C400.3 139 414.7 139 428.8 143C443 147 457 155 471.2 155C485.3 155 499.7 147 514 139C528.3 131 542.7 123 557 121C571.3 119 585.7 123 600 120C614.3 117 628.7 107 643 108C657.3 109 671.7 121 686 126C700.3 131 714.7 129 728.8 134C743 139 757 151 771.2 152C785.3 153 799.7 143 814 142C828.3 141 842.7 149 857 145C871.3 141 885.7 125 892.8 117L900 109L900 89L892.8 93C885.7 97 871.3 105 857 109C842.7 113 828.3 113 814 114C799.7 115 785.3 117 771.2 115C757 113 743 107 728.8 106C714.7 105 700.3 109 686 105C671.7 101 657.3 89 643 85C628.7 81 614.3 85 600 85C585.7 85 571.3 81 557 83C542.7 85 528.3 93 514 102C499.7 111 485.3 121 471.2 122C457 123 443 115 428.8 112C414.7 109 400.3 111 386 117C371.7 123 357.3 133 343 131C328.7 129 314.3 115 300 114C285.7 113 271.3 125 257 126C242.7 127 228.3 117 214 108C199.7 99 185.3 91 171.2 92C157 93 143 103 128.8 103C114.7 103 100.3 93 86 89C71.7 85 57.3 87 43 91C28.7 95 14.3 101 7.2 104L0 107Z" fill="#b166e6"></path><path d="M0 169L7.2 173C14.3 177 28.7 185 43 186C57.3 187 71.7 181 86 183C100.3 185 114.7 195 128.8 198C143 201 157 197 171.2 195C185.3 193 199.7 193 214 195C228.3 197 242.7 201 257 199C271.3 197 285.7 189 300 190C314.3 191 328.7 201 343 202C357.3 203 371.7 195 386 188C400.3 181 414.7 175 428.8 183C443 191 457 213 471.2 215C485.3 217 499.7 199 514 188C528.3 177 542.7 173 557 170C571.3 167 585.7 165 600 160C614.3 155 628.7 147 643 150C657.3 153 671.7 167 686 177C700.3 187 714.7 193 728.8 196C743 199 757 199 771.2 195C785.3 191 799.7 183 814 185C828.3 187 842.7 199 857 195C871.3 191 885.7 171 892.8 161L900 151L900 107L892.8 115C885.7 123 871.3 139 857 143C842.7 147 828.3 139 814 140C799.7 141 785.3 151 771.2 150C757 149 743 137 728.8 132C714.7 127 700.3 129 686 124C671.7 119 657.3 107 643 106C628.7 105 614.3 115 600 118C585.7 121 571.3 117 557 119C542.7 121 528.3 129 514 137C499.7 145 485.3 153 471.2 153C457 153 443 145 428.8 141C414.7 137 400.3 137 386 141C371.7 145 357.3 153 343 153C328.7 153 314.3 145 300 147C285.7 149 271.3 161 257 163C242.7 165 228.3 157 214 147C199.7 137 185.3 125 171.2 125C157 125 143 137 128.8 136C114.7 135 100.3 121 86 117C71.7 113 57.3 119 43 124C28.7 129 14.3 133 7.2 135L0 137Z" fill="#b76fe7"></path><path d="M0 187L7.2 194C14.3 201 28.7 215 43 216C57.3 217 71.7 205 86 206C100.3 207 114.7 221 128.8 225C143 229 157 223 171.2 219C185.3 215 199.7 213 214 217C228.3 221 242.7 231 257 231C271.3 231 285.7 221 300 222C314.3 223 328.7 235 343 234C357.3 233 371.7 219 386 209C400.3 199 414.7 193 428.8 202C443 211 457 235 471.2 237C485.3 239 499.7 219 514 207C528.3 195 542.7 191 557 189C571.3 187 585.7 187 600 184C614.3 181 628.7 175 643 180C657.3 185 671.7 201 686 209C700.3 217 714.7 217 728.8 219C743 221 757 225 771.2 221C785.3 217 799.7 205 814 207C828.3 209 842.7 225 857 223C871.3 221 885.7 201 892.8 191L900 181L900 149L892.8 159C885.7 169 871.3 189 857 193C842.7 197 828.3 185 814 183C799.7 181 785.3 189 771.2 193C757 197 743 197 728.8 194C714.7 191 700.3 185 686 175C671.7 165 657.3 151 643 148C628.7 145 614.3 153 600 158C585.7 163 571.3 165 557 168C542.7 171 528.3 175 514 186C499.7 197 485.3 215 471.2 213C457 211 443 189 428.8 181C414.7 173 400.3 179 386 186C371.7 193 357.3 201 343 200C328.7 199 314.3 189 300 188C285.7 187 271.3 195 257 197C242.7 199 228.3 195 214 193C199.7 191 185.3 191 171.2 193C157 195 143 199 128.8 196C114.7 193 100.3 183 86 181C71.7 179 57.3 185 43 184C28.7 183 14.3 175 7.2 171L0 167Z" fill="#bd78e7"></path><path d="M0 217L7.2 221C14.3 225 28.7 233 43 231C57.3 229 71.7 217 86 221C100.3 225 114.7 245 128.8 251C143 257 157 249 171.2 245C185.3 241 199.7 241 214 243C228.3 245 242.7 249 257 247C271.3 245 285.7 237 300 239C314.3 241 328.7 253 343 251C357.3 249 371.7 233 386 225C400.3 217 414.7 217 428.8 227C443 237 457 257 471.2 257C485.3 257 499.7 237 514 225C528.3 213 542.7 209 557 208C571.3 207 585.7 209 600 207C614.3 205 628.7 199 643 204C657.3 209 671.7 225 686 232C700.3 239 714.7 237 728.8 238C743 239 757 243 771.2 238C785.3 233 799.7 219 814 223C828.3 227 842.7 249 857 250C871.3 251 885.7 231 892.8 221L900 211L900 179L892.8 189C885.7 199 871.3 219 857 221C842.7 223 828.3 207 814 205C799.7 203 785.3 215 771.2 219C757 223 743 219 728.8 217C714.7 215 700.3 215 686 207C671.7 199 657.3 183 643 178C628.7 173 614.3 179 600 182C585.7 185 571.3 185 557 187C542.7 189 528.3 193 514 205C499.7 217 485.3 237 471.2 235C457 233 443 209 428.8 200C414.7 191 400.3 197 386 207C371.7 217 357.3 231 343 232C328.7 233 314.3 221 300 220C285.7 219 271.3 229 257 229C242.7 229 228.3 219 214 215C199.7 211 185.3 213 171.2 217C157 221 143 227 128.8 223C114.7 219 100.3 205 86 204C71.7 203 57.3 215 43 214C28.7 213 14.3 199 7.2 192L0 185Z" fill="#c380e7"></path><path d="M0 259L7.2 259C14.3 259 28.7 259 43 255C57.3 251 71.7 243 86 251C100.3 259 114.7 283 128.8 291C143 299 157 291 171.2 285C185.3 279 199.7 275 214 273C228.3 271 242.7 271 257 271C271.3 271 285.7 271 300 273C314.3 275 328.7 279 343 277C357.3 275 371.7 267 386 264C400.3 261 414.7 263 428.8 271C443 279 457 293 471.2 293C485.3 293 499.7 279 514 270C528.3 261 542.7 257 557 253C571.3 249 585.7 245 600 242C614.3 239 628.7 237 643 243C657.3 249 671.7 263 686 271C700.3 279 714.7 281 728.8 280C743 279 757 275 771.2 270C785.3 265 799.7 259 814 262C828.3 265 842.7 277 857 277C871.3 277 885.7 265 892.8 259L900 253L900 209L892.8 219C885.7 229 871.3 249 857 248C842.7 247 828.3 225 814 221C799.7 217 785.3 231 771.2 236C757 241 743 237 728.8 236C714.7 235 700.3 237 686 230C671.7 223 657.3 207 643 202C628.7 197 614.3 203 600 205C585.7 207 571.3 205 557 206C542.7 207 528.3 211 514 223C499.7 235 485.3 255 471.2 255C457 255 443 235 428.8 225C414.7 215 400.3 215 386 223C371.7 231 357.3 247 343 249C328.7 251 314.3 239 300 237C285.7 235 271.3 243 257 245C242.7 247 228.3 243 214 241C199.7 239 185.3 239 171.2 243C157 247 143 255 128.8 249C114.7 243 100.3 223 86 219C71.7 215 57.3 227 43 229C28.7 231 14.3 223 7.2 219L0 215Z" fill="#c889e7"></path><path d="M0 355L7.2 354C14.3 353 28.7 351 43 342C57.3 333 71.7 317 86 321C100.3 325 114.7 349 128.8 357C143 365 157 357 171.2 356C185.3 355 199.7 361 214 358C228.3 355 242.7 343 257 339C271.3 335 285.7 339 300 343C314.3 347 328.7 351 343 346C357.3 341 371.7 327 386 326C400.3 325 414.7 337 428.8 342C443 347 457 345 471.2 346C485.3 347 499.7 351 514 344C528.3 337 542.7 319 557 316C571.3 313 585.7 325 600 332C614.3 339 628.7 341 643 344C657.3 347 671.7 351 686 350C700.3 349 714.7 343 728.8 341C743 339 757 341 771.2 338C785.3 335 799.7 327 814 329C828.3 331 842.7 343 857 340C871.3 337 885.7 319 892.8 310L900 301L900 251L892.8 257C885.7 263 871.3 275 857 275C842.7 275 828.3 263 814 260C799.7 257 785.3 263 771.2 268C757 273 743 277 728.8 278C714.7 279 700.3 277 686 269C671.7 261 657.3 247 643 241C628.7 235 614.3 237 600 240C585.7 243 571.3 247 557 251C542.7 255 528.3 259 514 268C499.7 277 485.3 291 471.2 291C457 291 443 277 428.8 269C414.7 261 400.3 259 386 262C371.7 265 357.3 273 343 275C328.7 277 314.3 273 300 271C285.7 269 271.3 269 257 269C242.7 269 228.3 269 214 271C199.7 273 185.3 277 171.2 283C157 289 143 297 128.8 289C114.7 281 100.3 257 86 249C71.7 241 57.3 249 43 253C28.7 257 14.3 257 7.2 257L0 257Z" fill="#cc91e8"></path><path d="M0 493L7.2 481C14.3 469 28.7 445 43 430C57.3 415 71.7 409 86 414C100.3 419 114.7 435 128.8 444C143 453 157 455 171.2 461C185.3 467 199.7 477 214 472C228.3 467 242.7 447 257 442C271.3 437 285.7 447 300 448C314.3 449 328.7 441 343 447C357.3 453 371.7 473 386 482C400.3 491 414.7 489 428.8 482C443 475 457 463 471.2 458C485.3 453 499.7 455 514 454C528.3 453 542.7 449 557 455C571.3 461 585.7 477 600 481C614.3 485 628.7 477 643 472C657.3 467 671.7 465 686 464C700.3 463 714.7 463 728.8 465C743 467 757 471 771.2 473C785.3 475 799.7 475 814 474C828.3 473 842.7 471 857 461C871.3 451 885.7 433 892.8 424L900 415L900 299L892.8 308C885.7 317 871.3 335 857 338C842.7 341 828.3 329 814 327C799.7 325 785.3 333 771.2 336C757 339 743 337 728.8 339C714.7 341 700.3 347 686 348C671.7 349 657.3 345 643 342C628.7 339 614.3 337 600 330C585.7 323 571.3 311 557 314C542.7 317 528.3 335 514 342C499.7 349 485.3 345 471.2 344C457 343 443 345 428.8 340C414.7 335 400.3 323 386 324C371.7 325 357.3 339 343 344C328.7 349 314.3 345 300 341C285.7 337 271.3 333 257 337C242.7 341 228.3 353 214 356C199.7 359 185.3 353 171.2 354C157 355 143 363 128.8 355C114.7 347 100.3 323 86 319C71.7 315 57.3 331 43 340C28.7 349 14.3 351 7.2 352L0 353Z" fill="#d19ae8"></path><path d="M0 577L7.2 575C14.3 573 28.7 569 43 567C57.3 565 71.7 565 86 567C100.3 569 114.7 573 128.8 574C143 575 157 573 171.2 572C185.3 571 199.7 571 214 572C228.3 573 242.7 575 257 576C271.3 577 285.7 577 300 577C314.3 577 328.7 577 343 578C357.3 579 371.7 581 386 579C400.3 577 414.7 571 428.8 571C443 571 457 577 471.2 579C485.3 581 499.7 579 514 577C528.3 575 542.7 573 557 573C571.3 573 585.7 575 600 576C614.3 577 628.7 577 643 575C657.3 573 671.7 569 686 568C700.3 567 714.7 569 728.8 570C743 571 757 571 771.2 572C785.3 573 799.7 575 814 576C828.3 577 842.7 577 857 576C871.3 575 885.7 573 892.8 572L900 571L900 413L892.8 422C885.7 431 871.3 449 857 459C842.7 469 828.3 471 814 472C799.7 473 785.3 473 771.2 471C757 469 743 465 728.8 463C714.7 461 700.3 461 686 462C671.7 463 657.3 465 643 470C628.7 475 614.3 483 600 479C585.7 475 571.3 459 557 453C542.7 447 528.3 451 514 452C499.7 453 485.3 451 471.2 456C457 461 443 473 428.8 480C414.7 487 400.3 489 386 480C371.7 471 357.3 451 343 445C328.7 439 314.3 447 300 446C285.7 445 271.3 435 257 440C242.7 445 228.3 465 214 470C199.7 475 185.3 465 171.2 459C157 453 143 451 128.8 442C114.7 433 100.3 417 86 412C71.7 407 57.3 413 43 428C28.7 443 14.3 467 7.2 479L0 491Z" fill="#d5a2e9"></path><path d="M0 601L7.2 601C14.3 601 28.7 601 43 601C57.3 601 71.7 601 86 601C100.3 601 114.7 601 128.8 601C143 601 157 601 171.2 601C185.3 601 199.7 601 214 601C228.3 601 242.7 601 257 601C271.3 601 285.7 601 300 601C314.3 601 328.7 601 343 601C357.3 601 371.7 601 386 601C400.3 601 414.7 601 428.8 601C443 601 457 601 471.2 601C485.3 601 499.7 601 514 601C528.3 601 542.7 601 557 601C571.3 601 585.7 601 600 601C614.3 601 628.7 601 643 601C657.3 601 671.7 601 686 601C700.3 601 714.7 601 728.8 601C743 601 757 601 771.2 601C785.3 601 799.7 601 814 601C828.3 601 842.7 601 857 601C871.3 601 885.7 601 892.8 601L900 601L900 569L892.8 570C885.7 571 871.3 573 857 574C842.7 575 828.3 575 814 574C799.7 573 785.3 571 771.2 570C757 569 743 569 728.8 568C714.7 567 700.3 565 686 566C671.7 567 657.3 571 643 573C628.7 575 614.3 575 600 574C585.7 573 571.3 571 557 571C542.7 571 528.3 573 514 575C499.7 577 485.3 579 471.2 577C457 575 443 569 428.8 569C414.7 569 400.3 575 386 577C371.7 579 357.3 577 343 576C328.7 575 314.3 575 300 575C285.7 575 271.3 575 257 574C242.7 573 228.3 571 214 570C199.7 569 185.3 569 171.2 570C157 571 143 573 128.8 572C114.7 571 100.3 567 86 565C71.7 563 57.3 563 43 565C28.7 567 14.3 571 7.2 573L0 575Z" fill="#d9abe9"></path></svg>