<svg id="erHIGne4tKY1" xmlns="http://www.w3.org/2000/svg" xmlns:xlink="http://www.w3.org/1999/xlink" viewBox="0 0 631.12 554.03" shape-rendering="geometricPrecision" text-rendering="geometricPrecision"><path id="erHIGne4tKY2" d="M558.66,340.64c1.07-7.51,4.93-27.29,21.55-43.89c6.891496-6.833395,15.041676-12.266848,24-16c26.24-11,50.75-3.48,56.86-1.41c17.47076,6.047338,32.488688,17.634703,42.77,33c14.5,22,14,44.55,13.58,55.67-.74,20.14-6.81,43.33-49.92,104-21.024528,29.552249-43.655231,57.92826-67.79,85h-.28c-43.572094-18.52329-85.690674-40.294584-126-65.13-16.81-10.41-31.6-20.35-45.31-38.07-9.31-12-36.11-46.66-25.62-87.06c6.82-26.26,25.9-41.49,32-46c14.267397-10.252343,31.251629-16.049461,48.81-16.66c1.88-.05,44.23-.74,72.32,32.69c6.71296,8.026255,11.972027,17.16363,15.54,27" transform="translate(-336.24-273.45)" fill="#cc1d4f" stroke="#fcfcfc" stroke-width="3" stroke-miterlimit="10"/><path id="erHIGne4tKY3" d="M740,402.72c5.646943-11.235869,14.764131-20.353057,26-26c6.549903-3.180947,13.654227-5.062303,20.92-5.54c21.32-1.41,36.92,9.86,40.77,12.82c10.928528,8.565976,18.761985,20.465386,22.31,33.89c5,19.17-.88,35.07-3.87,42.87-5.42,14.15-15.37,29.16-60.76,61.8-22.120204,15.916149-45.098166,30.604952-68.83,44h-.21c-26.480028-23.751254-51.136232-49.460427-73.76-76.91-9.42-11.48-17.52-22.15-23-38.07-3.7-10.81-14.34-41.95,2.93-68.12c11.23-17,28.49-23.21,33.95-24.92c12.632856-3.829305,26.117144-3.829305,38.75,0c1.34.41,31.62,10.21,43.47,40.81c2.829408,7.345323,4.34908,15.129837,4.49,23" transform="translate(-336.24-273.45)" fill="#cc1b52" stroke="#fff" stroke-width="2" stroke-miterlimit="10"/><path d="M479.91,569.52l-28.09,4.73-34.59,8.13-8.23-5.07L397,564l-10.84-16.69-10-17.52-22.25-35.59-4-11.14c-.847962-2.362397-1.092024-4.899271-.71-7.38v0c.331424-2.178172,1.648544-4.081908,3.57-5.16l1.31-.73c1.701461-.950195,3.632861-1.410547,5.58-1.33l2.29.09c.926126.042679,1.829763.299394,2.64.75l5.9,3.54c.51.29,1.16-.22,1.35-.77l.33-1c.501335-1.542401,1.625566-2.80444,3.1-3.48c1.383475-.626028,2.918675-.8379,4.42-.61v0c4.54884.681342,8.730953,2.888764,11.86,6.26l6,6.48l18.91,22.8v0c-.002692-2.658492,1.69777-5.019797,4.22-5.86l1.7-.56c.494071-.159773,1.025929-.159773,1.52,0l1,.29c3.617366,1.051322,6.783087,3.274361,9,6.32l26.87,36.76c3.548967,4.867149,8.007904,9.000071,13.13,12.17l28,17.36c1.142571.703822,2.320815,1.348017,3.53,1.93l63.82,30.64c8.794534,3.947374,16.897785,9.282014,24,15.8L603.81,627c3.511842,3.22652,6.162065,7.279196,7.71,11.79v0c1.878205,5.483398,3.122963,11.163658,3.71,16.93l17.35,170.71L528,824.81l7.27-41.14c.98802-5.335659,1.622733-10.730723,1.9-16.15l2-30.59c.343824-6.658402.025596-13.334491-.95-19.93l-.74-5c-.907145-6.164259-4.011036-11.793167-8.74-15.85v0l-.29-.19c-3.278887-2.199104-6.68482-4.202594-10.2-6l-7-3.59c-4.037795-2.071975-8.230399-3.827252-12.54-5.25l-33.37-11.06c-4.206611-1.393633-8.293327-3.125973-12.22-5.18l-8-4.17c-6.686629-3.49099-12.973617-7.69908-18.75-12.55l-13.83-11.62-15-19.19-14.18-22.8-10.85-18.63-12.79-22.53-10.45-20.71-8.8-16.32c-.749322-1.378521-1.391225-2.812773-1.92-4.29l-.33-.92c-.67074-1.897829-1.009035-3.89715-1-5.91v0c0-3,.31-6,2.27-8.33l1.47-1.6c.341726-.377594.752415-.686459,1.21-.91c1.278301-.717926,2.678634-1.192615,4.13-1.4h2.7c.677005.001893,1.35034.099526,2,.29l2.91.83" transform="translate(-336.24-273.45)" fill="#1d123a" stroke="#f7f7f7" stroke-width="2" stroke-miterlimit="10"/><path d="M571.12,647.94l-4.51-6.23c-3.281518-4.523687-7.183078-8.563266-11.59-12l-1.3-1c-4.868519-3.800812-10.327708-6.777016-16.16-8.81l-3.7-1.28c-4.981746-1.729015-10.176539-2.768647-15.44-3.09L500,614.35c-.58,0-1.15-.1-1.72-.19l-28.62-4.4c-2.036153-.31283-4.031564-.849411-5.95-1.6l-18-7c-2.728844-1.061462-5.304682-2.480527-7.66-4.22l-14.53-10.72-11.3-7c-2.05438-1.262238-4.456329-1.839966-6.86-1.65l-2,.16c-5.424134.431948-10.689294,2.039136-15.43,4.71v0c-1.131435.628576-2.146247,1.447191-3,2.42v0c-1.740013,1.973532-2.111638,4.804213-.94,7.16v0L397,600.39l10.85,8.88c.924411.749676,1.787179,1.572316,2.58,2.46l4.51,5c2.498762,2.790888,5.299197,5.296186,8.35,7.47l11.81,8.41l17.52,11.12l12.6,7.25c3.818326,2.200687,7.300584,4.938671,10.34,8.13l6.54,6.87" transform="translate(-336.24-273.45)" fill="#1d123a" stroke="#f7f7f7" stroke-width="2" stroke-miterlimit="10"/><path d="M451.33,557l-28-40.6c-2.317235-3.50982-4.251616-7.257892-5.77-11.18l-1.05-2.72" transform="translate(-336.24-273.45)" fill="#1d123a" stroke="#f7f7f7" stroke-width="2" stroke-miterlimit="10"/><polyline points="94.72,288.56 72.19,257.41 49.95,223.76 35.24,199.86" fill="#1d123a" stroke="#f7f7f7" stroke-width="2" stroke-miterlimit="10"/><path d="M823.7,569.52l28.09,4.73l34.59,8.13l8.24-5.07l12-13.35l10.84-16.69l10-17.52l22.25-35.59l4-11.14c.847962-2.362397,1.092024-4.899271.71-7.38v0c-.331424-2.178172-1.648544-4.081908-3.57-5.16l-1.31-.73c-1.701461-.950195-3.632861-1.410547-5.58-1.33l-2.29.09c-.926126.042679-1.829763.299394-2.64.75l-5.9,3.54c-.51.29-1.16-.22-1.35-.77l-.33-1c-.504576-1.540539-1.627789-2.801435-3.1-3.48-1.383475-.626028-2.918675-.8379-4.42-.61v0c-4.576477.671573-8.785873,2.887416-11.93,6.28l-6,6.48-18.91,22.8v0c.002692-2.658492-1.69777-5.019797-4.22-5.86l-1.7-.56c-.494071-.159773-1.025929-.159773-1.52,0l-1,.29c-3.617366,1.051322-6.783087,3.274361-9,6.32l-26.87,36.76c-3.550192,4.869643-8.012919,9.00293-13.14,12.17l-28,17.36c-1.142571.703822-2.320815,1.348017-3.53,1.93l-63.82,30.64c-8.794534,3.947374-16.897785,9.282014-24,15.8L699.8,627c-3.511842,3.22652-6.162065,7.279196-7.71,11.79v0c-1.878205,5.483398-3.122963,11.163658-3.71,16.93L671,826.46l104.56-1.65-7.27-41.14c-.98655-5.336167-1.624566-10.730914-1.91-16.15l-2-30.59c-.32728-6.660057.007698-13.336154,1-19.93l.74-5c.907145-6.164259,4.011036-11.793167,8.74-15.85v0l.29-.19c3.278887-2.199104,6.68482-4.202594,10.2-6l7-3.59c4.037795-2.071975,8.230399-3.827252,12.54-5.25l33.37-11.06c4.206611-1.393633,8.293327-3.125973,12.22-5.18l8-4.17c6.684855-3.488741,12.968765-7.697016,18.74-12.55L891,636.54l15-19.19l14.18-22.8l10.85-18.63l12.79-22.53l10.45-20.71l8.8-16.32c.749322-1.378521,1.391225-2.812773,1.92-4.29l.33-.92c.67074-1.897829,1.009035-3.89715,1-5.91v0c0-3-.31-6-2.27-8.33l-1.47-1.6c-.341726-.377594-.752415-.686459-1.21-.91-1.274958-.701652-2.668164-1.162664-4.11-1.36h-2.66c-.676878.003603-1.349975.101202-2,.29l-2.9.83" transform="translate(-336.24-273.45)" fill="#1d123a" stroke="#f7f7f7" stroke-width="2" stroke-miterlimit="10"/><path d="M732.49,647.94l4.51-6.23c3.281518-4.523687,7.183078-8.563266,11.59-12l1.3-1c4.867222-3.802787,10.326751-6.779176,16.16-8.81l3.7-1.28c4.981482-1.729986,10.176409-2.769644,15.44-3.09l18.46-1.13c.58,0,1.15-.1,1.72-.19l28.62-4.4c2.053137-.309224,4.065509-.845856,6-1.6l18-7c2.728844-1.061462,5.304682-2.480527,7.66-4.22l14.53-10.72l11.3-7c2.05438-1.262238,4.456329-1.839966,6.86-1.65l2,.16c5.424134.431948,10.689294,2.039136,15.43,4.71v0c1.131435.628576,2.146247,1.447191,3,2.42v0c1.740013,1.973532,2.111638,4.804213.94,7.16v0l-13.07,8.34-10.86,8.88c-.918895.752417-1.778131,1.574877-2.57,2.46l-4.51,5c-2.501128,2.78852-5.301287,5.293573-8.35,7.47l-11.81,8.41L851,643.77L838.36,651c-3.826681,2.20523-7.315829,4.950071-10.36,8.15L821.48,666" transform="translate(-336.24-273.45)" fill="#1d123a" stroke="#f7f7f7" stroke-width="2" stroke-miterlimit="10"/><path d="M852.28,557l28-40.6c2.313359-3.51209,4.24752-7.259737,5.77-11.18l1.05-2.72" transform="translate(-336.24-273.45)" fill="#1d123a" stroke="#f7f7f7" stroke-width="2" stroke-miterlimit="10"/><polyline points="536.4,288.56 558.93,257.41 581.18,223.76 595.88,199.86" fill="#1d123a" stroke="#f7f7f7" stroke-width="2" stroke-miterlimit="10"/><script><![CDATA[(function(s,i,u,o,c,w,d,t,n,x,e,p,a,b){w[o]=w[o]||{};w[o][s]=w[o][s]||[];w[o][s].push(i);e=d.createElementNS(n,t);e.async=true;e.setAttributeNS(x,'href',[u,s,'.','j','s','?','v','=',c].join(''));e.setAttributeNS(null,'src',[u,s,'.','j','s'].join(''));p=d.getElementsByTagName(t)[0];p.parentNode.insertBefore(e,p);})('5c7f360c',{"root":"erHIGne4tKY1","animations":[{"elements":{"erHIGne4tKY2":{"transform":{"keys":{"o":[{"t":0,"v":{"x":-336.24,"y":-273.45,"type":"corner"}},{"t":1500,"v":{"x":-336.24,"y":-260.45,"type":"corner"}},{"t":3000,"v":{"x":-336.24,"y":-273.45,"type":"corner"}}]}}},"erHIGne4tKY3":{"transform":{"keys":{"o":[{"t":0,"v":{"x":-336.24,"y":-273.45,"type":"corner"}},{"t":700,"v":{"x":-336.24,"y":-263.45,"type":"corner"}},{"t":2200,"v":{"x":-336.24,"y":-283.45,"type":"corner"}},{"t":3000,"v":{"x":-336.24,"y":-273.45,"type":"corner"}}]}}}},"s":"MWDA1M2NlNzViN2M4YzQVCYjRjN2JjYzJjMTcP1OGQ4NjgzUVk4MzgzYRDdmNzViN2JjYzViOOGI2YzdiY2MyYzE3NTWhkODQ3Zjc1YmNjN2IT4YzViNGM3YmNjMmMxRYzY3NThkODNCN2Y3NDWI5YmNiZmJmNzU4ZDRg0N2Y3NWI0YmZjN2II4YzVjMWI0YzdiOEI3JNThkYjliNGJmYzZiOPDdmNzVjNmMzYjhQYjThiNzc1OGQ4NGQw"}],"options":"MTDAxMDg4MmY4MDgxVjTZlN2Y4MTJmNDcyZjcP5N2M2ZTcxTjJmOGE/O"},'https://cdn.svgator.com/ply/','__SVGATOR_PLAYER__','2022-03-14',window,document,'script','http://www.w3.org/2000/svg','http://www.w3.org/1999/xlink')]]></script></svg>