<svg xmlns="http://www.w3.org/2000/svg" viewBox="0 0 1952.95 595.74">
    <defs>
        <style>
            .cls-1,
            .cls-2 {
                fill: #bbdbff;
            }

            .cls-1 {
                opacity: 0.5;
            }
        </style>
    </defs>
    <g id="Layer_2" data-name="Layer 2">
        <g id="Layer_4" data-name="Layer 4">
            <path class="cls-1"
                d="M382.49,207l-42.7,30.16a3.41,3.41,0,0,1-2,.61H314.76a12.72,12.72,0,0,0-7.37,2.36l-27.45,19.38a12.8,12.8,0,0,1-7.38,2.36h-82.9a12.8,12.8,0,0,1-7.37-2.36L151.83,238a1.23,1.23,0,0,0-.72-.23h-45.2a3.38,3.38,0,0,1-2.18-.79l-34.5-29.1a5,5,0,0,1,0-7.65l34.5-29.09a3.4,3.4,0,0,1,2.18-.81h24.52a1.3,1.3,0,0,0,.72-.22l39.68-28a2.66,2.66,0,0,1,1.58-.51h83.37a2.72,2.72,0,0,1,1.6.51l16.19,11.43a12.85,12.85,0,0,0,7.38,2.36h11.6a3.88,3.88,0,0,1,2.23.7l16.13,11.39a12.84,12.84,0,0,0,7.38,2.35h19.55a3.36,3.36,0,0,1,2,.63l42.7,30.15A3.63,3.63,0,0,1,382.49,207Z" />
            <path class="cls-1"
                d="M1564.33,142.72l-49,29.58a4.44,4.44,0,0,1-2.24.6H1482l-39.12,23.63H1338.59l-39.12-23.63h-52.28a4.29,4.29,0,0,1-2.5-.78l-39.56-28.54a4.5,4.5,0,0,1,0-7.5l39.56-28.53a4.29,4.29,0,0,1,2.5-.79h28.57l45.87-27.69a3.46,3.46,0,0,1,1.82-.5H1419a3.52,3.52,0,0,1,1.83.5l22.4,13.52h17.94a5,5,0,0,1,2.55.69l22.32,13.48h27.05a4.36,4.36,0,0,1,2.24.61l49,29.57A3.28,3.28,0,0,1,1564.33,142.72Z" />
            <path class="cls-1"
                d="M1344.88,525.21l43.34,35.51a3.21,3.21,0,0,0,2,.72h27.52l34.63,28.36h92.34l34.63-28.36h46.28a3.18,3.18,0,0,0,2.21-.94l35-34.25a6.6,6.6,0,0,0,0-9l-35-34.24a3.19,3.19,0,0,0-2.21-.95h-25.29l-40.6-33.23a2.48,2.48,0,0,0-1.61-.6h-84.62a2.52,2.52,0,0,0-1.62.6L1452,465h-15.88a3.58,3.58,0,0,0-2.26.83l-19.76,16.18H1390.2a3.11,3.11,0,0,0-2,.73l-43.34,35.5A4.69,4.69,0,0,0,1344.88,525.21Z" />
            <path class="cls-1"
                d="M988.5,85.47l-30.87,25.59a12.39,12.39,0,0,1-7.9,2.85H752.68a12.34,12.34,0,0,0-7.9,2.85l-32.4,26.85a12.37,12.37,0,0,1-7.9,2.85h-67.4a12.37,12.37,0,0,1-7.9-2.85l-32.4-26.85a12.34,12.34,0,0,0-7.9-2.85H554.22a12.38,12.38,0,0,1-10.82-6.37L527.33,78.61a12.37,12.37,0,0,1,2-14.69L545.85,47.1a12.38,12.38,0,0,1,8.83-3.7h24.38a12.39,12.39,0,0,0,9.4-4.32L618.24,4.32A12.41,12.41,0,0,1,627.64,0h70.64l.49.4.48-.4H829.77a12.39,12.39,0,0,1,7.9,2.85l12.75,10.57a12.39,12.39,0,0,0,7.9,2.85h40.76a12.37,12.37,0,0,1,7.9,2.85l19.3,16a12.37,12.37,0,0,0,7.9,2.85h15.55a12.39,12.39,0,0,1,7.9,2.85L988.5,66.41A12.38,12.38,0,0,1,988.5,85.47Z" />
            <path class="cls-1"
                d="M702,554.38l-43.52,24a12.14,12.14,0,0,1-11.72,0l-13.68-7.55a12.09,12.09,0,0,0-11.72,0l-14,7.73a12.14,12.14,0,0,1-11.72,0l-43.52-24a12.13,12.13,0,0,1,0-21.24l43.52-24a12.09,12.09,0,0,1,11.72,0l13.68,7.55a12.14,12.14,0,0,0,11.72,0l14-7.73a12.09,12.09,0,0,1,11.72,0l43.52,24A12.14,12.14,0,0,1,702,554.38Z" />
            <path class="cls-1"
                d="M171.57,131.66l-47.81,25.17a13.87,13.87,0,0,1-12.88,0l-15-7.91a13.9,13.9,0,0,0-12.88,0L67.57,157a13.87,13.87,0,0,1-12.87,0L6.89,131.86a12.44,12.44,0,0,1,0-22.27L54.7,84.42a13.9,13.9,0,0,1,12.88,0l15,7.92a13.9,13.9,0,0,0,12.88,0l15.4-8.11a13.9,13.9,0,0,1,12.88,0l47.8,25.16A12.44,12.44,0,0,1,171.57,131.66Z" />
            <path class="cls-1"
                d="M1630.89,241l-43.52,24a12.14,12.14,0,0,1-11.72,0L1562,257.43a12.14,12.14,0,0,0-11.72,0l-14,7.73a12.14,12.14,0,0,1-11.72,0l-43.52-24a12.14,12.14,0,0,1,0-21.25l43.52-24a12.14,12.14,0,0,1,11.72,0l13.68,7.55a12.14,12.14,0,0,0,11.72,0l14-7.73a12.14,12.14,0,0,1,11.72,0l43.51,24A12.13,12.13,0,0,1,1630.89,241Z" />
            <path class="cls-1"
                d="M1946.68,497.68l-43.52,24a12.12,12.12,0,0,1-11.72,0l-13.68-7.55a12.14,12.14,0,0,0-11.72,0l-14,7.74a12.14,12.14,0,0,1-11.72,0l-43.52-24a12.13,12.13,0,0,1,0-21.24l43.52-24a12.12,12.12,0,0,1,11.72,0l13.68,7.54a12.12,12.12,0,0,0,11.72,0l14-7.74a12.14,12.14,0,0,1,11.72,0l43.51,24A12.13,12.13,0,0,1,1946.68,497.68Z" />
            <path class="cls-1"
                d="M1921.55,55.55,1862,81.25h-71.4a20,20,0,0,1-2.44-.15,19.17,19.17,0,0,1-5.2-1.36l-56.67-24c-10.89-4.61-10.9-16.63,0-21.24l56.67-24,11.35-.1h55.08l.19-.08c12.42.08-2.84.08,12.42.08l59.53,23.92C1932.44,38.91,1932.44,50.93,1921.55,55.55Z" />
            <path class="cls-2" d="M969.12,137.55h-1.87v-.15A11.79,11.79,0,0,0,969.12,137.55Z" />
            <path class="cls-1"
                d="M14.58,529.73,58.88,566a3.25,3.25,0,0,0,2,.73H89l35.39,29H218.8l35.39-29h47.3a3.21,3.21,0,0,0,2.26-1l35.79-35a6.72,6.72,0,0,0,0-9.2l-35.79-35a3.27,3.27,0,0,0-2.26-1H275.64l-41.49-34a2.53,2.53,0,0,0-1.65-.62H146a2.58,2.58,0,0,0-1.66.62L124.1,468.23H107.87a3.7,3.7,0,0,0-2.31.85L85.37,485.61H60.9a3.16,3.16,0,0,0-2,.75l-44.3,36.28A4.79,4.79,0,0,0,14.58,529.73Z" />
            <path class="cls-1"
                d="M1266.78,379.12l-39.33,25.59a18.6,18.6,0,0,1-10.07,2.85h-19.81a18.6,18.6,0,0,0-10.07,2.85l-24.58,16a18.6,18.6,0,0,1-10.07,2.85h-51.93a18.6,18.6,0,0,0-10.07,2.85l-16.24,10.57a18.6,18.6,0,0,1-10.07,2.85H898.25l-.62-.4-.62.4H807a17.85,17.85,0,0,1-12-4.32l-37.95-34.76a17.87,17.87,0,0,0-12-4.32H714.05a18.14,18.14,0,0,1-11.25-3.7l-21.06-16.82c-4.9-3.91-5.94-9.89-2.54-14.69L699.68,338c2.78-3.93,8.06-6.37,13.78-6.37h44.16a18.6,18.6,0,0,0,10.07-2.84L809,301.92A18.59,18.59,0,0,1,819,299.07h85.88A18.6,18.6,0,0,1,915,301.92l41.28,26.86a18.59,18.59,0,0,0,10.06,2.84h114l39.52-21.81,8.71-.1h42.29l.14-.08c9.54.08-2.18.08,9.54.08l45.7,23.92a11.6,11.6,0,0,1,1.73,1.16l38.84,25.27C1274.39,365,1274.39,374.17,1266.78,379.12Z" />
        </g>
    </g>
</svg>