<svg xmlns="http://www.w3.org/2000/svg" viewBox="0 0 1923.28 744.02">
    <defs>
        <style>
            .cls-1 {
                fill: #091f2d;
            }

            .cls-2 {
                fill: #112f3f;
            }

            .cls-3 {
                fill: #0d2d3f;
            }

            .cls-4 {
                fill: #9ed1e8;
            }

            .cls-5,
            .cls-7 {
                fill: #072535;
            }

            .cls-6 {
                fill: #06202b;
            }

            .cls-7 {
                opacity: 0.3;
            }
        </style>
    </defs>
    <g id="Layer_2" data-name="Layer 2">
        <g id="Layer_3" data-name="Layer 3">
            <polygon class="cls-1" points="1279.81 604.46 1.74 627.77 1.74 388.24 1187.9 403.78 1279.81 604.46" />
            <path class="cls-2"
                d="M1301.35,312c-2.67,1.48-4.6,2.67-6.21,3.7q.83-9.29,1.62-18.58Q1299.05,304.52,1301.35,312Z" />
            <path class="cls-2" d="M1348.35,289.83c-2.4,1-4.68,2-6.86,3q.62-9.85,1.24-19.72Z" />
            <path class="cls-2"
                d="M1391.14,271.59c-2,.89-4.26,1.84-6.69,2.87.36-6.41.74-12.82,1.1-19.23C1387.42,260.69,1389.27,266.14,1391.14,271.59Z" />
            <path class="cls-2"
                d="M1430.66,228.85a45.38,45.38,0,0,0-4.39,6.64c-.36.71-.71,1.4-1.06,2.07q1.5-9.57,3-19.15Q1429.42,223.63,1430.66,228.85Z" />
            <path class="cls-2"
                d="M1416.49,253.42a37,37,0,0,1-6,7.18q1.69-10.53,3.38-21.06Q1415.16,246.47,1416.49,253.42Z" />
            <path class="cls-2" d="M1458.09,204.74a38.68,38.68,0,0,0-8.34,5q2-9.94,3.93-19.89Z" />
            <path class="cls-2" d="M1490.41,193l-6.57,2.47q2-8.92,4-17.84Z" />
            <path class="cls-2"
                d="M1516.87,182.4c-2.17.93-4.37,1.85-6.58,2.77q.75-11.71,1.48-23.41Q1514.32,172.07,1516.87,182.4Z" />
            <path class="cls-2"
                d="M1528.25,177.34c-1.89.88-3.83,1.76-5.8,2.63q.66-10.41,1.31-20.81Q1526,168.25,1528.25,177.34Z" />
            <path class="cls-2"
                d="M1561.68,157.05c-1.76,1.52-3.56,3-5.37,4.36l-1.44-21.85Q1558.28,148.3,1561.68,157.05Z" />
            <path class="cls-2" d="M1585,133c-1.68,2-3.38,3.92-5.09,5.83l.21-21.84Z" />
            <path class="cls-2" d="M1628.69,82.42q-3.12,3-6.18,6.23,1.34-12,2.64-24.06Z" />
            <path class="cls-2" d="M1644.3,69.38q-3.27,2.3-6.43,4.88,1.32-12,2.64-24Q1642.4,59.8,1644.3,69.38Z" />
            <path class="cls-2"
                d="M1677.19,55.8l-4.17.82c-.75.15-1.5.31-2.24.48q1.2-10.8,2.38-21.61Q1675.17,45.65,1677.19,55.8Z" />
            <path class="cls-2"
                d="M1741.15,43.35c-1.73.31-3.74.69-6.09,1.14q1.14-10.26,2.25-20.52Q1739.23,33.66,1741.15,43.35Z" />
            <path class="cls-2" d="M1761,39.79c-3.32.68-5.39,1.09-6.71,1.35l2.49-22.68Q1758.89,29.13,1761,39.79Z" />
            <path class="cls-2" d="M1821.84,27.22,1813,29.06q2.41-10.92,4.84-21.84Q1819.82,17.23,1821.84,27.22Z" />
            <path class="cls-2" d="M1883.19,22.2c-2.72-.09-5.22-.17-7.52-.23q1.61-11,3.2-22Q1881,11.1,1883.19,22.2Z" />
            <path class="cls-2" d="M1904.68,22.84l-7.12-.11q1.08-7.68,2.19-15.37Q1902.21,15.1,1904.68,22.84Z" />
            <path class="cls-2" d="M1245.29,340.25q-3.07,1.77-6.11,3.68,1.89-8.61,3.77-17.21Z" />
            <path class="cls-2" d="M1309.51,307.65l-2.66,1.35q.23-5.65.43-11.29Q1308.39,302.69,1309.51,307.65Z" />
            <path class="cls-2"
                d="M1921,404.86a8.19,8.19,0,0,1-3.07,6.25,11.51,11.51,0,0,1-7.41,2.59c-85.28,0-167.43.1-249.9,2.51-61.94,1.8-122-2.51-184-2.51H1182.12a128.52,128.52,0,0,1,37.53-55.31,155.3,155.3,0,0,1,19.53-14.46q3-1.9,6.11-3.68A211,211,0,0,1,1272,327.43c16-6.36,17.25-8,23.12-11.77,1.61-1,3.54-2.22,6.21-3.7,1.56-.88,3.37-1.85,5.5-3l2.66-1.35c7-3.52,17-8.23,32-14.83,2.18-1,4.46-2,6.86-3,8.48-3.7,18.35-7.92,29.88-12.76l6.22-2.61c2.43-1,4.65-2,6.69-2.87,9.36-4.11,15-7.06,19.32-11a37,37,0,0,0,6-7.18,167,167,0,0,0,8.72-15.86c.35-.67.7-1.36,1.06-2.07a45.38,45.38,0,0,1,4.39-6.64,109.51,109.51,0,0,1,19.09-19.1,38.68,38.68,0,0,1,8.34-5l.76-.28c6.9-2.38,15.59-5.46,25-9l6.57-2.47c6.52-2.49,13.26-5.14,19.88-7.87,2.21-.92,4.41-1.84,6.58-2.77q2.82-1.2,5.58-2.43c2-.87,3.91-1.75,5.8-2.63,6.32-2.92,12.17-5.85,17.18-8.69a96.91,96.91,0,0,0,10.88-7.24c1.81-1.39,3.61-2.84,5.37-4.36a192.52,192.52,0,0,0,18.26-18.22c1.71-1.91,3.41-3.86,5.09-5.83,12.54-14.67,24.54-30.69,37.48-44.35q3.06-3.21,6.18-6.23c3-2.89,6-5.62,9.18-8.16q3.17-2.58,6.43-4.88a76.7,76.7,0,0,1,26.48-12.28c.74-.17,1.49-.33,2.24-.48l4.17-.82c29.47-5.83,47.18-9.27,57.87-11.31,2.35-.45,4.36-.83,6.09-1.14,15.48-2.91,7.59-1.13,13.15-2.21,1.32-.26,3.39-.67,6.71-1.35l52-10.73,8.87-1.84,3.72-.77c23.1-4.79,25.83-5.21,50.11-4.48,2.3.06,4.8.14,7.52.23,4.93.16,10.62.34,17.27.53l4.22.11,6.18.17c5.66.15,10.16,4.06,10.16,8.84v84.69l-.34,13.9c-.09,32.4.15,64.81.22,97.21C1921,289.69,1921,342.75,1921,404.86Z" />
            <path class="cls-3" d="M1338.29,286.84l-6.76-2.46,3.54-15.88Q1336.69,277.68,1338.29,286.84Z" />
            <path class="cls-3" d="M1307.37,275.25l-5.43-1.84q1.43-6.41,2.86-12.81Q1306.09,267.92,1307.37,275.25Z" />
            <path class="cls-3" d="M1259.57,259.28q-4.12-1-8.36-2,2.24-10,4.47-20.09Q1257.63,248.23,1259.57,259.28Z" />
            <path class="cls-3" d="M1247.62,256.54l-4.8-1,2.58-11.57C1246.13,248.13,1246.88,252.33,1247.62,256.54Z" />
            <path class="cls-3"
                d="M1210.32,249.29c-2.55-.39-5.1-.76-7.67-1.13q2.08-9.36,4.18-18.75Q1208.57,239.36,1210.32,249.29Z" />
            <path class="cls-3"
                d="M1171.52,244.23q-4.17-.47-8.37-.9,2.3-10.32,4.59-20.62Q1169.63,233.45,1171.52,244.23Z" />
            <path class="cls-3" d="M1125.93,239.72l-4.8-.43,2.64-11.85C1124.48,231.53,1125.21,235.63,1125.93,239.72Z" />
            <path class="cls-3" d="M1115.65,238.8l-3.67-.32,2-9.07Q1114.82,234.11,1115.65,238.8Z" />
            <path class="cls-3" d="M1098,237.22l-8.6-.78q2.37-10.6,4.73-21.23Q1096.1,226.21,1098,237.22Z" />
            <path class="cls-3" d="M1059.11,233.45c-3-.31-6-.64-8.94-1q2.44-11,4.9-22Q1057.08,221.95,1059.11,233.45Z" />
            <path class="cls-3"
                d="M1043.31,231.69q-3.19-.37-6.39-.78,1.74-7.86,3.49-15.7Q1041.87,223.45,1043.31,231.69Z" />
            <path class="cls-3"
                d="M1000.58,225.61c-1.24-.2-2.49-.42-3.73-.64q-2.34-.41-4.65-.84,2.26-10.19,4.54-20.37Z" />
            <path class="cls-3" d="M943.13,213.07c-2.85-.75-5.7-1.51-8.52-2.3q.92-9.71,1.85-19.43Z" />
            <path class="cls-3" d="M928.62,209.11c-1.68-.48-3.36-1-5-1.45l1.08-11.4Q926.66,202.7,928.62,209.11Z" />
            <path class="cls-3" d="M870.73,190.94q-4-1.33-8-2.7l4.15-18.83Q868.84,180.17,870.73,190.94Z" />
            <path class="cls-3"
                d="M829.38,176.9c-2.51-.86-5-1.7-7.53-2.54q2-8.9,3.93-17.79Q827.6,166.74,829.38,176.9Z" />
            <path class="cls-3" d="M800.92,167.48l-4-1.3c.7-3.2,1.42-6.41,2.12-9.61Q800,162,800.92,167.48Z" />
            <path class="cls-3"
                d="M760.34,154.39a11.91,11.91,0,0,1-1.46.49c-2.66-.73-5.33-1.46-8-2.16l5.1-23.07Q758.15,142,760.34,154.39Z" />
            <path class="cls-3"
                d="M704.12,142.16c-3-.56-6-1.09-9-1.6q2.4-10.87,4.81-21.76Q702.06,130.49,704.12,142.16Z" />
            <path class="cls-3" d="M644.05,133.93c-3-.28-6-.53-9-.78Q637.54,122.08,640,111,642,122.47,644.05,133.93Z" />
            <path class="cls-3"
                d="M654.89,135c-2.1-.24-4.2-.45-6.31-.65q1.71-7.77,3.44-15.56C653,124.21,653.94,129.6,654.89,135Z" />
            <path class="cls-3" d="M539,129.26l-9.24-.12q2.55-11.58,5.12-23.16Z" />
            <path class="cls-3" d="M561.68,129.67l-9.39-.19q2.6-11.74,5.19-23.5Q559.58,117.82,561.68,129.67Z" />
            <path class="cls-3" d="M453.11,128.24l-6.84-.14q1.89-8.55,3.78-17.09Q451.58,119.62,453.11,128.24Z" />
            <path class="cls-3" d="M440.87,128l-8.71-.25L437,106Q438.92,117,440.87,128Z" />
            <path class="cls-3"
                d="M232.68,91.91l-7.86-2.41c1.38-6.22,2.74-12.44,4.12-18.65Q230.82,81.37,232.68,91.91Z" />
            <path class="cls-3" d="M130.23,67.64q-4.51-.93-9.06-1.74,2.51-10.55,5-21.1Q128.18,56.22,130.23,67.64Z" />
            <path class="cls-3"
                d="M182.05,73.43c-1.92-.47-3.86-.92-5.78-1.34q1.53-6.95,3.07-13.9C180.24,63.27,181.14,68.34,182.05,73.43Z" />
            <path class="cls-3"
                d="M106.38,63.75c0,46.53,0,39,.81,131.85.22,25-.35,50.05-.53,75.08-.33,47.91-.28,88.89-.28,136.86v6.83c213.48,0,418.48,0,624.31,1.93,148.51,1.4,292.55-1.93,441.09-1.93H1878c-39.15-36.21-129-55.5-215.54-66.63s-178.66-17.3-254.67-38.89c-54.85-15.6-98.48-38.52-156-52-75.41-17.7-166-17.27-244.85-31.69-112.22-20.53-191-69.19-305.92-86.53-117.41-17.72-253.68.32-365.75-23.3C271.17,101.8,207.64,72.05,141.79,63.56Z" />
            <path class="cls-4"
                d="M1346.08,311.62c-.29.25-.3.14-.6.39l-.55.88-1.55,6.78c3.16-2.07,7.71.88,8.4,4.59s-1.32,7.41-3.77,10.28c-10,11.76-26.68,14.78-42,17l-37.48,5.59L1209.51,366c-20.73,3.08-41.73,6.17-62.57,4l-4.85.28c13.44-4.12,32-9.31,54.49-14.1,14.26-3,15.6-2.82,24.51-5.23,0,0,29.28-7.94,54-22.34,7.23-4.22,15.17-9.51,15.17-9.51h0a62.72,62.72,0,0,1,11.2-7,35.83,35.83,0,0,1,6.31-2.28A230.86,230.86,0,0,1,1339,304c3.22-.35,8.72-1.65,11.6-5a5.16,5.16,0,0,0-.71-7.28,18.94,18.94,0,0,0-3.58-2.49l-5-2.63,4,1.64c1.91.8,4.43,2,4.43,2l1.76.77c4.9,2.14,7.54,4.92,8.08,6.69a5.91,5.91,0,0,1,.22,1.85c0,4.42-3.65,7.5-4.59,8.29a14.43,14.43,0,0,1-8.69,3.27Z" />
            <path class="cls-5"
                d="M1920.85,327c.15,30.19.1,56,.07,86.23v4.3c-113-.1-221.54-.2-330.5.92-78.62.81-154.87-1.36-233.5-1.43L983,416.68c10.38-11.39,27.45-20.12,47.66-26.87s43.56-11.52,66.48-15q6-.92,12-1.76,6.22-.87,12.49-1.71c3.42-.47,6.85-.92,10.28-1.38l5.8-.78,8.74-1.18q6.73-.92,13.43-1.9c2.92-.42,5.84-.86,8.74-1.31,1.45-.22,2.89-.45,4.33-.69l1.55-.25q4.39-.72,8.73-1.5c7.87-1.4,15.62-2.95,23.17-4.73q5.47-1.28,10.81-2.73,2.94-.79,5.84-1.65c3-.89,6-1.82,8.91-2.81l2.1-.72c7-2.45,13.73-5.16,20.28-8,3-1.3,6-2.63,9-4l2-.89,10.12-4.52c4.14-1.83,8.3-3.63,12.55-5.38l3.67-1.47c1.76-.69,3.53-1.38,5.32-2,2.33-.87,4.7-1.72,7.11-2.52q5.08-1.72,10.44-3.22c.67-.19,1.34-.37,2-.54q2.94-.8,5.94-1.51l3.29-.76q5.55-1.23,11.25-2.25c5.61-1,11.32-1.9,17.09-2.69,4.9-.67,9.85-1.28,14.82-1.86,8.53-1,17.13-1.89,25.7-2.85q3.06-.33,6.11-.69c4.87-.56,9.71-1.15,14.52-1.81,1.33-.17,2.65-.35,4-.54,2-.28,4-.58,6-.89,1.27-.2,2.54-.4,3.8-.62q4.41-.72,8.76-1.56c2.12-.4,4.24-.84,6.33-1.29,2.51-.54,5-1.12,7.44-1.72q4.14-1,8.17-2.15,4.33-1.2,8.55-2.52,6.1-1.89,12-4,4.33-1.51,8.59-3.12c6.32-2.37,12.53-4.85,18.7-7.39,4.62-1.88,9.21-3.8,13.8-5.72l5.9-2.46,1.77-.73q5.76-2.4,11.58-4.73l1.11-.44,4.75-1.88c4.19-1.63,8.41-3.22,12.7-4.75,7.67-2.74,15.53-5.28,23.69-7.51,3.47-.95,7-1.85,10.57-2.67,1.51-.35,3-.69,4.56-1q4-.86,8.1-1.59l2.08-.36.18,0c4.54-.77,9.14-1.43,13.77-2h.09q4.1-.5,8.24-.88c1.8-.18,3.61-.34,5.43-.49l1.53-.12c2-.15,4-.29,6-.42q3.48-.22,7-.4,3.26-.17,6.53-.29,5.88-.24,11.81-.37l4.29-.1q4.62-.1,9.26-.16l2.71,0,6.78-.08h1l9.59-.1c7.44-.09,14.87-.19,22.25-.38,2.84-.07,5.66-.15,8.48-.25l3.23-.13q4.45-.18,8.86-.43c9.7-.54,19.25-1.36,28.59-2.62q3.24-.42,6.45-.93c1.28-.2,2.55-.41,3.82-.63,2.08-.36,4.14-.74,6.19-1.16,1-.21,2.07-.42,3.09-.65q2.74-.58,5.45-1.25l.13,0,.82-.2c1.52-.38,3-.78,4.55-1.2,9.14-2.52,18.26-5.7,27.4-9.09l3.86-1.44q3.49-1.31,7-2.64l3.61-1.37c9.53-3.61,19.08-7.18,28.7-10.18,0,.13,0,.25,0,.38q5.52-1.62,11.07-2.95l-.09-.58,1.56-.4c4.93-1.24,9.88-2.27,14.85-3h2.51l13.47.09,2.77,0c0,29.32,0,24.59-.51,83.08C1920.48,295.46,1920.77,311.23,1920.85,327Z" />
            <path class="cls-5" d="M1121.69,371.33q-6.26.84-12.49,1.71,1.85-13.46,3.67-26.89Z" />
            <path class="cls-5"
                d="M1137.77,369.17l-5.8.78q.55-6.21,1.12-12.43C1134.65,361.41,1136.22,365.28,1137.77,369.17Z" />
            <path class="cls-5" d="M1183.29,362.34q-4.33.78-8.73,1.5l-1.55.25q1.76-11.18,3.5-22.37Z" />
            <path class="cls-5"
                d="M1234.12,349.7l-2.1.72c-2.93,1-5.9,1.92-8.91,2.81q2-12.54,3.92-25.07Q1230.57,338.95,1234.12,349.7Z" />
            <path class="cls-5"
                d="M1275.56,332.35l-10.12,4.52-2,.89q2.23-14.34,4.48-28.67Q1271.74,320.73,1275.56,332.35Z" />
            <path class="cls-5"
                d="M1297.1,323.46c-1.79.66-3.56,1.35-5.32,2l-3.67,1.47,3.27-20.93Q1294.24,314.76,1297.1,323.46Z" />
            <path class="cls-5"
                d="M1337.15,312.66q-5.7,1-11.25,2.25l-3.29.76q1.61-16,3.22-32Q1331.5,298.16,1337.15,312.66Z" />
            <path class="cls-5"
                d="M1429.2,300.71c-1.26.22-2.53.42-3.8.62-2,.31-4,.61-6,.89-1.32.19-2.64.37-4,.54q2.34-14.94,4.67-29.87Q1424.62,286.8,1429.2,300.71Z" />
            <path class="cls-5"
                d="M1521.56,271.26c-4.59,1.92-9.18,3.84-13.8,5.72q2.4-14.82,4.78-29.64Q1517.07,259.3,1521.56,271.26Z" />
            <path class="cls-5"
                d="M1622.32,241.12c-4.63.55-9.23,1.21-13.77,2l-.18,0q2.37-15.06,4.72-30.1Q1617.7,227.07,1622.32,241.12Z" />
            <path class="cls-5"
                d="M1736.52,236.89l-3.23.13c-2.82.1-5.64.18-8.48.25q1.9-13.36,3.82-26.74Q1732.57,223.73,1736.52,236.89Z" />
            <path class="cls-5"
                d="M1784.24,232.28c-1.27.22-2.54.43-3.82.63q-3.21.51-6.45.93l5-35.56Q1781.62,215.29,1784.24,232.28Z" />
            <path class="cls-5"
                d="M1842.72,214.62q-3.49,1.33-7,2.64l-3.86,1.44q2-12.57,3.94-25.15Q1839.28,204.08,1842.72,214.62Z" />
            <path class="cls-5" d="M1918.35,196.6l-13.47-.09h-.64q2.27-14.52,4.55-29Q1913.56,182,1918.35,196.6Z" />
            <path class="cls-5" d="M1400.87,304.57q-3,.36-6.11.69l.66-19.65Q1398.15,295.09,1400.87,304.57Z" />
            <path class="cls-5"
                d="M1468.45,291.47q-4.21,1.32-8.55,2.52,2.28-14.1,4.55-28.18Q1466.46,278.64,1468.45,291.47Z" />
            <path class="cls-5"
                d="M1541.92,262.9l-1.11.44q-5.82,2.32-11.58,4.73,3.19-19.4,6.38-38.79Q1538.76,246.11,1541.92,262.9Z" />
            <path class="cls-5" d="M1593.63,246.09c-3.58.82-7.1,1.72-10.57,2.67q3.07-19.44,6.16-38.88Z" />
            <path class="cls-5"
                d="M1637.61,239.62l-1.53.12c-1.82.15-3.63.31-5.43.49,1-6.1,2-12.22,3.07-18.32Q1635.67,230.76,1637.61,239.62Z" />
            <path class="cls-5" d="M1673.2,238l-4.29.1q-5.92.13-11.81.37.62-17.53,1.25-35.06Z" />
            <path class="cls-5" d="M1692,237.76l-6.78.08-2.71,0q1.88-15,3.76-29.94Q1689.1,222.85,1692,237.76Z" />
            <path class="cls-5"
                d="M1799,229.22q-2.7.66-5.45,1.25c1-5.92,1.91-11.84,2.88-17.76C1797.25,218.22,1798.11,223.71,1799,229.22Z" />
            <path class="cls-5"
                d="M1886.05,200.5q-5.55,1.32-11.07,2.95c0-.13,0-.25,0-.38q2.71-19.33,5.44-38.67,2.74,17.78,5.49,35.52Z" />
            <rect class="cls-5" x="1247.62" y="404.37" width="673.4" height="119.41" />
            <polyline class="cls-5" points="1921.12 511.52 1361.98 511.52 1361.98 744.02" />
            <polygon class="cls-1"
                points="1920.07 645.31 1921.12 744.02 1474.41 744.02 1474.41 742.46 0 742.46 0 414.19 1459.9 448.2 1497.48 440.95 1578.65 440.95 1578.65 521.42 1685.18 521.42 1685.18 625.51 1920.07 645.31" />
            <path class="cls-4"
                d="M1921.86,469q-1,50.9-.48,104.26.43,44.85,1.9,88c-19-3.36-49-8.37-86-13.28-64.85-8.6-91.22-9.92-161.26-18-24.84-2.87-54-7-90.48-13.63-65.85-11.93-108.12-22.9-151.3-53.13-19.49-13.64-17-16.06-37.64-31.13-57.41-41.9-94.6-38.6-173.62-70.46-37.19-15-90.59-40.59-150.94-85.45l78.6,7.34c25.93,4.45,60.9,10.34,102.41,17,20.62,3.31,66.25,12.73,116.54,18,49.38,5.18,63.51,3.31,96.23,4.49,0,0,20.35.72,47,3.11,53.25,4.77,61.67,13.41,106.47,18.64,49.24,5.74,54.39-2.84,107.23,3,34.93,3.88,68,9.58,68,9.58,5.82,1,9,1.61,17.75,3.13,25.48,4.42,46.28,7.73,59.78,9.82Z" />
            <path class="cls-1" d="M85.46,55.4c-5-2.5-10-5-14.95-7.39L82,9.05Q83.72,32.22,85.46,55.4Z" />
            <path class="cls-1" d="M104.51,64.08l-6.8-3.81q3.09-12.21,6.2-24.41Z" />
            <path class="cls-1"
                d="M144.84,83.64c-4.92-1.85-9.84-4-14.75-6.27q3.81-17.73,7.65-35.46Q141.3,62.78,144.84,83.64Z" />
            <path class="cls-1"
                d="M252.83,99.24c-4.93-.11-9.84-.24-14.74-.42Q241.93,79.4,245.76,60,249.29,79.63,252.83,99.24Z" />
            <path class="cls-1" d="M292.91,100l-8.51-.2,6.09-31.16Q291.69,84.35,292.91,100Z" />
            <path class="cls-1" d="M309.8,100.66q-3.42-.16-6.84-.3l4.47-25Z" />
            <path class="cls-1" d="M353.31,104.93q-4.74-.78-9.54-1.39L350,68.93Z" />
            <path class="cls-1"
                d="M447.43,140.6c-4.74-2.73-9.52-5.4-14.37-8q2.18-15.31,4.34-30.63Q442.43,121.31,447.43,140.6Z" />
            <path class="cls-1" d="M465,151.07q-6-3.69-12.15-7.3,1.74-13.1,3.47-26.21Q460.68,134.32,465,151.07Z" />
            <path class="cls-1" d="M496.57,170.49q-3.74-2.27-7.46-4.56,2.31-12.93,4.64-25.86Z" />
            <path class="cls-1" d="M519.24,183.62q-5.25-2.88-10.41-5.87l6.51-36.29Z" />
            <path class="cls-1"
                d="M620.35,217.76q-6.29-1.08-12.53-2.29,1.75-18.09,3.52-36.2Q615.84,198.52,620.35,217.76Z" />
            <path class="cls-1" d="M594.92,191.29l7.28,23.06q-4.76-1-9.47-2.07Z" />
            <path class="cls-1"
                d="M573.07,207l-2.9-.91c-1.64-.53-3.27-1.07-4.88-1.64l2.49-26.9Q570.42,192.32,573.07,207Z" />
            <path class="cls-1" d="M669.19,226c-2.91-.55-5.84-1.07-8.77-1.58l1.77-30.85Q665.7,209.79,669.19,226Z" />
            <path class="cls-1" d="M720,239.42c-5.45-2.07-11-3.9-16.68-5.55l12.6-42.52Q717.91,215.38,720,239.42Z" />
            <path class="cls-1"
                d="M776.65,270.64l-1-.64c-4.43-2.93-8.87-5.84-13.37-8.66q1.54-15.78,3.08-31.56,5.22,18.94,10.43,37.89C776.11,268.66,776.38,269.65,776.65,270.64Z" />
            <path class="cls-1"
                d="M785.94,276.8l-9.29-6.16-1-.64c0-.78.1-1.55.14-2.33q.82-12.89,1.64-25.77Q781.71,259.35,785.94,276.8Z" />
            <path class="cls-1"
                d="M825.19,300.08c-.56-.26-1.11-.53-1.66-.81-4.78-2.39-9.42-4.94-14-7.6q5.33-16.1,10.67-32.22Q822.71,279.76,825.19,300.08Z" />
            <path class="cls-1" d="M895.85,324q-8.55-2-17-4.32.6-19.06,1.19-38.11Q888,302.76,895.85,324Z" />
            <path class="cls-1" d="M963.62,338.06q-7.82-1.6-15.66-3.15l9-40.6Z" />
            <path class="cls-1"
                d="M990.92,344c-2.14-.52-4.29-1-6.43-1.5l-4.81-1.08q.41-13.71.8-27.41Q985.69,329,990.92,344Z" />
            <path class="cls-1"
                d="M1042.84,359.91c-6-2.32-12.06-4.48-18.24-6.48q4.47-18.48,8.93-36.95Q1038.18,338.18,1042.84,359.91Z" />
            <path class="cls-1"
                d="M1094.19,388l-.49.27a162.46,162.46,0,0,0-18-12q3.07-19.35,6.17-38.7,5.89,25.31,11.8,50.59Z" />
            <path class="cls-1"
                d="M1093.7,387.47a162.46,162.46,0,0,0-18-12c-3.83-2.23-7.8-4.34-11.87-6.36-6.74-3.33-13.77-6.4-21-9.22-6-2.32-12.06-4.48-18.24-6.48-11.06-3.59-22.38-6.7-33.68-9.4-2.14-.52-4.29-1-6.43-1.5l-4.81-1.08q-8-1.74-16.06-3.39-7.82-1.6-15.66-3.15c-17.46-3.47-35-6.89-52.11-11q-8.55-2-17-4.32c-18.72-5.1-36.81-11.29-53.68-19.56-.56-.26-1.11-.53-1.66-.81-4.78-2.39-9.42-4.94-14-7.6-8.09-4.71-15.89-9.76-23.62-14.87l-9.29-6.16-1-.64c-4.43-2.93-8.87-5.84-13.37-8.66-11.81-7.46-24-14.41-37.4-19.95q-2.46-1-5-2c-5.45-2.07-11-3.9-16.68-5.55-11.07-3.21-22.5-5.7-34.08-7.87-2.91-.55-5.84-1.07-8.77-1.58-13.29-2.32-26.74-4.34-40.07-6.66q-6.29-1.08-12.53-2.29-2.82-.54-5.62-1.12-4.76-1-9.47-2.07c-6.65-1.53-13.21-3.25-19.66-5.24l-2.9-.91c-1.64-.53-3.27-1.07-4.88-1.64a300,300,0,0,1-46-20.87q-5.25-2.88-10.41-5.87-6.16-3.57-12.26-7.26-3.74-2.27-7.46-4.56c-8-4.93-16-9.94-24.09-14.86q-6-3.69-12.15-7.3c-1.81-1.07-3.62-2.12-5.44-3.17-4.74-2.73-9.52-5.4-14.37-8-17.61-9.32-36-17.38-56.23-22.75-7.72-2-15.57-3.67-23.52-4.95q-4.74-.78-9.54-1.39c-11.18-1.45-22.54-2.32-34-2.88q-3.42-.16-6.84-.3-5-.19-10-.34l-8.51-.2c-10.52-.23-21.07-.36-31.57-.58-4.93-.11-9.84-.24-14.74-.42C206,97.68,174.56,94.67,145.68,84l-.84-.32c-4.92-1.85-9.84-4-14.75-6.27-8.53-4-17-8.56-25.58-13.29l-6.8-3.81-8-4.51C84.84,53,80,50.31,75.11,47.69,58,38.49,40.85,30.37,23.4,26.41L1,26.63C1,78.38,1,70,1.54,173.3c.13,27.84-.23,55.67-.34,83.51C1,310.11,1,355.69,1,409.05v7.6c134.92,0,264.48,0,394.57,2.15,93.86,1.55,184.89-2.15,278.77-2.15h446.35C1113.9,405.56,1104.66,395.9,1093.7,387.47Z" />
            <rect class="cls-6" x="1802.23" y="481.79" width="1.63" height="9.66" rx="0.3" />
            <rect class="cls-6" x="1828.48" y="490.56" width="1.67" height="9.66" />
            <rect class="cls-6" x="1853.37" y="483.52" width="1.67" height="9.66" />
            <rect class="cls-6" x="1883.63" y="474.46" width="1.67" height="6.94" />
            <path class="cls-5"
                d="M1829.15,491l77.52-22a.05.05,0,0,0,0-.1h-38.09l-66.3,12.93s26.85,9.14,26.85,9.14A0,0,0,0,0,1829.15,491Z" />
            <path class="cls-4" d="M1800.36,490.56a2.52,2.52,0,0,0,3.54,0l-1.28,1.86" />
            <path class="cls-4" d="M1826.74,499.12a3.17,3.17,0,0,0,4.43-1.1c-.34.94-.67,1.87-1,2.8" />
            <path class="cls-4" d="M1827.83,498.25c-.29.15-.3,1,1.27,1.65a3.18,3.18,0,0,0,1.71.24l-2.07.88" />
            <path class="cls-4" d="M1856.92,492.45a3.16,3.16,0,0,1-4.43-1.09c.33.93.67,1.86,1,2.79" />
            <path class="cls-4" d="M1856,490.88a2.52,2.52,0,0,1-3,1.89l2.07.88" />
            <path class="cls-4" d="M1881.91,481a3.17,3.17,0,0,0,4.43-1.1l-1,2.79" />
            <path class="cls-4" d="M1882.83,479.68a2.65,2.65,0,0,0,1.27,1.65,2.69,2.69,0,0,0,1.72.24l-2.07.88" />
            <path class="cls-4" d="M1799.67,490.54a4.07,4.07,0,0,0,5.29-1.31c-.43,1-.85,2-1.27,3.06" />
            <path class="cls-4" d="M1801.1,488.82a2.52,2.52,0,0,0,3,1.89l-2.07.88" />
            <path class="cls-7"
                d="M1830.15,502.67l90.07-34.3c1.42-.3,2.66-5.41,2.6-5.41l-17.71-.33-21.49,7.62L1803,489.89s27.11,12.78,27.11,12.78Z" />
        </g>
    </g>
</svg>