<svg width="405" height="619" viewBox="0 0 405 619" fill="none" xmlns="http://www.w3.org/2000/svg">
<path d="M165.394 500.192H26.0029V533.554H165.394V500.192Z" fill="#8FC4EF"/>
<path d="M370.257 501.341H156.946V554.259H370.257V501.341Z" fill="#88BEE2"/>
<path d="M125.265 442.669L147.442 425.415L166.45 439.219L125.265 442.669Z" fill="#90C2F3"/>
<path d="M96.7559 501.341L198.13 384L302.675 501.341H96.7559Z" fill="#90C2F3"/>
<path d="M213.971 501.341L290.001 428.865L362.865 501.341H213.971Z" fill="#90C2F3"/>
<path d="M27.0586 500.192L122.099 424.263L274.163 500.192H27.0586Z" fill="#88BCE6"/>
<path d="M116.819 534.703L258.322 418.511L362.866 501.341L116.819 534.703Z" fill="#7EB1D3"/>
<path d="M163.066 549.893L287.365 485.815L404 550L163.066 549.893Z" fill="#779FC0"/>
<path d="M254.487 530.094L132.135 476.611L50.8232 513.424L254.487 530.094Z" fill="#779FC0"/>
<path d="M274.362 531.321C273.801 531.621 273.396 531.863 273.058 532.072C273.174 530.815 273.287 529.558 273.398 528.301C273.719 529.302 274.04 530.309 274.362 531.321Z" fill="#112F3F"/>
<path d="M284.234 526.821C283.73 527.024 283.251 527.227 282.793 527.43C282.88 526.097 282.967 524.763 283.053 523.428L284.234 526.821Z" fill="#112F3F"/>
<path d="M293.223 523.12C292.803 523.3 292.328 523.493 291.817 523.702C291.893 522.401 291.973 521.1 292.048 519.799C292.441 520.907 292.83 522.014 293.223 523.12Z" fill="#112F3F"/>
<path d="M301.524 514.445C301.176 514.868 300.868 515.319 300.602 515.793C300.526 515.937 300.452 516.077 300.379 516.213C300.589 514.918 300.799 513.623 301.009 512.327C301.179 513.033 301.35 513.739 301.524 514.445Z" fill="#112F3F"/>
<path d="M298.547 519.432C298.193 519.967 297.769 520.457 297.287 520.889C297.524 519.464 297.76 518.04 297.997 516.615C298.178 517.553 298.361 518.492 298.547 519.432Z" fill="#112F3F"/>
<path d="M307.286 509.552C306.66 509.818 306.072 510.159 305.534 510.567C305.814 509.222 306.089 507.877 306.36 506.53L307.286 509.552Z" fill="#112F3F"/>
<path d="M314.074 507.17L312.694 507.671C312.974 506.464 313.254 505.257 313.535 504.05L314.074 507.17Z" fill="#112F3F"/>
<path d="M319.633 505.018C319.177 505.207 318.715 505.394 318.251 505.58C318.356 503.996 318.46 502.412 318.562 500.829C318.919 502.224 319.276 503.621 319.633 505.018Z" fill="#112F3F"/>
<path d="M322.023 503.991C321.626 504.17 321.219 504.349 320.805 504.525C320.897 503.117 320.989 501.709 321.08 500.302C321.394 501.532 321.708 502.762 322.023 503.991Z" fill="#112F3F"/>
<path d="M329.047 499.874C328.677 500.182 328.299 500.482 327.919 500.758L327.616 496.324C328.094 497.507 328.571 498.69 329.047 499.874Z" fill="#112F3F"/>
<path d="M333.945 494.992C333.592 495.398 333.235 495.788 332.876 496.176L332.92 491.743L333.945 494.992Z" fill="#112F3F"/>
<path d="M343.122 484.727C342.685 485.133 342.253 485.555 341.824 485.992C342.012 484.368 342.197 482.74 342.379 481.109L343.122 484.727Z" fill="#112F3F"/>
<path d="M346.401 482.081C345.944 482.392 345.493 482.722 345.051 483.071C345.236 481.447 345.42 479.824 345.605 478.2C345.87 479.491 346.135 480.784 346.401 482.081Z" fill="#112F3F"/>
<path d="M353.309 479.325L352.433 479.491C352.276 479.521 352.118 479.554 351.963 479.588C352.131 478.127 352.298 476.665 352.463 475.203C352.744 476.577 353.026 477.951 353.309 479.325Z" fill="#112F3F"/>
<path d="M366.745 476.798C366.382 476.861 365.959 476.938 365.466 477.029C365.625 475.641 365.783 474.253 365.938 472.865C366.207 474.176 366.476 475.487 366.745 476.798Z" fill="#112F3F"/>
<path d="M370.914 476.075C370.217 476.213 369.782 476.297 369.505 476.349L370.028 471.746C370.323 473.19 370.619 474.633 370.914 476.075Z" fill="#112F3F"/>
<path d="M383.695 473.524L381.838 473.898C382.175 472.42 382.514 470.943 382.855 469.465C383.132 470.82 383.412 472.173 383.695 473.524Z" fill="#112F3F"/>
<path d="M396.582 472.506C396.01 472.487 395.485 472.471 395.002 472.459C395.227 470.971 395.451 469.482 395.674 467.994C395.972 469.5 396.275 471.004 396.582 472.506Z" fill="#112F3F"/>
<path d="M401.096 472.635L399.601 472.613C399.752 471.574 399.905 470.534 400.061 469.494C400.405 470.541 400.75 471.588 401.096 472.635Z" fill="#112F3F"/>
<path d="M262.586 537.054C262.156 537.294 261.728 537.543 261.303 537.801C261.567 536.636 261.831 535.472 262.095 534.308L262.586 537.054Z" fill="#112F3F"/>
<path d="M276.075 530.438L275.517 530.712C275.549 529.948 275.579 529.184 275.607 528.421C275.762 529.094 275.919 529.767 276.075 530.438Z" fill="#112F3F"/>
<path d="M392 543.5C391.996 543.744 375.151 534.129 390 542.5C376.651 539.629 386.12 539.078 393.5 542.014C390.12 540.078 392.677 537.039 396 542C378.086 542 373.323 544.011 356 544.5C342.989 544.865 324.203 551.961 311.179 551.961H249.317C250.875 547.613 253.594 543.74 257.201 540.736C258.487 539.655 259.859 538.674 261.303 537.801C261.723 537.544 262.151 537.295 262.587 537.054C264.392 536.061 266.266 535.191 268.197 534.452C271.558 533.162 271.821 532.829 273.054 532.064C273.392 531.861 273.798 531.613 274.358 531.313C274.686 531.134 275.066 530.937 275.514 530.704L276.072 530.43C277.543 529.715 279.643 528.759 282.794 527.42C283.252 527.217 283.731 527.014 284.235 526.811C286.017 526.06 288.09 525.204 290.512 524.222L291.818 523.692C292.329 523.489 292.795 523.286 293.224 523.109C295.19 522.275 296.375 521.676 297.282 520.877C297.764 520.445 298.188 519.955 298.542 519.42C299.213 518.38 299.824 517.305 300.374 516.201C300.448 516.065 300.521 515.925 300.597 515.781C300.863 515.306 301.171 514.855 301.519 514.433C302.685 512.986 304.032 511.684 305.529 510.557C306.066 510.149 306.655 509.808 307.281 509.542L307.44 509.485C308.89 509.002 310.715 508.377 312.692 507.659L314.072 507.157C315.441 506.652 316.857 506.114 318.248 505.56C318.712 505.373 319.174 505.187 319.63 504.998C320.025 504.836 320.416 504.671 320.802 504.505C321.222 504.328 321.623 504.15 322.02 503.971C323.348 503.378 324.577 502.784 325.629 502.207C326.424 501.768 327.188 501.277 327.915 500.738C328.295 500.456 328.673 500.162 329.043 499.853C330.405 498.705 331.687 497.469 332.878 496.155C333.238 495.768 333.595 495.372 333.948 494.972C336.582 491.995 339.102 488.744 341.821 485.971C342.249 485.537 342.682 485.115 343.119 484.707C343.749 484.12 344.379 483.566 345.047 483.051C345.491 482.702 345.941 482.372 346.398 482.06C348.07 480.893 349.958 480.047 351.96 479.568C352.115 479.534 352.273 479.501 352.431 479.471L353.307 479.304C359.497 478.121 363.217 477.423 365.463 477.009C365.956 476.918 366.378 476.84 366.742 476.778C369.993 476.187 368.336 476.548 369.504 476.329C369.781 476.276 370.216 476.193 370.914 476.055L381.837 473.877L383.7 473.504L384.481 473.348C389.334 472.375 389.907 472.29 395.007 472.438C395.49 472.451 396.015 472.467 396.587 472.485C397.622 472.518 398.818 472.554 400.215 472.593L401.101 472.615L402.399 472.649C403.588 472.68 404.533 473.473 404.533 474.444V491.632L404.5 509.5L404.528 494.39C404.509 500.966 404.503 507.67 404.508 514.181C404.525 526.793 392 530.895 392 543.5Z" fill="#28365B"/>
<path d="M282.122 526.215L280.702 525.715L281.446 522.492C281.673 523.734 281.898 524.975 282.122 526.215Z" fill="#0D2D3F"/>
<path d="M275.627 523.862L274.486 523.489C274.687 522.622 274.887 521.755 275.087 520.889C275.268 521.88 275.448 522.871 275.627 523.862Z" fill="#0D2D3F"/>
<path d="M265.586 520.621C265.009 520.486 264.424 520.351 263.83 520.215C264.144 518.862 264.457 517.503 264.769 516.138C265.042 517.632 265.314 519.126 265.586 520.621Z" fill="#0D2D3F"/>
<path d="M263.075 520.065L262.066 519.862L262.608 517.514C262.762 518.358 262.919 519.211 263.075 520.065Z" fill="#0D2D3F"/>
<path d="M255.24 518.594C254.704 518.515 254.169 518.44 253.629 518.364C253.92 517.098 254.213 515.83 254.507 514.559C254.751 515.905 254.995 517.25 255.24 518.594Z" fill="#0D2D3F"/>
<path d="M247.09 517.567C246.506 517.503 245.92 517.442 245.332 517.384C245.654 515.988 245.976 514.593 246.296 513.199C246.561 514.652 246.826 516.108 247.09 517.567Z" fill="#0D2D3F"/>
<path d="M237.513 516.651L236.505 516.564L237.059 514.159C237.209 514.989 237.362 515.821 237.513 516.651Z" fill="#0D2D3F"/>
<path d="M235.355 516.465L234.584 516.4L235.004 514.559C235.122 515.195 235.239 515.83 235.355 516.465Z" fill="#0D2D3F"/>
<path d="M231.646 516.144L229.84 515.986C230.172 514.552 230.503 513.115 230.833 511.677C231.109 513.166 231.38 514.655 231.646 516.144Z" fill="#0D2D3F"/>
<path d="M223.478 515.379C222.847 515.316 222.217 515.249 221.6 515.176C221.941 513.688 222.284 512.199 222.629 510.711C222.91 512.267 223.193 513.823 223.478 515.379Z" fill="#0D2D3F"/>
<path d="M220.159 515.022C219.712 514.972 219.265 514.919 218.816 514.864C219.06 513.8 219.304 512.738 219.55 511.677C219.754 512.792 219.957 513.907 220.159 515.022Z" fill="#0D2D3F"/>
<path d="M211.183 513.788C210.923 513.747 210.66 513.703 210.4 513.658C210.072 513.602 209.746 513.546 209.423 513.487C209.739 512.109 210.057 510.731 210.376 509.353L211.183 513.788Z" fill="#0D2D3F"/>
<path d="M199.115 511.243C198.516 511.091 197.918 510.936 197.325 510.776C197.454 509.462 197.584 508.148 197.714 506.833L199.115 511.243Z" fill="#0D2D3F"/>
<path d="M196.067 510.439C195.714 510.342 195.361 510.236 195.017 510.145L195.243 507.831C195.518 508.703 195.792 509.572 196.067 510.439Z" fill="#0D2D3F"/>
<path d="M183.906 506.752C183.346 506.572 182.786 506.389 182.226 506.204L183.097 502.382C183.372 503.838 183.641 505.294 183.906 506.752Z" fill="#0D2D3F"/>
<path d="M175.22 503.902C174.693 503.728 174.17 503.557 173.639 503.387C173.919 502.182 174.194 500.979 174.464 499.776C174.719 501.152 174.971 502.527 175.22 503.902Z" fill="#0D2D3F"/>
<path d="M169.243 501.99L168.402 501.726C168.549 501.077 168.701 500.426 168.848 499.776C168.982 500.511 169.114 501.249 169.243 501.99Z" fill="#0D2D3F"/>
<path d="M160.719 499.334C160.619 499.373 160.516 499.406 160.412 499.433C159.853 499.285 159.292 499.137 158.731 498.995L159.803 494.312C160.107 495.983 160.412 497.657 160.719 499.334Z" fill="#0D2D3F"/>
<path d="M148.909 496.852C148.279 496.738 147.649 496.63 147.019 496.527C147.355 495.056 147.691 493.584 148.029 492.111C148.327 493.692 148.621 495.273 148.909 496.852Z" fill="#0D2D3F"/>
<path d="M136.291 495.181C135.661 495.124 135.031 495.074 134.4 495.023C134.749 493.525 135.096 492.027 135.44 490.528C135.72 492.079 136.004 493.631 136.291 495.181Z" fill="#0D2D3F"/>
<path d="M138.568 495.398C138.127 495.35 137.685 495.307 137.242 495.267C137.482 494.215 137.723 493.163 137.965 492.109C138.171 493.209 138.368 494.303 138.568 495.398Z" fill="#0D2D3F"/>
<path d="M114.224 494.234L112.283 494.209C112.64 492.642 112.999 491.076 113.359 489.509L114.224 494.234Z" fill="#0D2D3F"/>
<path d="M118.989 494.317L117.017 494.278C117.381 492.69 117.744 491.1 118.107 489.509C118.401 491.111 118.695 492.713 118.989 494.317Z" fill="#0D2D3F"/>
<path d="M96.1829 494.026L94.7461 493.998C95.0108 492.841 95.2754 491.685 95.5401 490.53C95.7544 491.694 95.9686 492.86 96.1829 494.026Z" fill="#0D2D3F"/>
<path d="M93.6108 493.978L91.7812 493.927L92.7979 489.513C93.0668 491.001 93.3378 492.489 93.6108 493.978Z" fill="#0D2D3F"/>
<path d="M49.8786 486.653L48.2275 486.164C48.5174 484.902 48.8031 483.639 49.093 482.379C49.3562 483.803 49.6181 485.227 49.8786 486.653Z" fill="#0D2D3F"/>
<path d="M28.3592 481.728C27.7276 481.602 27.0932 481.484 26.4561 481.375C26.8076 479.947 27.1576 478.52 27.5063 477.092C27.7878 478.637 28.0721 480.183 28.3592 481.728Z" fill="#0D2D3F"/>
<path d="M39.2444 482.903C38.8411 482.807 38.4336 482.716 38.0303 482.631C38.2445 481.69 38.4595 480.75 38.6752 479.81C38.8642 480.841 39.0533 481.87 39.2444 482.903Z" fill="#0D2D3F"/>
<path d="M23.3492 480.938C23.3492 490.382 23.3492 488.853 23.5193 507.697C23.5656 512.771 23.4458 517.855 23.408 522.935C23.3387 532.658 23.3492 540.975 23.3492 550.711V552.097C68.1923 552.097 111.254 552.097 154.49 552.489C185.686 552.773 215.943 552.097 247.145 552.097H395.492C387.268 544.748 368.394 540.833 350.216 538.574C332.037 536.316 312.687 535.063 296.72 530.682C285.199 527.516 276.034 522.864 263.951 520.128C248.111 516.536 229.082 516.623 212.519 513.697C188.946 509.53 172.398 499.654 148.258 496.135C123.595 492.539 94.9705 496.2 71.4293 491.406C57.9646 488.661 44.6197 482.623 30.7873 480.9L23.3492 480.938Z" fill="#1E273E"/>
<path d="M283.758 531.244C283.697 531.294 283.695 531.272 283.632 531.323L283.516 531.501L283.191 532.877C283.854 532.457 284.81 533.056 284.955 533.809C285.1 534.562 284.678 535.313 284.163 535.895C282.063 538.282 278.559 538.895 275.341 539.345L267.468 540.48L255.07 542.28C250.716 542.905 246.305 543.532 241.927 543.092L240.908 543.149C243.731 542.313 247.63 541.259 252.354 540.287C255.35 539.678 255.631 539.715 257.503 539.226C257.503 539.226 263.653 537.614 268.846 534.692C270.365 533.835 272.032 532.762 272.032 532.762C272.763 532.209 273.551 531.733 274.385 531.341C274.811 531.147 275.255 530.992 275.711 530.878C277.867 530.34 280.058 529.945 282.271 529.697C282.947 529.626 284.102 529.362 284.707 528.682C284.798 528.576 284.867 528.453 284.908 528.321C284.95 528.19 284.964 528.051 284.951 527.914C284.937 527.776 284.895 527.643 284.828 527.521C284.76 527.4 284.669 527.292 284.558 527.205C284.328 527.009 284.076 526.839 283.806 526.7L282.756 526.166L283.596 526.499C283.997 526.661 284.527 526.905 284.527 526.905L284.896 527.061C285.926 527.495 286.48 528.059 286.594 528.419C286.629 528.541 286.645 528.667 286.64 528.794C286.64 529.691 285.873 530.316 285.676 530.476C285.159 530.886 284.518 531.119 283.85 531.14L283.758 531.244Z" fill="#9ED1E8"/>
<path d="M404.492 534.342C404.523 540.469 404.507 551.842 404.507 551.842V552.715C380.77 552.694 357.97 552.674 335.083 552.902C318.568 553.066 302.551 552.625 286.034 552.611L207.489 552.542C209.67 550.231 213.255 548.459 217.501 547.089C221.746 545.719 226.651 544.751 231.465 544.045C232.305 543.92 233.146 543.801 233.986 543.687C234.857 543.57 235.732 543.454 236.61 543.34C237.328 543.245 238.048 543.154 238.769 543.06L239.987 542.902L241.823 542.663C242.766 542.538 243.706 542.41 244.644 542.277C245.258 542.192 245.871 542.102 246.48 542.011C246.785 541.966 247.087 541.92 247.39 541.871L247.715 541.82C248.33 541.723 248.941 541.621 249.549 541.516C251.202 541.232 252.83 540.917 254.416 540.556C255.182 540.383 255.939 540.198 256.687 540.002C257.099 539.895 257.508 539.783 257.914 539.667C258.544 539.486 259.174 539.298 259.785 539.097L260.226 538.951C261.697 538.453 263.11 537.903 264.486 537.327C265.117 537.063 265.747 536.793 266.377 536.515L266.797 536.335L268.923 535.417C269.792 535.046 270.666 534.681 271.559 534.325L272.33 534.027C272.7 533.887 273.071 533.747 273.447 533.621C273.937 533.445 274.435 533.272 274.941 533.11C275.652 532.877 276.383 532.659 277.134 532.456C277.275 532.418 277.415 532.381 277.554 532.347C277.966 532.238 278.382 532.136 278.802 532.04L279.493 531.886C280.27 531.719 281.058 531.567 281.856 531.429C283.034 531.226 284.234 531.044 285.446 530.883C286.475 530.747 287.515 530.624 288.559 530.506C290.351 530.303 292.157 530.122 293.957 529.927C294.386 529.883 294.814 529.836 295.241 529.787C296.264 529.674 297.281 529.554 298.291 529.42C298.57 529.386 298.848 529.349 299.131 529.31C299.551 529.254 299.971 529.193 300.392 529.13C300.658 529.089 300.925 529.049 301.19 529.004C301.807 528.907 302.421 528.801 303.03 528.687C303.475 528.606 303.921 528.517 304.36 528.426C304.887 528.316 305.41 528.198 305.922 528.076C306.502 527.941 307.074 527.796 307.639 527.64C308.245 527.478 308.844 527.307 309.435 527.129C310.289 526.873 311.129 526.602 311.955 526.317C312.562 526.113 313.163 525.902 313.76 525.684C315.087 525.203 316.392 524.699 317.688 524.184C318.658 523.802 319.622 523.413 320.587 523.023L321.826 522.524L322.198 522.376C323.004 522.051 323.815 521.731 324.63 521.416L324.863 521.326L325.861 520.945C326.741 520.614 327.628 520.291 328.529 519.981C330.14 519.425 331.791 518.909 333.505 518.457C334.234 518.264 334.975 518.081 335.725 517.915C336.043 517.844 336.356 517.775 336.683 517.712C337.243 517.595 337.811 517.488 338.385 517.389L338.822 517.316H338.859C339.813 517.16 340.779 517.026 341.752 516.91H341.771C342.345 516.842 342.922 516.783 343.502 516.731C343.88 516.695 344.26 516.662 344.642 516.632L344.964 516.608C345.384 516.577 345.804 516.549 346.224 516.522C346.711 516.493 347.202 516.466 347.694 516.441C348.151 516.418 348.608 516.399 349.066 516.382C349.89 516.35 350.717 516.325 351.547 516.307L352.448 516.287C353.095 516.273 353.743 516.263 354.393 516.255H354.962L356.387 516.238H356.597L358.611 516.218C360.174 516.2 361.735 516.179 363.285 516.141C363.882 516.127 364.474 516.11 365.066 516.09L365.745 516.064C366.368 516.039 366.988 516.01 367.606 515.976C369.643 515.867 371.649 515.7 373.611 515.445C374.065 515.388 374.517 515.325 374.966 515.256C375.235 515.215 375.502 515.173 375.769 515.128C376.206 515.055 376.638 514.978 377.069 514.893C377.279 514.85 377.504 514.808 377.718 514.761C378.102 514.682 378.483 514.598 378.863 514.507H378.89L379.062 514.467C379.382 514.389 379.693 514.308 380.018 514.223C381.938 513.712 383.854 513.066 385.774 512.378L386.585 512.086C387.073 511.909 387.563 511.73 388.055 511.55L388.813 511.272C390.815 510.539 392.821 509.815 394.842 509.206C394.842 509.232 394.842 509.257 394.842 509.283C395.615 509.064 396.39 508.864 397.167 508.684L397.148 508.567L397.476 508.486C398.512 508.234 399.551 508.025 400.595 507.877H401.123L403.952 507.895H404.5L404.427 524.756L404.492 534.342Z" fill="#1B202D"/>
<path d="M236.623 543.362C235.746 543.476 234.871 543.591 233.999 543.709C234.258 541.888 234.515 540.069 234.77 538.252L236.623 543.362Z" fill="#072535"/>
<path d="M240.001 542.923L238.782 543.082C238.859 542.242 238.938 541.401 239.017 540.559C239.345 541.349 239.675 542.134 240.001 542.923Z" fill="#072535"/>
<path d="M249.563 541.537C248.956 541.643 248.345 541.744 247.729 541.842L247.403 541.893C247.65 540.38 247.895 538.867 248.139 537.353L249.563 541.537Z" fill="#072535"/>
<path d="M260.24 538.972L259.798 539.118C259.183 539.321 258.559 539.508 257.927 539.689C258.207 537.992 258.481 536.296 258.75 534.601C259.246 536.06 259.742 537.518 260.24 538.972Z" fill="#072535"/>
<path d="M268.944 535.451L266.819 536.368L266.398 536.549C266.711 534.609 267.024 532.669 267.34 530.73C267.874 532.305 268.409 533.879 268.944 535.451Z" fill="#072535"/>
<path d="M273.468 533.647C273.092 533.781 272.721 533.921 272.351 534.052L271.58 534.351L272.267 530.103C272.667 531.288 273.068 532.469 273.468 533.647Z" fill="#072535"/>
<path d="M281.882 531.455C281.084 531.59 280.296 531.742 279.519 531.911L278.828 532.066C279.054 529.901 279.279 527.736 279.505 525.571C280.299 527.532 281.091 529.493 281.882 531.455Z" fill="#072535"/>
<path d="M301.217 529.029C300.952 529.074 300.686 529.115 300.419 529.155C299.999 529.218 299.579 529.279 299.159 529.336C298.881 529.374 298.604 529.411 298.318 529.445C298.646 527.424 298.973 525.403 299.299 523.383C299.936 525.265 300.576 527.147 301.217 529.029Z" fill="#072535"/>
<path d="M320.619 523.053C319.654 523.442 318.69 523.832 317.72 524.213C318.056 522.208 318.391 520.203 318.724 518.198C319.358 519.816 319.99 521.434 320.619 523.053Z" fill="#072535"/>
<path d="M341.784 516.936C340.811 517.047 339.845 517.181 338.891 517.342H338.854C339.185 515.304 339.516 513.268 339.845 511.233C340.491 513.134 341.137 515.035 341.784 516.936Z" fill="#072535"/>
<path d="M365.772 516.077L365.094 516.103C364.501 516.124 363.909 516.14 363.312 516.154C363.579 514.347 363.846 512.538 364.115 510.727C364.667 512.513 365.219 514.297 365.772 516.077Z" fill="#072535"/>
<path d="M375.797 515.142C375.53 515.186 375.263 515.229 374.995 515.269C374.545 515.338 374.093 515.401 373.64 515.458L374.69 508.241C375.061 510.543 375.43 512.843 375.797 515.142Z" fill="#072535"/>
<path d="M388.081 511.557C387.592 511.737 387.102 511.916 386.611 512.093L385.8 512.385C386.08 510.685 386.356 508.983 386.627 507.281C387.115 508.706 387.599 510.131 388.081 511.557Z" fill="#072535"/>
<path d="M403.968 507.9L401.138 507.882H401.004C401.322 505.917 401.64 503.955 401.96 501.996C402.628 503.957 403.297 505.925 403.968 507.9Z" fill="#072535"/>
<path d="M295.267 529.813C294.847 529.862 294.419 529.908 293.983 529.953L294.122 525.965C294.504 527.247 294.886 528.53 295.267 529.813Z" fill="#072535"/>
<path d="M309.463 527.154C308.873 527.333 308.275 527.503 307.667 527.666C307.986 525.758 308.305 523.852 308.623 521.947C308.904 523.682 309.184 525.418 309.463 527.154Z" fill="#072535"/>
<path d="M324.895 521.356L324.662 521.445C323.847 521.759 323.036 522.079 322.229 522.405C322.676 519.78 323.123 517.156 323.57 514.533C324.011 516.81 324.453 519.084 324.895 521.356Z" fill="#072535"/>
<path d="M335.757 517.944C335.005 518.111 334.266 518.293 333.537 518.486C333.967 515.856 334.398 513.226 334.831 510.595L335.757 517.944Z" fill="#072535"/>
<path d="M344.996 516.631L344.675 516.655C344.292 516.686 343.912 516.718 343.534 516.755C343.744 515.517 343.954 514.275 344.179 513.037C344.452 514.234 344.725 515.432 344.996 516.631Z" fill="#072535"/>
<path d="M352.472 516.302L351.571 516.323C350.742 516.34 349.915 516.365 349.09 516.398C349.177 514.026 349.264 511.654 349.352 509.282L352.472 516.302Z" fill="#072535"/>
<path d="M356.42 516.254L354.996 516.27H354.427C354.69 514.24 354.953 512.215 355.217 510.194C355.613 512.216 356.014 514.236 356.42 516.254Z" fill="#072535"/>
<path d="M378.897 514.52C378.519 514.61 378.137 514.694 377.752 514.774C377.962 513.573 378.153 512.371 378.357 511.17C378.529 512.288 378.71 513.402 378.897 514.52Z" fill="#072535"/>
<path d="M397.183 508.692C396.406 508.87 395.63 509.07 394.857 509.29C394.857 509.264 394.857 509.24 394.857 509.213C395.237 506.598 395.618 503.982 396 501.365C396.384 503.771 396.768 506.174 397.153 508.574L397.183 508.692Z" fill="#072535"/>
<path d="M404.5 550L263.076 550.067V574.302H404.529L404.5 550Z" fill="#1B202D"/>
<path d="M404.5 571.814H287.097V618.998H404.548L404.5 571.814Z" fill="#13161D"/>
<path d="M363.313 594.948V619H310.714V618.683L0.000976562 619V552L315.56 552.061V557.492H332.61V573.823H354.988V594.948H363.313Z" fill="#13161D"/>
<path d="M404.5 563.5C404.5 563.5 404.531 577.124 404.604 584.344C404.5 591.5 404.5 602 404.5 602C400.509 601.318 394.71 600.505 386.938 599.508C373.316 597.763 367.777 597.495 353.064 595.855C347.846 595.273 341.721 594.435 334.058 593.089C320.226 590.668 311.347 588.441 302.276 582.306C298.182 579.538 298.705 579.047 294.37 575.988C282.31 567.485 274.498 568.154 257.899 561.688C250.087 558.644 238.87 553.451 226.193 544.346L242.704 545.836C248.151 546.739 255.496 547.934 264.216 549.286C268.547 549.958 278.132 551.87 288.696 552.939C299.069 553.99 302.037 553.611 308.91 553.85C308.91 553.85 313.185 553.997 318.783 554.482C329.968 555.45 331.737 557.203 341.148 558.265C351.491 559.43 352.573 557.688 363.672 558.873C371.009 559.661 377.956 560.818 377.956 560.818C379.178 561.021 379.846 561.144 381.684 561.453C387.037 562.35 391.406 563.022 394.242 563.446L404.5 563.5Z" fill="#9ED1E8"/>
<path d="M18.9548 479.407C17.9045 478.899 16.8542 478.392 15.8145 477.907L18.228 470C18.4689 473.135 18.7112 476.271 18.9548 479.407Z" fill="#091F2D"/>
<path d="M22.9557 481.005L21.5273 480.232C21.9601 478.58 22.3942 476.929 22.8297 475.278L22.9557 481.005Z" fill="#091F2D"/>
<path d="M31.4275 484.975C30.394 484.599 29.3605 484.163 28.3291 483.702C28.8626 481.303 29.3983 478.905 29.936 476.506C30.4346 479.329 30.9317 482.152 31.4275 484.975Z" fill="#091F2D"/>
<path d="M54.1119 488.141C53.0763 488.118 52.0449 488.092 51.0156 488.056C51.5534 485.428 52.0904 482.802 52.6268 480.177C53.1211 482.833 53.6161 485.488 54.1119 488.141Z" fill="#091F2D"/>
<path d="M62.5308 488.295L60.7432 488.254L62.0224 481.93C62.1905 484.056 62.3599 486.178 62.5308 488.295Z" fill="#091F2D"/>
<path d="M66.0794 488.429C65.6004 488.407 65.1215 488.387 64.6426 488.368L65.5815 483.294L66.0794 488.429Z" fill="#091F2D"/>
<path d="M75.2178 489.296C74.554 489.19 73.8861 489.096 73.2139 489.014L74.5225 481.99L75.2178 489.296Z" fill="#091F2D"/>
<path d="M94.9892 496.535C93.9936 495.981 92.9895 495.439 91.9707 494.911C92.276 492.84 92.5799 490.768 92.8824 488.695C93.5867 491.312 94.289 493.925 94.9892 496.535Z" fill="#091F2D"/>
<path d="M98.6801 498.66C97.8399 498.161 96.9892 497.667 96.1279 497.178C96.3716 495.406 96.6146 493.633 96.8568 491.859C97.4674 494.127 98.0752 496.393 98.6801 498.66Z" fill="#091F2D"/>
<path d="M105.311 502.601C104.787 502.294 104.265 501.985 103.744 501.676C104.068 499.926 104.393 498.177 104.719 496.427L105.311 502.601Z" fill="#091F2D"/>
<path d="M110.073 505.266C109.338 504.876 108.609 504.479 107.887 504.075L109.254 496.709L110.073 505.266Z" fill="#091F2D"/>
<path d="M131.313 512.195C130.432 512.049 129.555 511.894 128.681 511.73C128.926 509.282 129.172 506.833 129.42 504.383C130.05 506.988 130.681 509.591 131.313 512.195Z" fill="#091F2D"/>
<path d="M125.97 506.823L127.499 511.503C126.832 511.367 126.169 511.227 125.51 511.082L125.97 506.823Z" fill="#091F2D"/>
<path d="M121.381 510.011L120.772 509.826C120.428 509.719 120.085 509.609 119.747 509.493L120.27 504.034C120.64 506.032 121.01 508.025 121.381 510.011Z" fill="#091F2D"/>
<path d="M141.572 513.867C140.96 513.755 140.345 513.65 139.729 513.546L140.101 507.285C140.593 509.48 141.083 511.674 141.572 513.867Z" fill="#091F2D"/>
<path d="M152.244 516.591C151.099 516.17 149.933 515.799 148.74 515.464L151.387 506.835C151.666 510.086 151.951 513.338 152.244 516.591Z" fill="#091F2D"/>
<path d="M164.144 522.927L163.934 522.797C163.004 522.202 162.071 521.612 161.126 521.039C161.342 518.904 161.557 516.769 161.773 514.634C162.504 517.197 163.234 519.76 163.964 522.324C164.031 522.525 164.088 522.726 164.144 522.927Z" fill="#091F2D"/>
<path d="M166.096 524.177L164.145 522.927L163.935 522.797C163.935 522.639 163.956 522.482 163.964 522.324C164.079 520.58 164.194 518.837 164.308 517.094C164.908 519.455 165.504 521.816 166.096 524.177Z" fill="#091F2D"/>
<path d="M174.34 528.902C174.223 528.849 174.107 528.794 173.992 528.737C172.988 528.252 172.013 527.735 171.051 527.195C171.797 525.017 172.544 522.837 173.292 520.656C173.644 523.404 173.993 526.152 174.34 528.902Z" fill="#091F2D"/>
<path d="M189.183 533.756C187.986 533.486 186.796 533.193 185.612 532.88C185.696 530.301 185.78 527.723 185.862 525.145C186.977 528.012 188.084 530.882 189.183 533.756Z" fill="#091F2D"/>
<path d="M203.419 536.61C202.324 536.393 201.228 536.18 200.13 535.971L202.02 527.731L203.419 536.61Z" fill="#091F2D"/>
<path d="M209.154 537.815C208.704 537.71 208.253 537.612 207.803 537.511L206.793 537.292C206.85 535.437 206.906 533.582 206.961 531.729C207.691 533.757 208.422 535.786 209.154 537.815Z" fill="#091F2D"/>
<path d="M220.06 541.044C218.8 540.573 217.527 540.135 216.229 539.729C216.854 537.229 217.48 534.729 218.104 532.23C218.756 535.166 219.407 538.104 220.06 541.044Z" fill="#091F2D"/>
<path d="M230.847 546.745L230.744 546.8C229.541 545.908 228.278 545.094 226.963 544.364C227.393 541.746 227.825 539.128 228.259 536.51C229.084 539.935 229.91 543.357 230.738 546.778L230.847 546.745Z" fill="#091F2D"/>
<path d="M230.533 546.278C229.33 545.386 228.067 544.572 226.752 543.842C225.948 543.39 225.114 542.961 224.259 542.551C222.843 541.876 221.366 541.253 219.848 540.68C218.587 540.209 217.314 539.771 216.016 539.365C213.693 538.637 211.315 538.005 208.941 537.457C208.492 537.352 208.04 537.254 207.591 537.153L206.58 536.934C205.46 536.698 204.336 536.469 203.207 536.246C202.112 536.029 201.015 535.816 199.917 535.606C196.25 534.902 192.565 534.208 188.971 533.374C187.774 533.103 186.584 532.811 185.4 532.497C181.468 531.462 177.668 530.206 174.124 528.528C174.007 528.475 173.891 528.42 173.776 528.363C172.772 527.878 171.797 527.361 170.835 526.821C169.135 525.865 167.497 524.84 165.873 523.803L163.922 522.553L163.712 522.423C162.781 521.828 161.849 521.238 160.903 520.665C158.422 519.151 155.862 517.741 153.047 516.616C152.703 516.481 152.353 516.346 151.997 516.21C150.852 515.79 149.686 515.419 148.493 515.084C146.168 514.433 143.767 513.927 141.334 513.487C140.723 513.375 140.108 513.27 139.492 513.166C136.7 512.695 133.875 512.285 131.075 511.814C130.194 511.668 129.317 511.513 128.443 511.35C128.048 511.277 127.655 511.201 127.262 511.122C126.596 510.987 125.933 510.847 125.273 510.702C123.876 510.392 122.498 510.043 121.144 509.639L120.534 509.454C120.19 509.347 119.847 509.237 119.509 509.121C116.171 507.974 112.939 506.558 109.847 504.886C109.111 504.496 108.382 504.099 107.66 503.694C106.797 503.211 105.939 502.72 105.085 502.221C104.561 501.914 104.038 501.605 103.518 501.296C101.837 500.295 100.157 499.278 98.4573 498.28C97.617 497.78 96.7663 497.287 95.9051 496.798C95.5249 496.581 95.1446 496.368 94.7623 496.155C93.7667 495.601 92.7626 495.059 91.7438 494.531C88.0447 492.64 84.1817 491.004 79.9323 489.914C78.3106 489.508 76.6617 489.169 74.9917 488.909C74.3279 488.804 73.6599 488.71 72.9877 488.627C70.6393 488.333 68.253 488.156 65.8458 488.043C65.3668 488.021 64.8879 488.001 64.409 487.982C63.7088 487.956 63.0086 487.933 62.3084 487.913L60.5208 487.872C58.311 487.826 56.0949 487.799 53.8893 487.755C52.8537 487.732 51.8223 487.706 50.793 487.669C44.0649 487.464 37.4607 486.853 31.3942 484.688L31.2178 484.623C30.1843 484.248 29.1508 483.811 28.1194 483.351C26.3276 482.539 24.5484 481.613 22.7461 480.653L21.3177 479.88L19.6373 478.965C18.6143 478.396 17.5976 477.851 16.5704 477.319C12.9763 475.452 9.37385 473.804 5.70834 473H0.00304788C0.00304788 483.503 -0.00196069 488.5 0.000863254 508C0.000863254 514 0.00271065 508 0.0029335 520C0.000976562 531 0.0029335 540.171 0.0029335 551L0.0036872 552.636C28.3447 552.636 56.5591 552.2 83.8856 552.636C103.602 552.951 122.723 552.2 142.443 552.2H236.203C234.776 549.949 232.835 547.989 230.533 546.278Z" fill="#13161D"/>
<path d="M379.854 565.78H379.638C379.603 565.78 379.575 565.807 379.575 565.841V567.68C379.575 567.713 379.603 567.741 379.638 567.741H379.854C379.889 567.741 379.917 567.713 379.917 567.68V565.841C379.917 565.807 379.889 565.78 379.854 565.78Z" fill="#06202B"/>
<path d="M385.44 567.56H385.09V569.52H385.44V567.56Z" fill="#06202B"/>
<path d="M390.667 566.131H390.317V568.092H390.667V566.131Z" fill="#06202B"/>
<path d="M397.024 564.292H396.674V565.701H397.024V564.292Z" fill="#06202B"/>
<path d="M385.23 567.649L401.514 563.184C401.517 563.184 401.519 563.183 401.521 563.181C401.523 563.179 401.524 563.177 401.524 563.174C401.524 563.171 401.523 563.169 401.521 563.167C401.519 563.165 401.517 563.164 401.514 563.164H393.513L379.586 565.788L385.226 567.643L385.23 567.649Z" fill="#1B202D"/>
<path d="M379.183 567.56C379.282 567.654 379.415 567.707 379.554 567.707C379.694 567.707 379.827 567.654 379.926 567.56L379.657 567.937" fill="#9ED1E8"/>
<path d="M384.725 569.297C384.8 569.343 384.885 569.374 384.973 569.387C385.062 569.401 385.152 569.397 385.239 569.376C385.326 569.356 385.407 569.318 385.479 569.266C385.551 569.214 385.61 569.149 385.655 569.074C385.584 569.265 385.514 569.453 385.445 569.642" fill="#9ED1E8"/>
<path d="M384.952 569.121C384.892 569.151 384.889 569.324 385.219 569.455C385.332 569.503 385.456 569.52 385.578 569.504L385.144 569.683" fill="#9ED1E8"/>
<path d="M391.063 567.943C390.988 567.99 390.903 568.021 390.815 568.035C390.727 568.049 390.636 568.045 390.549 568.025C390.462 568.004 390.381 567.966 390.309 567.914C390.237 567.863 390.178 567.797 390.133 567.722C390.202 567.911 390.274 568.1 390.343 568.288" fill="#9ED1E8"/>
<path d="M390.87 567.625C390.839 567.756 390.755 567.87 390.637 567.942C390.519 568.014 390.376 568.038 390.24 568.008L390.675 568.187" fill="#9ED1E8"/>
<path d="M396.313 565.62C396.389 565.666 396.474 565.696 396.562 565.71C396.651 565.724 396.741 565.72 396.828 565.699C396.915 565.678 396.996 565.641 397.068 565.589C397.139 565.537 397.199 565.471 397.244 565.396L397.034 565.963" fill="#9ED1E8"/>
<path d="M396.506 565.352C396.525 565.422 396.558 565.488 396.604 565.546C396.65 565.603 396.707 565.651 396.773 565.687C396.884 565.741 397.011 565.758 397.134 565.735L396.699 565.914" fill="#9ED1E8"/>
<path d="M379.038 567.556C379.225 567.652 379.441 567.678 379.647 567.629C379.852 567.58 380.031 567.459 380.149 567.29C380.059 567.493 379.971 567.696 379.883 567.911" fill="#9ED1E8"/>
<path d="M379.339 567.207C379.37 567.338 379.454 567.452 379.572 567.524C379.69 567.596 379.833 567.62 379.969 567.59L379.534 567.769" fill="#9ED1E8"/>
<path opacity="0.3" d="M385.137 570.126L404.057 563.165C404.355 563.104 404.513 562 404.5 562H400.883L396.368 563.546L379.434 567.532L385.128 570.126H385.137Z" fill="#1B202D"/>
<path opacity="0.5" d="M118.381 93.8013L105.613 105.395C105.437 105.552 105.228 105.634 105.015 105.629H98.1278C97.3377 105.63 96.5675 105.947 95.924 106.537L87.7155 113.986C87.0704 114.575 86.2995 114.891 85.5086 114.894H60.7187C59.9289 114.891 59.159 114.574 58.5148 113.986L49.4063 105.718C49.3435 105.66 49.2682 105.629 49.1909 105.629H35.6746C35.4363 105.63 35.2054 105.523 35.0227 105.326L24.7061 94.1396C24.5394 93.9592 24.4053 93.7341 24.3134 93.4801C24.2215 93.2262 24.1738 92.9494 24.1738 92.6693C24.1738 92.3891 24.2215 92.1124 24.3134 91.8584C24.4053 91.6044 24.5394 91.3793 24.7061 91.1989L35.0227 80.0167C35.2048 79.8176 35.4356 79.7073 35.6746 79.7053H43.0069C43.0836 79.705 43.1585 79.6756 43.2222 79.6207L55.0879 68.8574C55.2251 68.729 55.3906 68.6603 55.5604 68.6614H80.4908C80.6624 68.6602 80.8299 68.7289 80.9693 68.8574L85.8106 73.2512C86.4561 73.8382 87.2268 74.155 88.0175 74.1583H91.4863C91.7248 74.1578 91.9576 74.2518 92.1531 74.4274L96.9765 78.8058C97.6223 79.3917 98.393 79.7072 99.1834 79.7091H105.03C105.244 79.7058 105.453 79.7906 105.628 79.9513L118.396 91.541C118.534 91.6719 118.646 91.843 118.723 92.0403C118.8 92.2377 118.839 92.4555 118.838 92.6761C118.836 92.8967 118.794 93.1137 118.715 93.3093C118.635 93.5049 118.521 93.6735 118.381 93.8013Z" fill="#BBDBFF"/>
<path opacity="0.5" d="M400.791 54.8616L386.138 66.2323C385.935 66.3841 385.704 66.4637 385.469 66.4629H376.172L364.473 75.5464H333.287L321.589 66.4629H305.956C305.688 66.4656 305.427 66.3607 305.208 66.1631L293.378 55.1922C293.193 55.0344 293.041 54.8202 292.936 54.5687C292.831 54.3172 292.776 54.0362 292.776 53.7507C292.776 53.4653 292.831 53.1842 292.936 52.9327C293.041 52.6812 293.193 52.467 293.378 52.3092L305.208 41.3422C305.426 41.1432 305.688 41.037 305.956 41.0385H314.499L328.216 30.3944C328.38 30.2667 328.568 30.2002 328.76 30.2022H357.333C357.525 30.2007 357.714 30.2672 357.88 30.3944L364.578 35.5915H369.943C370.211 35.5905 370.474 35.6821 370.705 35.8568L377.38 41.0385H385.469C385.704 41.0374 385.936 41.1185 386.138 41.273L400.791 52.6398C400.947 52.7476 401.078 52.9078 401.169 53.1035C401.26 53.2991 401.308 53.5228 401.308 53.7507C401.308 53.9787 401.26 54.2023 401.169 54.398C401.078 54.5936 400.947 54.7538 400.791 54.8616V54.8616Z" fill="#BBDBFF"/>
<path opacity="0.5" d="M284.47 230.591L297.43 244.241C297.599 244.418 297.81 244.516 298.028 244.518H306.257L316.613 255.42H344.226L354.581 244.518H368.421C368.669 244.513 368.906 244.384 369.081 244.157L379.548 230.991C379.888 230.521 380.077 229.903 380.077 229.261C380.077 228.619 379.888 228.001 379.548 227.531L369.081 214.37C368.907 214.142 368.669 214.011 368.421 214.004H360.858L348.717 201.231C348.583 201.082 348.413 201.001 348.236 201H322.932C322.754 201.001 322.582 201.083 322.447 201.231L316.502 207.446H311.754C311.507 207.449 311.268 207.562 311.078 207.765L305.169 213.985H298.022C297.803 213.985 297.591 214.085 297.424 214.266L284.464 227.912C284.318 228.082 284.202 228.289 284.123 228.52C284.043 228.751 284.002 229.001 284.003 229.253C284.003 229.506 284.045 229.756 284.126 229.986C284.206 230.217 284.323 230.423 284.47 230.591V230.591Z" fill="#BBDBFF"/>
<path opacity="0.5" d="M228.599 32.8549L219.368 42.6918C218.703 43.3994 217.868 43.7868 217.005 43.7873H158.081C157.218 43.7862 156.382 44.1739 155.718 44.8829L146.03 55.2041C145.366 55.9122 144.53 56.2998 143.667 56.2996H123.512C122.65 56.2998 121.814 55.9122 121.15 55.2041L111.461 44.8829C110.798 44.1739 109.962 43.7862 109.099 43.7873H98.7343C98.0742 43.7871 97.4261 43.5599 96.8572 43.1294C96.2883 42.6989 95.8193 42.0806 95.4988 41.3387L90.6933 30.2179C90.3051 29.3199 90.1535 28.2845 90.2614 27.2665C90.3692 26.2486 90.7305 25.3029 91.2914 24.571L96.2314 18.1054C96.576 17.6548 96.987 17.297 97.4404 17.0528C97.8937 16.8086 98.3803 16.6829 98.8719 16.6831H106.162C106.696 16.683 107.224 16.5346 107.709 16.2479C108.194 15.9613 108.625 15.5433 108.973 15.0225L117.878 1.66062C118.226 1.14019 118.658 0.722427 119.143 0.435839C119.628 0.149251 120.156 0.000588203 120.689 0L141.813 0L141.96 0.153761L142.103 0H181.133C181.996 0.000512613 182.831 0.387967 183.495 1.09555L187.308 5.15869C187.972 5.86627 188.808 6.25372 189.67 6.25423H201.859C202.722 6.2541 203.557 6.64163 204.221 7.34978L209.993 13.5002C210.657 14.2084 211.492 14.5959 212.355 14.5958H217.005C217.868 14.5963 218.703 14.9837 219.368 15.6913L228.599 25.5282C229.018 25.9748 229.355 26.5346 229.586 27.1677C229.818 27.8009 229.938 28.4919 229.938 29.1916C229.938 29.8912 229.818 30.5822 229.586 31.2154C229.355 31.8485 229.018 32.4084 228.599 32.8549V32.8549Z" fill="#BBDBFF"/>
<path opacity="0.5" d="M85.6967 217.973L72.6828 227.198C72.1461 227.579 71.5432 227.778 70.9304 227.778C70.3176 227.778 69.7148 227.579 69.1781 227.198L65.0873 224.296C64.5511 223.914 63.9481 223.714 63.335 223.714C62.7219 223.714 62.1189 223.914 61.5826 224.296L57.3962 227.268C56.8595 227.648 56.2566 227.847 55.6438 227.847C55.031 227.847 54.4282 227.648 53.8915 227.268L40.8775 218.042C40.3097 217.639 39.8362 217.048 39.5065 216.33C39.1768 215.612 39.0029 214.793 39.0029 213.96C39.0029 213.126 39.1768 212.307 39.5065 211.589C39.8362 210.871 40.3097 210.28 40.8775 209.877L53.8915 200.652C54.4278 200.27 55.0308 200.069 55.6438 200.069C56.2569 200.069 56.8599 200.27 57.3962 200.652L61.4869 203.554C62.0236 203.934 62.6265 204.134 63.2393 204.134C63.8521 204.134 64.4549 203.934 64.9916 203.554L69.1781 200.582C69.7144 200.2 70.3174 200 70.9304 200C71.5435 200 72.1465 200.2 72.6828 200.582L85.6967 209.808C86.2638 210.212 86.7364 210.803 87.0655 211.521C87.3946 212.239 87.5681 213.057 87.5681 213.89C87.5681 214.724 87.3946 215.542 87.0655 216.26C86.7364 216.978 86.2638 217.569 85.6967 217.973V217.973Z" fill="#BBDBFF"/>
<path opacity="0.5" d="M55.3092 64.8403L41.0124 74.5157C40.4182 74.9161 39.7574 75.1253 39.0866 75.1253C38.4157 75.1253 37.7549 74.9161 37.1608 74.5157L32.6753 71.4751C32.0809 71.0756 31.4202 70.867 30.7495 70.867C30.0788 70.867 29.4181 71.0756 28.8237 71.4751L24.2096 74.5811C23.6159 74.9808 22.9556 75.1896 22.2854 75.1896C21.6151 75.1896 20.9548 74.9808 20.3611 74.5811L6.06427 64.9172C5.44505 64.5207 4.92411 63.9101 4.55997 63.1539C4.19583 62.3978 4.00293 61.5261 4.00293 60.6369C4.00293 59.7476 4.19583 58.8759 4.55997 58.1198C4.92411 57.3637 5.44505 56.753 6.06427 56.3565L20.3611 46.6811C20.9554 46.2817 21.6162 46.073 22.2869 46.073C22.9575 46.073 23.6183 46.2817 24.2126 46.6811L28.6981 49.7256C29.2925 50.125 29.9532 50.3337 30.6239 50.3337C31.2946 50.3337 31.9553 50.125 32.5497 49.7256L37.1548 46.6081C37.7492 46.2086 38.4099 46 39.0806 46C39.7513 46 40.412 46.2086 41.0064 46.6081L55.3002 56.2797C55.9198 56.6751 56.4414 57.2848 56.8063 58.0403C57.1713 58.7958 57.3651 59.6671 57.366 60.5564C57.3669 61.4457 57.175 62.3177 56.8116 63.0745C56.4483 63.8312 55.928 64.4427 55.3092 64.8403V64.8403Z" fill="#BBDBFF"/>
<path opacity="0.5" d="M385.697 169.974L372.683 179.2C372.146 179.581 371.543 179.78 370.93 179.78C370.318 179.78 369.715 179.581 369.178 179.2L365.087 176.297C364.551 175.917 363.948 175.718 363.335 175.718C362.722 175.718 362.119 175.917 361.583 176.297L357.396 179.273C356.859 179.653 356.257 179.852 355.644 179.852C355.031 179.852 354.428 179.653 353.891 179.273L340.878 170.047C340.31 169.644 339.836 169.053 339.507 168.335C339.177 167.617 339.003 166.798 339.003 165.965C339.003 165.131 339.177 164.312 339.507 163.594C339.836 162.876 340.31 162.285 340.878 161.882L353.891 152.657C354.428 152.276 355.031 152.076 355.644 152.076C356.257 152.076 356.86 152.276 357.396 152.657L361.487 155.555C362.023 155.936 362.626 156.136 363.239 156.136C363.852 156.136 364.455 155.936 364.992 155.555L369.178 152.58C369.715 152.199 370.318 152 370.93 152C371.543 152 372.146 152.199 372.683 152.58L385.694 161.805C386.262 162.208 386.737 162.799 387.067 163.517C387.398 164.235 387.572 165.054 387.573 165.888C387.573 166.723 387.399 167.542 387.069 168.261C386.739 168.979 386.265 169.571 385.697 169.974V169.974Z" fill="#BBDBFF"/>
<path opacity="0.5" d="M283.836 109.387L266.028 119.266H244.677C244.433 119.266 244.19 119.246 243.948 119.208C243.413 119.129 242.889 118.953 242.393 118.685L225.446 109.46C222.19 107.687 222.187 103.067 225.446 101.295L242.393 92.0692L245.787 92.0308H262.257L262.314 92C266.028 92.0308 261.465 92.0308 266.028 92.0308L283.83 101.226C287.092 102.99 287.092 107.611 283.836 109.387Z" fill="#BBDBFF"/>
<path d="M222.805 52.8746H222.244V52.8169C222.43 52.8552 222.617 52.8745 222.805 52.8746V52.8746Z" fill="#BBDBFF"/>
<path opacity="0.5" d="M245.303 182.772L233.542 192.609C232.641 193.337 231.596 193.717 230.531 193.704H224.607C223.542 193.692 222.497 194.072 221.596 194.8L214.246 200.95C213.344 201.679 212.299 202.059 211.234 202.046H195.705C194.641 202.033 193.596 202.413 192.694 203.141L187.838 207.205C186.936 207.933 185.891 208.313 184.827 208.3H135.1L134.915 208.146L134.73 208.3H107.813C106.499 208.334 105.221 207.742 104.225 206.64L92.8767 193.278C91.8802 192.176 90.6027 191.584 89.2883 191.617H80.0183C78.8047 191.64 77.6202 191.139 76.6542 190.195L70.3565 183.729C68.8912 182.226 68.5803 179.927 69.597 178.082L75.7212 166.965C76.5525 165.455 78.1314 164.517 79.8419 164.517H93.0472C94.1115 164.531 95.1566 164.152 96.0585 163.425L108.412 153.096C109.307 152.373 110.344 151.993 111.402 152.001H137.083C138.153 151.984 139.203 152.364 140.109 153.096L152.453 163.421C153.354 164.147 154.398 164.526 155.462 164.513H189.551L201.369 156.129L203.974 156.091H216.62L216.662 156.06C219.515 156.091 216.01 156.091 219.515 156.091L233.18 165.285C233.363 165.414 233.536 165.563 233.698 165.731L245.312 175.445C247.579 177.344 247.579 180.869 245.303 182.772Z" fill="#BBDBFF"/>
</svg>
