<svg width="688" height="451" viewBox="0 0 388 151" fill="none" xmlns="http://www.w3.org/2000/svg">
<g clip-path="url(#clip0_524_473)">
<path d="M263.27 63.3207C262.721 63.6211 262.325 63.8626 261.994 64.0716C262.108 62.8147 262.219 61.5577 262.327 60.3008C262.64 61.302 262.955 62.3086 263.27 63.3207Z" fill="#112F3F"/>
<path d="M272.922 58.8213C272.429 59.0243 271.96 59.2272 271.513 59.4302C271.598 58.0975 271.682 56.7634 271.767 55.428L272.922 58.8213Z" fill="#112F3F"/>
<path d="M281.71 55.1196C281.299 55.3002 280.835 55.493 280.336 55.7021C280.41 54.4012 280.488 53.1002 280.562 51.7993C280.946 52.9074 281.326 54.0135 281.71 55.1196Z" fill="#112F3F"/>
<path d="M289.826 46.4455C289.486 46.8677 289.185 47.3186 288.925 47.7931C288.851 47.9372 288.779 48.0772 288.707 48.2132C288.912 46.9183 289.118 45.6228 289.323 44.3267C289.489 45.0329 289.657 45.7392 289.826 46.4455Z" fill="#112F3F"/>
<path d="M286.916 51.432C286.569 51.9673 286.155 52.4569 285.684 52.8892C285.915 51.4644 286.146 50.0397 286.378 48.615C286.554 49.5526 286.734 50.4916 286.916 51.432Z" fill="#112F3F"/>
<path d="M295.46 41.5522C294.848 41.8179 294.273 42.1589 293.747 42.567C294.021 41.2221 294.29 39.8765 294.554 38.5303L295.46 41.5522Z" fill="#112F3F"/>
<path d="M302.097 39.1697L300.748 39.6709C301.022 38.4641 301.296 37.2572 301.57 36.0503L302.097 39.1697Z" fill="#112F3F"/>
<path d="M307.532 37.0183C307.086 37.207 306.635 37.3937 306.181 37.5804C306.283 35.9961 306.385 34.4124 306.485 32.8293C306.834 34.2243 307.183 35.6206 307.532 37.0183Z" fill="#112F3F"/>
<path d="M309.869 35.9914C309.481 36.17 309.082 36.3486 308.678 36.5252C308.768 35.1167 308.858 33.7089 308.947 32.3018C309.253 33.5316 309.561 34.7615 309.869 35.9914Z" fill="#112F3F"/>
<path d="M316.736 31.8736C316.374 32.1821 316.004 32.4825 315.633 32.7585L315.337 28.324C315.804 29.5065 316.27 30.6897 316.736 31.8736Z" fill="#112F3F"/>
<path d="M321.525 26.9924C321.18 27.3983 320.831 27.788 320.479 28.1756L320.523 23.7432L321.525 26.9924Z" fill="#112F3F"/>
<path d="M330.498 16.7273C330.071 17.1332 329.647 17.5546 329.229 17.9917C329.412 16.368 329.593 14.7404 329.771 13.1086L330.498 16.7273Z" fill="#112F3F"/>
<path d="M333.703 14.0806C333.256 14.3918 332.815 14.722 332.383 15.071C332.564 13.4474 332.744 11.8238 332.925 10.2002C333.184 11.491 333.443 12.7844 333.703 14.0806Z" fill="#112F3F"/>
<path d="M340.458 11.3246L339.602 11.491C339.448 11.5214 339.294 11.5539 339.142 11.5884C339.306 10.1272 339.469 8.66524 339.63 7.20264C339.906 8.5773 340.182 9.95128 340.458 11.3246Z" fill="#112F3F"/>
<path d="M353.595 8.79795C353.239 8.86086 352.826 8.93798 352.344 9.02931C352.5 7.64112 352.654 6.25293 352.806 4.86475C353.069 6.17581 353.332 7.48688 353.595 8.79795Z" fill="#112F3F"/>
<path d="M357.671 8.0753C356.989 8.2133 356.564 8.29651 356.293 8.34928L356.804 3.74634C357.093 5.19 357.382 6.63299 357.671 8.0753Z" fill="#112F3F"/>
<path d="M370.166 5.52436L368.351 5.89779C368.681 4.42031 369.012 2.94282 369.345 1.46533C369.616 2.8197 369.89 4.17271 370.166 5.52436Z" fill="#112F3F"/>
<path d="M382.766 4.50551C382.207 4.48724 381.694 4.47101 381.222 4.45883C381.442 2.97052 381.661 1.48221 381.879 -0.00610352C382.171 1.4998 382.466 3.00367 382.766 4.50551Z" fill="#112F3F"/>
<path d="M387.18 4.63534L385.718 4.61302C385.866 3.57391 386.016 2.53412 386.168 1.49365C386.504 2.54088 386.842 3.58811 387.18 4.63534Z" fill="#112F3F"/>
<path d="M251.756 69.0543C251.336 69.2938 250.917 69.5427 250.501 69.8011C250.76 68.6362 251.018 67.4719 251.275 66.3083L251.756 69.0543Z" fill="#112F3F"/>
<path d="M264.945 62.438L264.398 62.712C264.43 61.9475 264.459 61.1838 264.487 60.4207C264.639 61.0945 264.791 61.7669 264.945 62.438Z" fill="#112F3F"/>
<path d="M390.532 82.1668C390.528 82.411 390.469 82.6513 390.36 82.8706C390.251 83.0898 390.095 83.2826 389.902 83.4353C389.472 83.7813 388.934 83.9673 388.38 83.9609C370.865 83.9609 353.993 83.9812 337.056 84.4703C324.335 84.8356 312 83.9609 299.266 83.9609H238.782C240.305 79.6129 242.964 75.7402 246.49 72.7357C247.747 71.6554 249.089 70.6742 250.501 69.801C250.912 69.5439 251.33 69.295 251.756 69.0541C253.521 68.0609 255.354 67.1915 257.242 66.4523C260.528 65.1615 260.784 64.8287 261.99 64.0636C262.321 63.8606 262.717 63.613 263.265 63.3126C263.586 63.134 263.957 62.9372 264.395 62.7038L264.941 62.4298C266.379 61.7154 268.433 60.7595 271.513 59.42C271.961 59.2171 272.429 59.0141 272.922 58.8112C274.664 58.0602 276.691 57.2038 279.059 56.2215L280.336 55.6918C280.835 55.4888 281.291 55.2859 281.71 55.1093C283.633 54.2752 284.791 53.6765 285.678 52.8769C286.15 52.4446 286.564 51.955 286.911 51.4197C287.566 50.3795 288.164 49.305 288.701 48.2009C288.773 48.0649 288.845 47.9248 288.919 47.7807C289.179 47.3063 289.481 46.8554 289.821 46.4331C290.961 44.9861 292.278 43.6841 293.741 42.5568C294.267 42.1487 294.842 41.8077 295.454 41.542L295.61 41.4852C297.028 41.0022 298.812 40.3771 300.745 39.6586L302.094 39.1573C303.433 38.652 304.818 38.1142 306.177 37.5601C306.631 37.3734 307.083 37.1867 307.528 36.9979C307.915 36.8356 308.297 36.6712 308.675 36.5048C309.085 36.3282 309.478 36.1496 309.866 35.971C311.164 35.3784 312.365 34.7837 313.394 34.2073C314.172 33.7678 314.918 33.2769 315.629 32.738C316 32.4559 316.37 32.1616 316.732 31.8531C318.064 30.7048 319.317 29.4694 320.482 28.1553C320.833 27.7677 321.182 27.3719 321.527 26.9721C324.103 23.9948 326.567 20.7435 329.225 17.9712C329.644 17.5369 330.067 17.1154 330.494 16.7068C331.11 16.1203 331.726 15.5662 332.379 15.0508C332.813 14.7017 333.254 14.3715 333.7 14.0603C335.335 12.8933 337.181 12.0472 339.138 11.5681C339.29 11.5336 339.444 11.5011 339.598 11.4707L340.455 11.3043C346.507 10.1211 350.145 9.4229 352.34 9.00888C352.823 8.91756 353.235 8.84043 353.591 8.77752C356.77 8.18693 355.15 8.54818 356.291 8.329C356.563 8.27623 356.988 8.19302 357.67 8.05501L368.349 5.87734L370.171 5.50391L370.935 5.34764C375.679 4.3755 376.24 4.29026 381.226 4.43841C381.699 4.45059 382.212 4.46683 382.771 4.48509C383.783 4.51757 384.952 4.5541 386.318 4.59266L387.184 4.61498L388.454 4.64948C389.616 4.67993 390.54 5.47347 390.54 6.44358V23.6315L390.471 26.4526C390.452 33.0282 390.501 39.6059 390.516 46.1815C390.532 58.7929 390.532 69.5615 390.532 82.1668Z" fill="#112F3F"/>
<path d="M270.856 58.2146L269.468 57.7153L270.195 54.4924C270.417 55.7345 270.637 56.9752 270.856 58.2146Z" fill="#0D2D3F"/>
<path d="M264.506 55.8624L263.391 55.489C263.586 54.6217 263.782 53.7551 263.978 52.8892C264.155 53.8796 264.331 54.8706 264.506 55.8624Z" fill="#0D2D3F"/>
<path d="M254.689 52.6211C254.125 52.4858 253.552 52.3505 252.972 52.2152C253.278 50.8622 253.584 49.5031 253.89 48.1379C254.157 49.6317 254.423 51.1261 254.689 52.6211Z" fill="#0D2D3F"/>
<path d="M252.234 52.065L251.248 51.8621L251.778 49.5139C251.928 50.3582 252.082 51.2106 252.234 52.065Z" fill="#0D2D3F"/>
<path d="M244.573 50.5938C244.05 50.5146 243.526 50.4395 242.998 50.3644C243.283 49.098 243.569 47.8296 243.857 46.5591C244.095 47.9053 244.334 49.2502 244.573 50.5938Z" fill="#0D2D3F"/>
<path d="M236.605 49.5667C236.034 49.5032 235.461 49.4423 234.886 49.3841C235.201 47.9878 235.515 46.5928 235.828 45.1992C236.087 46.6524 236.346 48.1082 236.605 49.5667Z" fill="#0D2D3F"/>
<path d="M227.242 48.6514L226.256 48.5642L226.798 46.1592C226.944 46.9893 227.094 47.8214 227.242 48.6514Z" fill="#0D2D3F"/>
<path d="M225.131 48.4648L224.377 48.3998L224.788 46.5591C224.903 47.195 225.017 47.8302 225.131 48.4648Z" fill="#0D2D3F"/>
<path d="M221.506 48.1442L219.739 47.9859C220.064 46.5517 220.388 45.1155 220.711 43.6772C220.98 45.1656 221.245 46.6545 221.506 48.1442Z" fill="#0D2D3F"/>
<path d="M213.519 47.3791C212.903 47.3161 212.286 47.2492 211.683 47.1761C212.017 45.6878 212.352 44.1995 212.689 42.7112C212.964 44.2671 213.241 45.8231 213.519 47.3791Z" fill="#0D2D3F"/>
<path d="M210.273 47.0219C209.837 46.9718 209.399 46.9191 208.961 46.8636C209.199 45.8001 209.438 44.738 209.678 43.6772C209.878 44.7921 210.076 45.907 210.273 47.0219Z" fill="#0D2D3F"/>
<path d="M201.497 45.7878C201.243 45.7472 200.986 45.7025 200.731 45.6579C200.411 45.6024 200.093 45.5456 199.776 45.4874C200.086 44.1087 200.397 42.7306 200.709 41.3533L201.497 45.7878Z" fill="#0D2D3F"/>
<path d="M189.698 43.2429C189.113 43.0907 188.527 42.9364 187.948 42.7761C188.074 41.4623 188.201 40.1479 188.328 38.8328L189.698 43.2429Z" fill="#0D2D3F"/>
<path d="M186.718 42.4392C186.373 42.3418 186.028 42.2363 185.691 42.1449L185.913 39.8313C186.182 40.7026 186.45 41.5719 186.718 42.4392Z" fill="#0D2D3F"/>
<path d="M174.829 38.7516C174.281 38.5717 173.733 38.389 173.186 38.2036L174.038 34.3821C174.306 35.8379 174.57 37.2944 174.829 38.7516Z" fill="#0D2D3F"/>
<path d="M166.337 35.9021C165.821 35.7276 165.31 35.5571 164.79 35.3866C165.064 34.1824 165.333 32.9789 165.597 31.7761C165.846 33.1521 166.093 34.5275 166.337 35.9021Z" fill="#0D2D3F"/>
<path d="M160.491 33.9903L159.67 33.7265C159.814 33.077 159.962 32.4256 160.105 31.7761C160.237 32.5108 160.365 33.2489 160.491 33.9903Z" fill="#0D2D3F"/>
<path d="M152.158 31.3335C152.06 31.373 151.96 31.4062 151.858 31.433C151.312 31.2848 150.763 31.1367 150.215 30.9946L151.262 26.3125C151.559 27.9835 151.858 29.6571 152.158 31.3335Z" fill="#0D2D3F"/>
<path d="M140.611 28.8515C139.995 28.7379 139.379 28.6303 138.763 28.5268C139.091 27.0561 139.421 25.584 139.751 24.1106C140.042 25.6923 140.329 27.2726 140.611 28.8515Z" fill="#0D2D3F"/>
<path d="M128.274 27.1813C127.658 27.1244 127.042 27.0737 126.426 27.023C126.767 25.5252 127.106 24.0267 127.442 22.5276C127.716 24.0795 127.994 25.6307 128.274 27.1813Z" fill="#0D2D3F"/>
<path d="M130.5 27.3985C130.069 27.3498 129.637 27.3072 129.204 27.2666C129.438 26.2153 129.674 25.1626 129.911 24.1086C130.112 25.2086 130.305 26.3025 130.5 27.3985Z" fill="#0D2D3F"/>
<path d="M106.698 26.2335L104.801 26.2091C105.15 24.6424 105.5 23.0756 105.852 21.5088L106.698 26.2335Z" fill="#0D2D3F"/>
<path d="M111.357 26.3167L109.429 26.2781C109.785 24.6897 110.14 23.0999 110.495 21.5088C110.782 23.1108 111.07 24.7134 111.357 26.3167Z" fill="#0D2D3F"/>
<path d="M89.0591 26.0264L87.6543 25.998C87.9131 24.8412 88.1718 23.685 88.4306 22.5295C88.6401 23.6945 88.8496 24.8601 89.0591 26.0264Z" fill="#0D2D3F"/>
<path d="M86.5447 25.9776L84.7559 25.9269L85.7499 21.5127C86.0128 23.001 86.2777 24.4893 86.5447 25.9776Z" fill="#0D2D3F"/>
<path d="M43.7871 18.6533L42.1729 18.1642C42.4563 16.9018 42.7356 15.6395 43.019 14.3792C43.2764 15.8025 43.5325 17.2272 43.7871 18.6533Z" fill="#0D2D3F"/>
<path d="M22.7465 13.7277C22.129 13.6019 21.5087 13.4842 20.8857 13.3746C21.2294 11.9471 21.5717 10.5197 21.9126 9.09229C22.1878 10.6374 22.4658 12.1826 22.7465 13.7277Z" fill="#0D2D3F"/>
<path d="M33.3892 14.9026C32.9949 14.8072 32.5965 14.7158 32.2021 14.6306C32.4116 13.6903 32.6218 12.7499 32.8327 11.8096C33.0175 12.8406 33.2023 13.8695 33.3892 14.9026Z" fill="#0D2D3F"/>
<path d="M17.8482 12.9382C17.8482 22.3816 17.8482 20.8533 18.0146 39.6974C18.0598 44.7712 17.9427 49.8551 17.9057 54.935C17.8379 64.6584 17.8482 72.9753 17.8482 82.7109V84.0971C61.6924 84.0971 103.795 84.0971 146.068 84.4888C176.569 84.7729 206.151 84.0971 236.658 84.0971H381.7C373.66 76.7482 355.207 72.8333 337.433 70.5744C319.66 68.3156 300.74 67.0634 285.13 62.6816C273.865 59.5156 264.904 54.864 253.091 52.1282C237.603 48.5359 218.998 48.6232 202.804 45.6966C179.756 41.53 163.576 31.6544 139.974 28.1352C115.861 24.5389 87.874 28.2002 64.8572 23.4065C51.6925 20.6605 38.6448 14.6227 25.1207 12.8997L17.8482 12.9382Z" fill="#0D2D3F"/>
<path d="M272.456 63.2436C272.396 63.2944 272.394 63.272 272.332 63.3228L272.219 63.5014L271.901 64.8774C272.55 64.4573 273.485 65.056 273.626 65.8089C273.768 66.5619 273.355 67.3128 272.852 67.8953C270.798 70.282 267.373 70.8949 264.226 71.3454L256.529 72.4799L244.407 74.2801C240.15 74.9052 235.837 75.5323 231.557 75.0919L230.561 75.1488C233.321 74.3126 237.133 73.2593 241.752 72.2871C244.68 71.6783 244.955 71.7148 246.785 71.2257C246.785 71.2257 252.799 69.6143 257.876 66.6918C259.361 65.8353 260.991 64.7617 260.991 64.7617C261.705 64.2095 262.476 63.7333 263.292 63.341C263.708 63.1471 264.142 62.9922 264.588 62.8783C266.696 62.3395 268.839 61.9449 271.002 61.6971C271.663 61.6261 272.792 61.3623 273.384 60.6824C273.473 60.576 273.54 60.4534 273.58 60.3215C273.621 60.1896 273.635 60.051 273.622 59.9137C273.608 59.7764 273.567 59.6431 273.501 59.5215C273.436 59.3998 273.346 59.2922 273.238 59.2049C273.014 59.009 272.767 58.8394 272.503 58.6995L271.476 58.1658L272.297 58.4986C272.69 58.661 273.207 58.9045 273.207 58.9045L273.569 59.0608C274.575 59.4951 275.117 60.0593 275.228 60.4185C275.263 60.5405 275.279 60.6673 275.273 60.794C275.273 61.691 274.524 62.3161 274.331 62.4765C273.826 62.8859 273.199 63.1192 272.546 63.1401L272.456 63.2436Z" fill="#9ED1E8"/>
<path d="M390.501 66.365C390.532 72.4921 390.521 77.7303 390.515 83.8655V84.7382C367.307 84.7179 345.016 84.6976 322.638 84.9249C306.491 85.0893 290.831 84.6489 274.682 84.6347L197.887 84.5657C200.019 82.2541 203.524 80.4823 207.675 79.1124C211.826 77.7425 216.621 76.7744 221.329 76.0681C222.15 75.9437 222.972 75.8246 223.793 75.7109C224.645 75.5932 225.5 75.4775 226.358 75.3639C227.061 75.2685 227.765 75.1772 228.47 75.0838L229.661 74.9255L231.456 74.686C232.377 74.5616 233.297 74.433 234.214 74.3004C234.814 74.2152 235.413 74.1259 236.009 74.0346C236.307 73.9899 236.603 73.9432 236.898 73.8945L237.217 73.8438C237.818 73.7464 238.415 73.6449 239.01 73.5394C240.626 73.2552 242.218 72.9406 243.768 72.5794C244.517 72.4062 245.257 72.2215 245.988 72.0253C246.391 71.9184 246.791 71.8068 247.188 71.6905C247.804 71.5098 248.42 71.3211 249.018 71.1202L249.449 70.974C250.887 70.4768 252.269 69.9268 253.614 69.3504C254.23 69.0866 254.846 68.8167 255.462 68.5386L255.873 68.358L257.952 67.4407C258.802 67.0693 259.656 66.7039 260.529 66.3488L261.283 66.0504C261.644 65.9104 262.008 65.7704 262.376 65.6445C262.854 65.468 263.341 65.2955 263.836 65.1331C264.531 64.9004 265.246 64.6825 265.98 64.4796C266.118 64.441 266.255 64.4045 266.391 64.37C266.793 64.2618 267.2 64.1596 267.611 64.0635L268.286 63.9093C269.046 63.7429 269.816 63.5907 270.597 63.4527C271.749 63.2497 272.922 63.0671 274.107 62.9067C275.113 62.7707 276.13 62.6469 277.15 62.5292C278.902 62.3263 280.669 62.1457 282.429 61.9508C282.848 61.9062 283.266 61.8595 283.684 61.8108C284.684 61.6971 285.678 61.5774 286.666 61.4434C286.939 61.4089 287.21 61.3724 287.487 61.3338C287.898 61.277 288.309 61.2161 288.719 61.1532C288.98 61.1126 289.241 61.072 289.5 61.0274C290.104 60.93 290.703 60.8244 291.299 60.7108C291.734 60.6296 292.17 60.5403 292.599 60.449C293.114 60.3394 293.626 60.2217 294.127 60.0999C294.694 59.9646 295.253 59.8192 295.805 59.6636C296.398 59.5012 296.983 59.3307 297.561 59.1521C298.396 58.8964 299.218 58.6258 300.025 58.3403C300.618 58.136 301.206 57.9249 301.79 57.7071C303.088 57.2261 304.363 56.7228 305.63 56.2073C306.579 55.8258 307.522 55.4361 308.464 55.0464L309.676 54.5472L310.04 54.399C310.828 54.0743 311.621 53.7543 312.418 53.439L312.646 53.3497L313.622 52.9682C314.482 52.6374 315.349 52.3147 316.23 52.0042C317.805 51.4481 319.419 50.9326 321.095 50.48C321.808 50.2872 322.533 50.1045 323.266 49.9381C323.576 49.8671 323.882 49.7981 324.203 49.7352C324.75 49.6188 325.305 49.5113 325.866 49.4125L326.293 49.3394H326.33C327.263 49.1831 328.207 49.0492 329.158 48.9335H329.177C329.738 48.8659 330.302 48.8063 330.869 48.7549C331.239 48.7184 331.611 48.6859 331.984 48.6555L332.299 48.6311C332.709 48.6007 333.12 48.5723 333.531 48.5459C334.007 48.5161 334.487 48.4891 334.969 48.4647C335.415 48.4417 335.862 48.4221 336.31 48.4058C337.115 48.3734 337.923 48.3483 338.735 48.3307L339.616 48.3105C340.249 48.2969 340.883 48.2861 341.518 48.278H342.075L343.467 48.2617H343.672L345.642 48.2415C347.17 48.2232 348.696 48.2029 350.212 48.1643C350.795 48.1501 351.374 48.1339 351.953 48.1136L352.617 48.0872C353.226 48.0629 353.833 48.0338 354.436 47.9999C356.429 47.8903 358.39 47.7239 360.308 47.4682C360.752 47.4114 361.193 47.3485 361.633 47.2795C361.896 47.2389 362.157 47.1963 362.417 47.1516C362.845 47.0785 363.268 47.0014 363.689 46.9162C363.894 46.8736 364.114 46.8309 364.323 46.7843C364.698 46.7058 365.072 46.6212 365.443 46.5306H365.469L365.638 46.49C365.95 46.4129 366.254 46.3317 366.572 46.2464C368.449 45.735 370.322 45.0896 372.2 44.4016L372.992 44.1094C373.47 43.9321 373.949 43.7535 374.43 43.5736L375.171 43.2955C377.129 42.5629 379.09 41.8383 381.066 41.2295C381.066 41.2559 381.066 41.2802 381.066 41.3066C381.821 41.0874 382.579 40.8878 383.339 40.7079L383.321 40.5902L383.641 40.509C384.654 40.2573 385.67 40.0483 386.691 39.9001H387.207L389.973 39.9184H390.542C390.542 45.8689 390.542 44.909 390.437 56.7796C390.425 59.9639 390.484 63.1645 390.501 66.365Z" fill="#072535"/>
<path d="M226.371 75.362C225.514 75.4757 224.659 75.5914 223.806 75.7091C224.059 73.8879 224.31 72.0688 224.559 70.2517L226.371 75.362Z" fill="#072535"/>
<path d="M229.674 74.9235L228.482 75.0818C228.558 74.2416 228.634 73.4007 228.712 72.5591C229.033 73.3486 229.355 74.134 229.674 74.9235Z" fill="#072535"/>
<path d="M239.022 73.5374C238.43 73.6429 237.832 73.7444 237.229 73.8418L236.911 73.8926C237.152 72.3799 237.392 70.8666 237.63 69.3525L239.022 73.5374Z" fill="#072535"/>
<path d="M249.461 70.9722L249.03 71.1183C248.428 71.3212 247.818 71.508 247.2 71.6886C247.474 69.9919 247.742 68.2959 248.005 66.6006C248.49 68.0605 248.975 69.5177 249.461 70.9722Z" fill="#072535"/>
<path d="M257.973 67.4509L255.894 68.3682L255.483 68.5488C255.789 66.6086 256.095 64.6691 256.403 62.7302C256.927 64.3051 257.45 65.8787 257.973 67.4509Z" fill="#072535"/>
<path d="M262.396 65.6466C262.029 65.7805 261.665 65.9205 261.304 66.0525L260.55 66.3508L261.221 62.103C261.613 63.2883 262.005 64.4694 262.396 65.6466Z" fill="#072535"/>
<path d="M270.622 63.4549C269.842 63.5902 269.071 63.7424 268.311 63.9115L267.636 64.0657C267.856 61.9009 268.077 59.7361 268.297 57.5713C269.073 59.5318 269.848 61.493 270.622 63.4549Z" fill="#072535"/>
<path d="M289.527 61.0294C289.268 61.0741 289.007 61.1146 288.746 61.1552C288.335 61.2182 287.925 61.279 287.514 61.3359C287.243 61.3744 286.972 61.411 286.692 61.4455C287.013 59.4241 287.332 57.4033 287.651 55.3833C288.274 57.2653 288.899 59.1474 289.527 61.0294Z" fill="#072535"/>
<path d="M308.495 55.0526C307.553 55.4423 306.61 55.8319 305.661 56.2135C305.99 54.2083 306.317 52.2032 306.643 50.198C307.263 51.8162 307.881 53.4344 308.495 55.0526Z" fill="#072535"/>
<path d="M329.189 48.9356C328.238 49.0472 327.294 49.1812 326.361 49.3415H326.324C326.649 47.3039 326.972 45.2676 327.294 43.2327C327.925 45.1336 328.557 47.0346 329.189 48.9356Z" fill="#072535"/>
<path d="M352.643 48.0771L351.98 48.1035C351.401 48.1238 350.822 48.14 350.238 48.1542C350.498 46.3466 350.76 44.5376 351.023 42.7273C351.562 44.5133 352.102 46.2965 352.643 48.0771Z" fill="#072535"/>
<path d="M362.444 47.1416C362.183 47.1862 361.923 47.2288 361.66 47.2694C361.22 47.3384 360.779 47.4013 360.335 47.4582L361.362 40.2412C361.725 42.5427 362.085 44.8428 362.444 47.1416Z" fill="#072535"/>
<path d="M374.455 43.5574C373.977 43.7374 373.498 43.916 373.017 44.0932L372.225 44.3855C372.498 42.6848 372.768 40.9833 373.034 39.2812C373.51 40.706 373.984 42.1314 374.455 43.5574Z" fill="#072535"/>
<path d="M389.988 39.9002L387.221 39.8819H387.09C387.401 37.9174 387.712 35.9555 388.024 33.9963C388.677 35.9568 389.332 37.9248 389.988 39.9002Z" fill="#072535"/>
<path d="M283.708 61.8128C283.297 61.8615 282.879 61.9082 282.453 61.9528L282.589 57.9648C282.962 59.2475 283.336 60.5301 283.708 61.8128Z" fill="#072535"/>
<path d="M297.588 59.1543C297.012 59.3329 296.426 59.5033 295.832 59.6657C296.144 57.758 296.456 55.8516 296.766 53.9465C297.042 55.6824 297.316 57.4184 297.588 59.1543Z" fill="#072535"/>
<path d="M312.677 53.3559L312.449 53.4452C311.652 53.7591 310.859 54.0791 310.07 54.4052C310.507 51.7804 310.944 49.1562 311.381 46.5327C311.812 48.8098 312.244 51.0842 312.677 53.3559Z" fill="#072535"/>
<path d="M323.297 49.9443C322.562 50.1107 321.839 50.2934 321.126 50.4862C321.546 47.856 321.968 45.2257 322.391 42.5955L323.297 49.9443Z" fill="#072535"/>
<path d="M332.33 48.6311L332.016 48.6555C331.642 48.6859 331.27 48.7184 330.9 48.7549C331.106 47.5169 331.311 46.2749 331.531 45.0369C331.798 46.2343 332.064 47.4324 332.33 48.6311Z" fill="#072535"/>
<path d="M339.639 48.3023L338.758 48.3226C337.947 48.3402 337.138 48.3652 336.332 48.3977C336.417 46.0259 336.502 43.6541 336.589 41.2822L339.639 48.3023Z" fill="#072535"/>
<path d="M343.5 48.2537L342.107 48.27H341.551C341.808 46.2405 342.066 44.215 342.323 42.1936C342.71 44.2164 343.103 46.2364 343.5 48.2537Z" fill="#072535"/>
<path d="M365.476 46.5204C365.106 46.6097 364.733 46.6943 364.356 46.7741C364.562 45.5726 364.749 44.3712 364.948 43.1697C365.116 44.2879 365.293 45.4021 365.476 46.5204Z" fill="#072535"/>
<path d="M383.354 40.6918C382.594 40.8704 381.836 41.07 381.08 41.2905C381.08 41.2641 381.08 41.2398 381.08 41.2134C381.451 38.598 381.824 35.982 382.197 33.3652C382.572 35.7709 382.948 38.1738 383.325 40.5741L383.354 40.6918Z" fill="#072535"/>
<path d="M390.536 82.0674H252.234V106.302H390.536V82.0674Z" fill="#072535"/>
<path d="M390.556 103.814H275.721V150.998H390.556V103.814Z" fill="#072535"/>
<path d="M350.239 126.948V151H298.812V150.683H-4V84.0605H303.55V89.4915H320.22V105.823H342.099V126.948H350.239Z" fill="#091F2D"/>
<path d="M390.708 95.1842C390.571 102.071 390.539 109.124 390.61 116.344C390.669 122.412 390.799 128.365 391 134.204C387.098 133.522 380.937 132.505 373.338 131.508C360.019 129.763 354.603 129.495 340.218 127.855C335.117 127.273 329.128 126.435 321.636 125.089C308.111 122.668 299.43 120.441 290.562 114.306C286.559 111.538 287.07 111.047 282.831 107.988C271.041 99.4847 263.403 100.154 247.174 93.6884C239.536 90.6441 228.568 85.4506 216.174 76.3462L232.317 77.8359C237.642 78.739 244.824 79.9344 253.349 81.286C257.584 81.9578 266.956 83.8696 277.284 84.9392C287.426 85.9904 290.328 85.6109 297.048 85.8504C297.048 85.8504 301.227 85.9965 306.7 86.4816C317.637 87.4497 319.366 89.2032 328.567 90.2646C338.68 91.4295 339.738 89.6882 350.59 90.8735C357.764 91.6609 364.556 92.8177 364.556 92.8177C365.751 93.0207 366.404 93.1445 368.201 93.453C373.434 94.35 377.706 95.0218 380.479 95.446L390.708 95.1842Z" fill="#9ED1E8"/>
<path d="M13.5519 11.2435C12.525 10.7361 11.4981 10.2287 10.4814 9.74366L12.8412 1.83667C13.0767 4.97159 13.3136 8.1072 13.5519 11.2435Z" fill="#091F2D"/>
<path d="M17.464 13.0051L16.0674 12.2319C16.4905 10.5799 16.9149 8.9285 17.3407 7.27783L17.464 13.0051Z" fill="#091F2D"/>
<path d="M25.7471 16.9748C24.7366 16.5993 23.7262 16.163 22.7178 15.7023C23.2394 13.3034 23.7632 10.9045 24.2889 8.50562C24.7764 11.3293 25.2624 14.1524 25.7471 16.9748Z" fill="#091F2D"/>
<path d="M47.9257 20.1408C46.9132 20.1185 45.9048 20.0921 44.8984 20.0556C45.4242 17.428 45.9493 14.8018 46.4737 12.177C46.957 14.833 47.441 17.4876 47.9257 20.1408Z" fill="#091F2D"/>
<path d="M56.157 20.295L54.4092 20.2544L55.6599 13.9304C55.8242 16.056 55.9899 18.1775 56.157 20.295Z" fill="#091F2D"/>
<path d="M59.6265 20.4291C59.1582 20.4075 58.6899 20.3872 58.2217 20.3682L59.1397 15.2944L59.6265 20.4291Z" fill="#091F2D"/>
<path d="M68.5619 21.2958C67.9129 21.1902 67.2598 21.0962 66.6025 21.0137L67.8821 13.9895L68.5619 21.2958Z" fill="#091F2D"/>
<path d="M87.8927 28.5348C86.9192 27.9808 85.9375 27.4389 84.9414 26.9112C85.2399 24.8398 85.537 22.7676 85.8327 20.6948C86.5214 23.3115 87.2081 25.9249 87.8927 28.5348Z" fill="#091F2D"/>
<path d="M91.5012 30.6598C90.6797 30.1605 89.8479 29.6667 89.0059 29.1782C89.2441 27.4058 89.4817 25.6327 89.7185 23.8589C90.3155 26.1265 90.9097 28.3935 91.5012 30.6598Z" fill="#091F2D"/>
<path d="M97.9843 34.601C97.4722 34.2939 96.9615 33.9854 96.4521 33.6756C96.7684 31.9261 97.0861 30.1767 97.4051 28.4272L97.9843 34.601Z" fill="#091F2D"/>
<path d="M102.641 37.2659C101.922 36.8762 101.209 36.4791 100.503 36.0746L101.84 28.7095L102.641 37.2659Z" fill="#091F2D"/>
<path d="M123.406 44.1947C122.545 44.0485 121.687 43.8936 120.833 43.7299C121.073 41.2823 121.314 38.8334 121.556 36.3831C122.172 38.9876 122.789 41.5915 123.406 44.1947Z" fill="#091F2D"/>
<path d="M118.183 38.8225L119.678 43.5026C119.027 43.3673 118.378 43.2272 117.733 43.0825L118.183 38.8225Z" fill="#091F2D"/>
<path d="M113.696 42.0109L113.101 41.8262C112.764 41.7186 112.429 41.609 112.099 41.4933L112.61 36.0339C112.971 38.0323 113.334 40.0246 113.696 42.0109Z" fill="#091F2D"/>
<path d="M133.437 45.8669C132.839 45.7553 132.238 45.6497 131.636 45.5462L131.999 39.2852C132.48 41.4797 132.959 43.6736 133.437 45.8669Z" fill="#091F2D"/>
<path d="M143.872 48.5906C142.753 48.1705 141.613 47.7991 140.446 47.4642L143.034 38.8347C143.307 42.086 143.586 45.338 143.872 48.5906Z" fill="#091F2D"/>
<path d="M155.507 54.9266L155.302 54.7967C154.392 54.2021 153.48 53.6115 152.556 53.0392C152.767 50.9041 152.977 48.7691 153.188 46.634C153.903 49.1966 154.617 51.7599 155.33 54.3239C155.396 54.5248 155.451 54.7257 155.507 54.9266Z" fill="#091F2D"/>
<path d="M157.415 56.177L155.507 54.9268L155.302 54.7969C155.302 54.6386 155.322 54.4824 155.331 54.3241C155.443 52.58 155.555 50.8367 155.667 49.094C156.253 51.455 156.836 53.816 157.415 56.177Z" fill="#091F2D"/>
<path d="M165.476 60.9017C165.361 60.8489 165.248 60.7941 165.135 60.7373C164.153 60.2522 163.2 59.7347 162.26 59.1949C162.99 57.0165 163.72 54.8368 164.451 52.6558C164.795 55.4037 165.136 58.1524 165.476 60.9017Z" fill="#091F2D"/>
<path d="M179.989 65.7563C178.818 65.4857 177.654 65.1934 176.497 64.8795C176.579 62.3007 176.661 59.7225 176.741 57.145C177.831 60.012 178.914 62.8825 179.989 65.7563Z" fill="#091F2D"/>
<path d="M193.907 68.6098C192.836 68.3934 191.764 68.1803 190.69 67.9705L192.539 59.7307L193.907 68.6098Z" fill="#091F2D"/>
<path d="M199.514 69.8153C199.074 69.7097 198.632 69.6123 198.193 69.5108L197.205 69.2917C197.261 67.4367 197.316 65.5824 197.369 63.7288C198.083 65.7569 198.797 67.7858 199.514 69.8153Z" fill="#091F2D"/>
<path d="M210.177 73.0442C208.944 72.5733 207.7 72.1349 206.431 71.729C207.043 69.2287 207.654 66.729 208.265 64.23C208.901 67.166 209.539 70.1041 210.177 73.0442Z" fill="#091F2D"/>
<path d="M220.723 78.7451L220.623 78.7999C219.446 77.9078 218.211 77.0942 216.926 76.3645C217.346 73.7464 217.769 71.1283 218.193 68.5103C218.999 71.9347 219.807 75.3572 220.616 78.7776L220.723 78.7451Z" fill="#091F2D"/>
<path d="M220.622 78.6375C219.446 77.7455 218.211 76.9319 216.925 76.2021C216.139 75.7495 215.323 75.3213 214.487 74.9114C213.103 74.2355 211.659 73.6125 210.174 73.0401C208.942 72.5693 207.697 72.1309 206.428 71.725C204.157 70.9964 201.832 70.3652 199.511 69.8173C199.072 69.7117 198.63 69.6143 198.191 69.5128L197.203 69.2937C196.107 69.0582 195.008 68.8289 193.904 68.6057C192.834 68.3892 191.762 68.1761 190.688 67.9664C187.102 67.2621 183.5 66.568 179.986 65.7339C178.815 65.4633 177.651 65.171 176.494 64.8571C172.65 63.8221 168.934 62.5658 165.47 60.8874C165.355 60.8346 165.242 60.7798 165.129 60.723C164.147 60.238 163.194 59.7204 162.253 59.1806C160.592 58.2247 158.99 57.1998 157.402 56.1627L155.494 54.9125L155.289 54.7826C154.379 54.188 153.467 53.5974 152.543 53.0251C150.118 51.511 147.614 50.1005 144.862 48.9762C144.525 48.8409 144.183 48.7056 143.835 48.5703C142.716 48.1502 141.576 47.7788 140.409 47.4439C138.136 46.7924 135.788 46.2871 133.41 45.8467C132.812 45.735 132.211 45.6295 131.609 45.526C128.879 45.0552 126.117 44.6452 123.379 44.1743C122.518 44.0282 121.66 43.8733 120.806 43.7096C120.42 43.6365 120.035 43.5608 119.652 43.4823C119 43.347 118.352 43.2069 117.707 43.0622C116.341 42.7517 114.994 42.4026 113.669 41.9987L113.074 41.814C112.737 41.7065 112.402 41.5969 112.071 41.4812C108.807 40.3343 105.647 38.9174 102.624 37.2456C101.905 36.8559 101.192 36.4588 100.486 36.0543C99.6425 35.5712 98.8032 35.0801 97.968 34.5808C97.4559 34.2737 96.9452 33.9652 96.4359 33.6554C94.7928 32.6548 93.1498 31.638 91.4883 30.6395C90.6668 30.1402 89.835 29.6464 88.9929 29.158C88.6212 28.9408 88.2495 28.7277 87.8757 28.5146C86.9022 27.9605 85.9205 27.4187 84.9244 26.891C81.3077 24.9995 77.5308 23.3637 73.376 22.2738C71.7905 21.8679 70.1782 21.529 68.5455 21.2692C67.8965 21.1637 67.2434 21.0697 66.5862 20.9871C64.29 20.6929 61.9569 20.5163 59.6033 20.4026C59.135 20.381 58.6668 20.3607 58.1985 20.3417C57.5139 20.316 56.8293 20.293 56.1447 20.2727L54.397 20.2322C52.2364 20.1855 50.0696 20.1591 47.9132 20.1144C46.9007 20.0921 45.8923 20.0657 44.8859 20.0292C38.3076 19.8242 31.8505 19.2133 25.9192 17.0478L25.7467 16.9829C24.7362 16.6074 23.7258 16.1711 22.7174 15.7104C20.9655 14.8986 19.2259 13.9731 17.4638 13.0132L16.0672 12.2399L14.4242 11.3246C13.424 10.7563 12.43 10.2104 11.4257 9.67867C7.91164 7.81152 4.3894 6.16355 0.805552 5.35986L-3.79492 5.40451C-3.79492 15.9073 -3.79492 14.2065 -3.68402 35.1714C-3.65732 40.8216 -3.73125 46.4697 -3.75385 52.1199C-3.79492 62.9372 -3.79492 72.1877 -3.79492 83.0172V84.5597C23.9147 84.5597 50.5235 84.5597 77.2412 84.996C96.518 85.3106 115.214 84.5597 134.495 84.5597H226.165C224.771 82.3089 222.873 80.3484 220.622 78.6375Z" fill="#091F2D"/>
<path d="M366.411 97.78H366.2C366.166 97.78 366.139 97.8073 366.139 97.8409V99.6796C366.139 99.7133 366.166 99.7405 366.2 99.7405H366.411C366.445 99.7405 366.473 99.7133 366.473 99.6796V97.8409C366.473 97.8073 366.445 97.78 366.411 97.78Z" fill="#06202B"/>
<path d="M371.872 99.5598H371.53V101.52H371.872V99.5598Z" fill="#06202B"/>
<path d="M376.984 98.1311H376.642V100.092H376.984V98.1311Z" fill="#06202B"/>
<path d="M383.199 96.2922H382.856V97.7007H383.199V96.2922Z" fill="#06202B"/>
<path d="M371.668 99.649L387.589 95.1841C387.592 95.1841 387.594 95.183 387.596 95.1811C387.598 95.1792 387.599 95.1767 387.599 95.174C387.599 95.1713 387.598 95.1687 387.596 95.1668C387.594 95.1649 387.592 95.1638 387.589 95.1638H379.766L366.149 97.788L371.664 99.6429L371.668 99.649Z" fill="#072535"/>
<path d="M365.755 99.5598C365.852 99.6543 365.982 99.7072 366.118 99.7072C366.254 99.7072 366.385 99.6543 366.482 99.5598L366.219 99.9373" fill="#9ED1E8"/>
<path d="M371.173 101.297C371.247 101.343 371.33 101.374 371.416 101.387C371.503 101.401 371.591 101.397 371.676 101.376C371.761 101.356 371.841 101.318 371.91 101.266C371.98 101.214 372.039 101.149 372.083 101.074C372.013 101.265 371.945 101.453 371.877 101.642" fill="#9ED1E8"/>
<path d="M371.396 101.121C371.337 101.151 371.334 101.324 371.657 101.455C371.767 101.503 371.889 101.52 372.008 101.504L371.583 101.683" fill="#9ED1E8"/>
<path d="M377.371 99.9434C377.297 99.9897 377.214 100.021 377.128 100.035C377.041 100.049 376.953 100.045 376.868 100.025C376.783 100.004 376.703 99.9664 376.633 99.9145C376.563 99.8625 376.505 99.7971 376.461 99.7222C376.529 99.9109 376.599 100.1 376.666 100.288" fill="#9ED1E8"/>
<path d="M377.183 99.6248C377.152 99.756 377.07 99.8699 376.954 99.9417C376.839 100.014 376.7 100.038 376.566 100.008L376.992 100.187" fill="#9ED1E8"/>
<path d="M382.504 97.6197C382.578 97.6657 382.661 97.6964 382.747 97.7101C382.834 97.7237 382.922 97.72 383.007 97.6992C383.092 97.6783 383.172 97.6408 383.241 97.5888C383.311 97.5368 383.37 97.4714 383.414 97.3965L383.208 97.9627" fill="#9ED1E8"/>
<path d="M382.692 97.3518C382.711 97.4221 382.743 97.4881 382.788 97.5456C382.833 97.6032 382.889 97.6512 382.953 97.6867C383.062 97.7411 383.186 97.7582 383.306 97.7354L382.881 97.914" fill="#9ED1E8"/>
<path d="M365.613 99.5559C365.796 99.6522 366.008 99.6783 366.208 99.6292C366.409 99.5801 366.584 99.4593 366.7 99.29C366.611 99.493 366.525 99.6959 366.439 99.911" fill="#9ED1E8"/>
<path d="M365.907 99.2068C365.938 99.338 366.02 99.452 366.135 99.5238C366.251 99.5956 366.39 99.6195 366.523 99.5904L366.098 99.769" fill="#9ED1E8"/>
<path opacity="0.3" d="M371.873 102.018L390.371 95.0563C390.663 94.9954 390.918 93.9583 390.905 93.9583L387.268 93.8914L382.854 95.4378L366.297 99.4238L371.865 102.018H371.873Z" fill="#072535"/>
</g>
<defs>
<clipPath id="clip0_524_473">
<rect width="395" height="151" fill="white" transform="translate(-4)"/>
</clipPath>
</defs>
</svg>
