<svg width="35" height="35" viewBox="0 0 35 35" fill="none" xmlns="http://www.w3.org/2000/svg">
    <path
        d="M33.0632 0C33.5948 0 34.0506 0.189887 34.4303 0.569661C34.8101 0.949436 35 1.40516 35 1.93685V33.0632C35 33.5948 34.8101 34.0506 34.4303 34.4303C34.0506 34.8101 33.5948 35 33.0632 35H24.1536V21.4421H28.6882L29.3717 16.1556H24.1536V12.7832C24.1536 11.9325 24.3321 11.2945 24.6891 10.8691C25.0461 10.4438 25.7411 10.2311 26.7741 10.2311L29.554 10.2083V5.49154C28.597 5.35482 27.245 5.28646 25.498 5.28646C23.4321 5.28646 21.7801 5.8941 20.542 7.10938C19.3039 8.32465 18.6849 10.0412 18.6849 12.2591V16.1556H14.1276V21.4421H18.6849V35H1.93685C1.40516 35 0.949436 34.8101 0.569661 34.4303C0.189887 34.0506 0 33.5948 0 33.0632V1.93685C0 1.40516 0.189887 0.949436 0.569661 0.569661C0.949436 0.189887 1.40516 0 1.93685 0H33.0632Z"
        fill="black" />
</svg>