<svg width="35" height="35" viewBox="0 0 35 35" fill="none" xmlns="http://www.w3.org/2000/svg">
<path d="M7.95464 11.5659V34.6277H0.436754V11.5659H7.95464ZM8.43305 4.44484C8.44824 5.57738 8.06475 6.52374 7.28259 7.28394C6.50042 8.04413 5.47146 8.42423 4.1957 8.42423H4.15013C2.90475 8.42423 1.90236 8.04413 1.14298 7.28394C0.383598 6.52374 0.00390625 5.57738 0.00390625 4.44484C0.00390625 3.29679 0.394988 2.34655 1.17715 1.59411C1.95932 0.841673 2.98069 0.465454 4.24126 0.465454C5.50184 0.465454 6.51181 0.841673 7.2712 1.59411C8.03058 2.34655 8.41786 3.29679 8.43305 4.44484ZM34.9963 21.4096V34.6277H27.5011V22.2939C27.5011 20.6649 27.1936 19.3889 26.5785 18.4658C25.9634 17.5427 25.0028 17.0811 23.6966 17.0811C22.7398 17.0811 21.9387 17.3488 21.2932 17.884C20.6477 18.4192 20.1655 19.0825 19.8466 19.8737C19.6795 20.3391 19.596 20.9674 19.596 21.7587V34.6277H12.1009C12.1312 28.4375 12.1464 23.4187 12.1464 19.5712C12.1464 15.7237 12.1388 13.4276 12.1237 12.6829L12.1009 11.5659H19.596V14.9169H19.5504C19.8542 14.4205 20.1655 13.9861 20.4845 13.6137C20.8034 13.2414 21.2324 12.838 21.7716 12.4036C22.3108 11.9692 22.9714 11.6318 23.7536 11.3913C24.5358 11.1508 25.4053 11.0306 26.3621 11.0306C28.9592 11.0306 31.0475 11.911 32.627 13.6719C34.2065 15.4328 34.9963 18.012 34.9963 21.4096Z" fill="black"/>
</svg>
