<svg width="35" height="35" viewBox="0 0 35 35" fill="none" xmlns="http://www.w3.org/2000/svg">
<path d="M21.3867 22.793C21.5951 23.0013 21.5951 23.2031 21.3867 23.3984C20.5794 24.2057 19.2839 24.6094 17.5 24.6094C15.7161 24.6094 14.4206 24.2057 13.6133 23.3984C13.4049 23.2031 13.4049 23.0013 13.6133 22.793C13.6914 22.7148 13.7891 22.6758 13.9062 22.6758C14.0234 22.6758 14.1211 22.7148 14.1992 22.793C14.8242 23.431 15.9245 23.75 17.5 23.75C19.0625 23.75 20.1628 23.431 20.8008 22.793C20.8789 22.7148 20.9766 22.6758 21.0938 22.6758C21.2109 22.6758 21.3086 22.7148 21.3867 22.793ZM15.3906 19.2578C15.3906 19.7396 15.2214 20.1497 14.8828 20.4883C14.5443 20.8268 14.1341 20.9961 13.6523 20.9961C13.1706 20.9961 12.7572 20.8268 12.4121 20.4883C12.0671 20.1497 11.8945 19.7396 11.8945 19.2578C11.8945 18.763 12.0671 18.3464 12.4121 18.0078C12.7572 17.6693 13.1706 17.5 13.6523 17.5C14.1341 17.5 14.5443 17.6725 14.8828 18.0176C15.2214 18.3626 15.3906 18.776 15.3906 19.2578ZM23.1055 19.2578C23.1055 19.7396 22.9329 20.1497 22.5879 20.4883C22.2428 20.8268 21.8294 20.9961 21.3477 20.9961C20.8659 20.9961 20.4557 20.8268 20.1172 20.4883C19.7786 20.1497 19.6094 19.7396 19.6094 19.2578C19.6094 18.776 19.7786 18.3626 20.1172 18.0176C20.4557 17.6725 20.8659 17.5 21.3477 17.5C21.8294 17.5 22.2428 17.6693 22.5879 18.0078C22.9329 18.3464 23.1055 18.763 23.1055 19.2578ZM28.0078 16.9141C28.0078 16.276 27.7799 15.7292 27.3242 15.2734C26.8685 14.8177 26.3151 14.5898 25.6641 14.5898C25.013 14.5898 24.4531 14.8242 23.9844 15.293C22.2917 14.1211 20.2669 13.4961 17.9102 13.418L19.1406 7.89062L23.0469 8.76953C23.0469 9.2513 23.2161 9.66146 23.5547 10C23.8932 10.3385 24.3034 10.5078 24.7852 10.5078C25.2669 10.5078 25.6803 10.3353 26.0254 9.99023C26.3704 9.64518 26.543 9.23177 26.543 8.75C26.543 8.26823 26.3704 7.85482 26.0254 7.50977C25.6803 7.16471 25.2669 6.99219 24.7852 6.99219C24.082 6.99219 23.5612 7.31771 23.2227 7.96875L18.9062 7.01172C18.6589 6.94661 18.4961 7.05078 18.418 7.32422L17.0703 13.418C14.7266 13.5091 12.7148 14.1406 11.0352 15.3125C10.5794 14.8307 10.013 14.5898 9.33594 14.5898C8.6849 14.5898 8.13151 14.8177 7.67578 15.2734C7.22005 15.7292 6.99219 16.276 6.99219 16.9141C6.99219 17.3698 7.11263 17.7865 7.35352 18.1641C7.5944 18.5417 7.91667 18.8281 8.32031 19.0234C8.24219 19.375 8.20312 19.7396 8.20312 20.1172C8.20312 21.9661 9.11458 23.5482 10.9375 24.8633C12.7604 26.1784 14.9544 26.8359 17.5195 26.8359C20.0977 26.8359 22.2982 26.1784 24.1211 24.8633C25.944 23.5482 26.8555 21.9661 26.8555 20.1172C26.8555 19.7005 26.8099 19.3294 26.7188 19.0039C27.1094 18.8086 27.4219 18.5254 27.6562 18.1543C27.8906 17.7832 28.0078 17.3698 28.0078 16.9141ZM35 17.5C35 19.8698 34.5378 22.1354 33.6133 24.2969C32.6888 26.4583 31.4453 28.3203 29.8828 29.8828C28.3203 31.4453 26.4583 32.6888 24.2969 33.6133C22.1354 34.5378 19.8698 35 17.5 35C15.1302 35 12.8646 34.5378 10.7031 33.6133C8.54167 32.6888 6.67969 31.4453 5.11719 29.8828C3.55469 28.3203 2.3112 26.4583 1.38672 24.2969C0.46224 22.1354 0 19.8698 0 17.5C0 15.1302 0.46224 12.8646 1.38672 10.7031C2.3112 8.54167 3.55469 6.67969 5.11719 5.11719C6.67969 3.55469 8.54167 2.3112 10.7031 1.38672C12.8646 0.46224 15.1302 0 17.5 0C19.8698 0 22.1354 0.46224 24.2969 1.38672C26.4583 2.3112 28.3203 3.55469 29.8828 5.11719C31.4453 6.67969 32.6888 8.54167 33.6133 10.7031C34.5378 12.8646 35 15.1302 35 17.5Z" fill="black"/>
</svg>
