<svg width="388" height="260" viewBox="0 0 388 260" fill="none" xmlns="http://www.w3.org/2000/svg">
<g clip-path="url(#clip0_240_306)">
<path d="M0 191.533L55.9 156.867L111.367 132.167L167.267 162.067L222.733 168.567L278.633 181.567L334.1 163.367L390 201.933V260.433H334.1H278.633H222.733H167.267H111.367H55.9H0V191.533Z" fill="#8C8B8B"/>
<path d="M0 173.333L55.9 178.1L111.367 180.267L167.267 166.4L197.5 209L209 194.5L220 179L239.5 149L257.5 115.5L266.5 97L271 89L276 85.5H281L287.5 88L299 95L309.5 102.5L320 110.5L335 124L352.5 144.5L390 193.7V260.433H334.1H278.633H222.733H167.267H111.367H55.9H0V173.333Z" fill="#86807F"/>
<path d="M0 173.333L55.9 195.433L111.367 177.667L158 203.5L176 179.5L195.5 155.5L204.5 143.5L209.5 140L214 139.5L238.5 149V150L231.5 161L220 179L198 208.5L360.5 171L377.5 177.5L351.5 143L337 125.5L323 112.5L332.5 102.5L338 99.5L344 98L351 99.5L367 108.5L388 124.5L390 260.433H334.1H278.633H222.733H167.267H111.367H55.9H0V173.333Z" fill="#7F7572"/>
<path d="M0 169L55.9 217.533L111.367 166.4L167.267 204.1L222.733 221L278.633 188.067L334.1 170.733L390 191.533V260.433H334.1H278.633H222.733H167.267H111.367H55.9H0V169Z" fill="#786C64"/>
<path d="M0 182.867L55.9 213.633L111.367 201.933L167.267 228.367L222.733 222.733L278.633 220.133L334.1 214.933H390V260.433H334.1H278.633H222.733H167.267H111.367H55.9H0V182.867Z" fill="#6E6257"/>
<path d="M0 197.6L55.9 202.8L111.367 221.867L167.267 201.067L222.733 214.933L278.633 214.067L334.1 208.867L390 220.567V260.433H334.1H278.633H222.733H167.267H111.367H55.9H0V197.6Z" fill="#635A4A"/>
<path d="M0 233.133L55.9 234L111.367 213.2L167.267 209.3L222.733 212.333L278.633 214.067L334.1 204.1L390 217.967V260.433H334.1H278.633H222.733H167.267H111.367H55.9H0V233.133Z" fill="#56523E"/>
<path d="M0 246.133L55.9 237.9L111.367 235.733L167.267 223.6L222.733 220.133L278.633 215.367L334.1 247L390 231.833V260.433H334.1H278.633H222.733H167.267H111.367H55.9H0V246.133Z" fill="#484B33"/>
<path d="M0 224.9L55.9 248.733L111.367 240.933L167.267 252.633L222.733 252.2L278.633 237.9L334.1 224.467L390 249.6V260.433H334.1H278.633H222.733H167.267H111.367H55.9H0V224.9Z" fill="#38442B"/>
<path d="M0 253.933L55.9 244.4L111.367 255.233L167.267 259.567L222.733 249.6L278.633 241.367L334.1 238.767L390 247.867V260.433H334.1H278.633H222.733H167.267H111.367H55.9H0V253.933Z" fill="#263D25" fill-opacity="0.7"/>
<path d="M207.058 252.774C206.875 252.782 206.694 252.734 206.539 252.636C206.384 252.538 206.263 252.395 206.193 252.227C206.122 252.058 206.105 251.871 206.144 251.692C206.183 251.514 206.276 251.351 206.41 251.227L206.472 250.984C206.464 250.964 206.456 250.945 206.447 250.925C205.625 248.966 200.374 254.428 200.147 256.269C200.047 257.083 200.089 257.909 200.272 258.708C198.571 255.003 197.688 250.976 197.682 246.901C197.682 245.878 197.739 244.856 197.853 243.84C197.947 243.006 198.077 242.179 198.244 241.358C199.156 236.901 201.113 232.724 203.955 229.169C205.58 229.26 207.005 229.013 207.142 225.867C207.167 225.307 207.582 224.823 207.674 224.272C207.519 224.292 207.361 224.305 207.206 224.315C207.158 224.317 207.107 224.32 207.058 224.322L207.04 224.323C206.87 224.331 206.701 224.289 206.553 224.203C206.406 224.117 206.287 223.99 206.21 223.838C206.133 223.686 206.102 223.515 206.12 223.345C206.138 223.176 206.205 223.015 206.313 222.883C206.38 222.8 206.447 222.718 206.514 222.636C206.616 222.509 206.72 222.384 206.822 222.257C206.834 222.245 206.845 222.232 206.855 222.219C206.972 222.074 207.089 221.932 207.206 221.787C206.992 221.456 206.705 221.179 206.367 220.977C205.194 220.291 203.576 220.766 202.729 221.825C201.879 222.885 201.719 224.371 202.014 225.694C202.304 226.82 202.784 227.889 203.434 228.854C203.37 228.936 203.304 229.014 203.24 229.096C202.078 230.588 201.065 232.191 200.215 233.882C200.456 232.007 197.517 225.237 196.381 223.803C195.016 222.081 192.216 222.833 191.976 225.016C191.974 225.037 191.971 225.058 191.969 225.079C192.138 225.175 192.303 225.275 192.465 225.382C192.668 225.518 192.825 225.711 192.916 225.938C193.007 226.164 193.028 226.413 192.975 226.651C192.922 226.889 192.798 227.106 192.62 227.272C192.442 227.439 192.217 227.548 191.976 227.585L191.951 227.589C189.692 230.811 196.935 239.196 198.748 237.314C197.895 239.729 197.36 242.244 197.156 244.797C197.04 246.304 197.047 247.817 197.176 249.322L197.168 249.268C196.766 245.99 189.855 241.116 187.837 241.522C186.674 241.756 185.529 241.703 185.706 242.874C185.708 242.893 185.711 242.912 185.714 242.93C186.027 243.058 186.332 243.204 186.627 243.37C186.796 243.465 186.961 243.566 187.123 243.672C187.326 243.808 187.484 244.002 187.575 244.228C187.666 244.454 187.686 244.703 187.633 244.941C187.58 245.179 187.457 245.396 187.278 245.563C187.1 245.729 186.876 245.839 186.634 245.876L186.61 245.879C186.592 245.882 186.576 245.885 186.559 245.887C185.53 249.421 193.157 255.125 197.794 253.31H197.797C198.256 255.304 198.922 257.245 199.783 259.102H206.88C206.906 259.023 206.929 258.942 206.952 258.863C206.295 258.904 205.635 258.865 204.988 258.746C205.514 258.101 206.041 257.451 206.567 256.805C206.579 256.793 206.59 256.781 206.601 256.767C206.868 256.437 207.137 256.109 207.404 255.779L207.404 255.779C207.419 254.766 207.302 253.757 207.058 252.774L207.058 252.774ZM198.931 236.808L198.935 236.803L198.931 236.813V236.808ZM197.359 250.96L197.298 250.823C197.301 250.724 197.301 250.625 197.298 250.523C197.298 250.495 197.293 250.467 197.293 250.439C197.316 250.615 197.336 250.79 197.362 250.965L197.359 250.96Z" fill="#70B69C"/>
<path d="M343.084 259.066L343.047 258.817C342.401 254.432 342.716 249.96 343.97 245.708C345.225 241.457 347.388 237.528 350.311 234.193C351.969 232.337 353.855 230.696 355.923 229.311L356.109 229.186L356.218 229.505C356.341 229.857 356.583 230.156 356.901 230.351C357.219 230.547 357.594 230.627 357.965 230.578C358.335 230.53 358.677 230.355 358.934 230.085C359.191 229.814 359.346 229.463 359.375 229.091L359.519 227.216L359.741 227.106C360.776 226.591 361.941 226.397 363.088 226.55C364.234 226.704 365.308 227.196 366.171 227.965C367.065 228.729 367.709 229.742 368.02 230.875C368.331 232.008 368.295 233.208 367.916 234.32C367.578 235.345 367.255 236.409 366.944 237.438C365.878 240.956 364.776 244.594 362.769 247.623C361.237 249.908 359.208 251.819 356.834 253.213C354.459 254.607 351.8 255.447 349.055 255.672L343.084 259.066Z" fill="#F2F2F2"/>
<path d="M275.534 186.984C275.594 187.345 275.733 187.687 275.94 187.989C276.147 188.29 276.418 188.542 276.733 188.727C277.048 188.913 277.401 189.027 277.765 189.062C278.129 189.096 278.496 189.051 278.841 188.928L284.519 195.583L285.938 191.19L280.323 185.559C280.079 184.994 279.636 184.538 279.078 184.278C278.519 184.018 277.885 183.971 277.295 184.147C276.704 184.323 276.199 184.709 275.874 185.232C275.55 185.754 275.429 186.378 275.534 186.984V186.984Z" fill="#9E616A"/>
<path d="M298.427 185.325C298.427 185.325 301.301 180.558 304 181.917C306.699 183.276 304.622 187.991 304.622 187.991L291.992 202.629C291.992 202.629 277.919 190.894 279.789 191.059C281.66 191.224 282.643 187.912 282.643 187.912L290.226 192.968L290.681 191.565L291.064 192.059L292.309 191.311L298.427 185.325Z" fill="#70B69C"/>
<path d="M317.556 96.2648C317.562 99.6065 316.298 102.826 314.021 105.274C313.848 105.462 313.666 105.644 313.481 105.82C306.618 100.544 299.42 95.7183 291.933 91.3718C292.025 91.1376 292.124 90.9065 292.232 90.6785C293.506 87.9393 295.678 85.7164 298.389 84.3775C301.1 83.0386 304.187 82.6639 307.14 83.3153C310.094 83.9668 312.736 85.6053 314.63 87.96C316.524 90.3147 317.556 93.2445 317.556 96.2648V96.2648Z" fill="#FABA80"/>
<path d="M328.327 123.256L328.315 123.395C319.58 122.794 310.846 122.192 302.114 121.589C295.804 121.155 289.276 120.662 283.701 117.679C281.584 116.548 279.523 115.039 277.123 114.934C274.145 114.801 271.547 116.881 269.505 119.05C257.432 131.893 253.936 151.53 240.392 162.81C248.934 141.772 259.133 121.443 270.893 102.014C273.065 98.4247 275.642 94.5917 279.674 93.4208C283.522 92.3023 287.459 93.9354 291.001 96.0306C291.76 96.4805 292.5 96.9519 293.216 97.4202C298.674 100.988 304.042 104.693 309.321 108.534C315.804 113.245 322.139 118.153 328.327 123.256Z" fill="#F2F2F2"/>
<path d="M356.576 150.494C347.24 137.334 336.393 125.31 324.257 114.669C320.768 111.606 317.175 108.656 313.48 105.82C306.617 100.544 299.419 95.7184 291.932 91.3718C289.476 89.9483 286.991 88.5812 284.478 87.2707C282.525 86.257 280.445 85.3295 278.193 85.4743C276.617 85.6088 275.112 86.1868 273.852 87.1413C271.084 89.1595 269.252 92.3116 267.743 95.3158C266.422 97.9502 265.191 100.637 263.936 103.308C263.402 104.445 262.868 105.579 262.316 106.707C260.391 110.657 258.42 114.586 256.404 118.493C253.807 123.527 251.134 128.524 248.386 133.483C242.613 143.907 236.521 154.143 230.111 164.19C220.688 178.959 210.608 193.279 199.869 207.152C198.551 208.85 198.008 209.244 196.672 210.93C196.364 211.324 195.814 210.769 196.12 210.378C207.261 196.315 216.961 183.029 226.742 167.986C234.116 156.644 241.085 145.051 247.648 133.206C249.755 129.406 251.818 125.584 253.837 121.737C257.105 115.51 260.259 109.224 263.3 102.88C264.102 101.21 264.896 99.5339 265.682 97.8516C268.178 92.5118 271.813 84.5715 278.832 84.6794C280.896 84.7102 282.812 85.5452 284.62 86.4696C286.462 87.4155 288.27 88.42 290.075 89.4399C290.797 89.8466 291.516 90.2595 292.231 90.6785C295.067 92.3239 297.86 94.0381 300.611 95.8211C305.202 98.7944 309.672 101.946 314.02 105.274C316.084 106.855 318.117 108.472 320.12 110.124C332.684 120.505 343.981 132.327 353.778 145.346C354.96 146.914 356.117 148.5 357.249 150.103C357.539 150.513 356.863 150.901 356.576 150.494Z" fill="#E4E4E4"/>
<path d="M324.952 110.747C325.36 110.293 325.765 109.839 326.176 109.385C329.413 105.81 332.886 102.276 337.331 100.226C339.451 99.2183 341.765 98.6827 344.112 98.6567C346.534 98.7231 348.923 99.2433 351.153 100.19C352.213 100.613 353.249 101.093 354.27 101.604C355.437 102.19 356.582 102.816 357.723 103.446C359.864 104.629 361.977 105.864 364.062 107.151C368.211 109.712 372.23 112.468 376.119 115.42C378.135 116.951 380.11 118.532 382.043 120.163C383.84 121.678 385.602 123.234 387.327 124.83C387.696 125.17 388.247 124.62 387.878 124.28C387.423 123.857 386.963 123.437 386.503 123.022C385.204 121.849 383.885 120.699 382.544 119.571C380.099 117.511 377.592 115.531 375.02 113.63C371.022 110.672 366.886 107.915 362.612 105.358C360.477 104.082 358.312 102.859 356.117 101.69C355.455 101.337 354.784 100.992 354.106 100.665C352.568 99.8899 350.969 99.24 349.326 98.7216C346.999 97.9697 344.536 97.7281 342.106 98.0133C339.761 98.3541 337.5 99.1349 335.445 100.315C331.081 102.751 327.695 106.518 324.401 110.195C324.069 110.568 324.617 111.121 324.952 110.747Z" fill="#E4E4E4"/>
<path d="M235.523 147.796L225.065 143.976L219.872 142.079C218.194 141.405 216.483 140.816 214.745 140.316C213.226 139.883 211.613 139.903 210.105 140.375C208.761 140.872 207.53 141.634 206.486 142.616C205.419 143.596 204.427 144.655 203.517 145.782C202.387 147.139 201.273 148.51 200.154 149.876C195.536 155.516 190.949 161.18 186.391 166.869C181.834 172.558 177.307 178.27 172.811 184.007C168.304 189.758 163.828 195.533 159.382 201.333C158.838 202.043 158.294 202.754 157.75 203.465C157.45 203.858 156.772 203.47 157.077 203.072C161.555 197.215 166.064 191.381 170.605 185.572C175.157 179.748 179.74 173.95 184.354 168.176C188.969 162.402 193.615 156.653 198.291 150.929C199.457 149.503 200.624 148.079 201.793 146.656C202.779 145.456 203.754 144.243 204.835 143.126C206.821 141.075 209.301 139.263 212.27 139.214C214.016 139.185 215.705 139.738 217.327 140.324C219.075 140.956 220.82 141.599 222.566 142.237L233.098 146.084L235.731 147.046C236.198 147.216 235.996 147.969 235.523 147.796H235.523Z" fill="#E4E4E4"/>
<path d="M338.707 104.725C344.022 101.997 350.829 102.532 355.713 105.94C346.397 107.545 337.183 109.692 328.118 112.372C331.882 110.169 334.827 106.717 338.707 104.725Z" fill="#F2F2F2"/>
<path d="M355.765 105.93L356.788 106.761C356.442 106.47 356.082 106.198 355.713 105.94C355.73 105.937 355.748 105.933 355.765 105.93Z" fill="#F2F2F2"/>
<path d="M206.88 147.834C207.909 146.583 209.022 145.273 210.562 144.764L212 144.821C201.056 164.134 186.275 181.009 168.564 194.411C181.336 178.886 194.108 163.36 206.88 147.834Z" fill="#F2F2F2"/>
<path d="M354.547 219.318L344.869 215.053V211.387L348.318 211.368C348.853 211.365 349.374 211.195 349.808 210.881C350.241 210.567 350.565 210.126 350.734 209.618L353.157 205.099C353.286 204.715 353.321 204.305 353.26 203.904C353.198 203.504 353.043 203.123 352.805 202.794C352.568 202.465 352.256 202.197 351.894 202.013C351.533 201.828 351.133 201.732 350.727 201.732L344.869 203.787V200.375H352.223C352.803 200.375 353.365 200.179 353.819 199.818C354.272 199.458 354.59 198.954 354.72 198.39L356.388 191.141C356.475 190.766 356.475 190.376 356.39 190.001C356.305 189.626 356.136 189.275 355.896 188.974C355.656 188.673 355.351 188.43 355.004 188.263C354.657 188.096 354.277 188.009 353.892 188.009H344.869V187.156C344.869 186.704 344.689 186.27 344.369 185.95C344.048 185.63 343.614 185.451 343.161 185.451C342.708 185.451 342.273 185.63 341.953 185.95C341.633 186.27 341.453 186.704 341.453 187.156V188.009H280.962V187.156C280.962 186.704 280.782 186.27 280.461 185.95C280.141 185.63 279.707 185.451 279.254 185.451C278.801 185.451 278.366 185.63 278.046 185.95C277.725 186.27 277.546 186.704 277.546 187.156V188.009H270.373C269.988 188.009 269.608 188.096 269.261 188.263C268.914 188.43 268.609 188.673 268.369 188.974C268.129 189.275 267.96 189.626 267.875 190.001C267.789 190.376 267.79 190.766 267.876 191.141L269.545 198.39C269.675 198.954 269.992 199.458 270.446 199.818C270.899 200.179 271.462 200.375 272.042 200.375H277.546V203.787L273.538 201.732C273.134 201.732 272.736 201.827 272.376 202.01C272.016 202.193 271.705 202.458 271.467 202.784C271.229 203.11 271.072 203.487 271.008 203.885C270.944 204.283 270.975 204.691 271.099 205.075L273.572 210C273.739 210.517 274.067 210.968 274.508 211.287C274.949 211.606 275.481 211.777 276.025 211.773L277.546 211.765V215.053L269.717 219.318C269.038 219.318 268.386 219.587 267.906 220.067C267.425 220.547 267.155 221.198 267.155 221.876V221.876C267.155 222.555 267.425 223.205 267.906 223.685C268.386 224.165 269.038 224.435 269.717 224.435H277.546V257.584C277.546 258.037 277.726 258.471 278.046 258.791C278.366 259.11 278.801 259.29 279.254 259.29C279.707 259.29 280.141 259.11 280.461 258.791C280.782 258.471 280.962 258.037 280.962 257.584V224.435H341.453V257.927C341.453 258.379 341.633 258.813 341.953 259.133C342.273 259.453 342.708 259.633 343.161 259.633C343.614 259.633 344.048 259.453 344.369 259.133C344.689 258.813 344.869 258.379 344.869 257.927V224.435H354.547C355.227 224.435 355.879 224.165 356.359 223.685C356.839 223.205 357.109 222.555 357.109 221.876V221.876C357.109 221.198 356.84 220.547 356.359 220.067C355.879 219.587 355.227 219.318 354.547 219.318H354.547ZM280.962 200.375H341.453V203.787H280.962V200.375ZM280.962 215.053V211.746L341.453 211.406V215.053L280.962 215.053Z" fill="#CCCCCC"/>
<path d="M303.693 169.791C304.129 168.786 304.79 167.894 305.626 167.184C306.462 166.475 307.45 165.966 308.513 165.699C310.875 165.085 314.333 166.02 316.109 167.361C319.357 169.816 320.149 178.248 317.918 180.913C317.474 180.895 315.943 180.882 315.493 180.869L314.858 179.263V180.853C311.352 180.771 307.702 180.822 304.049 180.876C303.722 178.989 302.942 171.606 303.693 169.791Z" fill="#2F2E41"/>
<path d="M308.577 178.879C311.374 178.879 313.642 176.614 313.642 173.821C313.642 171.027 311.374 168.762 308.577 168.762C305.779 168.762 303.512 171.027 303.512 173.821C303.512 176.614 305.779 178.879 308.577 178.879Z" fill="#9E616A"/>
<path d="M305.096 167.234C306.069 166.641 307.184 166.321 308.324 166.306C309.464 166.291 310.586 166.582 311.575 167.149C312.563 167.715 313.381 168.537 313.943 169.527C314.505 170.518 314.79 171.641 314.768 172.779C312.007 173.483 309.065 173.778 305.947 172.948L305.235 171.206L304.814 172.95C303.861 173.62 302.94 173.619 302.052 172.946C302.015 171.811 302.276 170.686 302.81 169.684C303.344 168.682 304.133 167.837 305.096 167.234Z" fill="#2F2E41"/>
<path d="M318.923 167.736C318.422 166.969 317.87 166.159 317.021 165.817C316.171 165.474 314.966 165.884 314.85 166.792C314.764 167.47 315.282 168.053 315.673 168.615C316.063 169.177 316.317 170.026 315.807 170.483L315.52 170.63C315.794 170.984 316.148 171.269 316.552 171.461C316.956 171.654 317.4 171.749 317.848 171.74C318.295 171.716 318.723 171.547 319.065 171.259C319.408 170.971 319.648 170.579 319.749 170.143C319.895 169.286 319.398 168.464 318.923 167.736Z" fill="#2F2E41"/>
<path d="M288.172 252.973L285.327 252.146L287.166 240.793L291.365 242.013L288.172 252.973Z" fill="#9E616A"/>
<path d="M287.873 258.737L285.854 258.151L286.048 256.143L284.571 257.778L279.216 256.222C278.959 256.148 278.733 255.993 278.571 255.781C278.408 255.569 278.318 255.311 278.313 255.044C278.308 254.777 278.388 254.516 278.542 254.298C278.697 254.08 278.917 253.917 279.17 253.832L284.305 252.126L284.866 250.201L289.286 251.776L287.873 258.737Z" fill="#2F2E41"/>
<path d="M323.174 251.944L320.354 252.854L315.495 242.428L319.656 241.084L323.174 251.944Z" fill="#9E616A"/>
<path d="M326.166 256.882L324.165 257.528L323.197 255.758L322.894 257.939L317.588 259.654C317.333 259.736 317.059 259.735 316.806 259.65C316.552 259.566 316.332 259.403 316.178 259.185C316.024 258.967 315.943 258.705 315.948 258.438C315.954 258.171 316.044 257.913 316.207 257.701L319.497 253.41L318.879 251.503L323.422 250.329L326.166 256.882Z" fill="#2F2E41"/>
<path d="M304.779 221.52L303.039 229.024L316.076 245.566L321.068 243.011C317.178 234.358 316.835 233.33 312.674 229.598L312.717 229.534C315.707 225.025 318.938 220.702 319.374 215.311C319.386 215.164 318.718 209.771 318.733 209.624C319.106 206.098 301.683 204.98 301.683 204.98C301.683 204.98 298.721 210.192 294.317 214.19L285.407 223.011L285.648 247.311L289.84 248.328C292.923 242.463 294.422 235.586 294.852 228.026L302.597 222.837L304.779 221.52Z" fill="#2F2E41"/>
<path d="M317.689 223.439C317.463 223.188 317.295 222.89 317.197 222.567C317.099 222.244 317.073 221.904 317.12 221.57C317.168 221.235 317.289 220.916 317.474 220.633C317.659 220.351 317.903 220.112 318.191 219.934L317.895 218.458L314.452 201.256L318.445 202.765L321.056 218.286L321.481 220.809C321.748 221.31 321.822 221.893 321.688 222.445C321.554 222.997 321.222 223.481 320.755 223.806C320.287 224.13 319.717 224.272 319.152 224.204C318.587 224.136 318.066 223.864 317.689 223.439H317.689Z" fill="#9E616A"/>
<path d="M313.242 184.325L315.858 182.555C315.858 182.555 318.089 182.511 318.277 186.533C318.465 190.555 318.874 198.395 318.874 198.395L321.814 216.421L316.419 217.318L313.276 197.867L311.093 192.026L313.242 184.325Z" fill="#70B69C"/>
<path d="M303.658 194.722L302.914 196.652L303.063 198.583L317.613 203.616L316.891 195.168L315.255 193.237L303.658 194.722Z" fill="#FFB6B6"/>
<path d="M299.046 208.9L299.52 204.169C299.569 203.976 299.678 203.804 299.832 203.676C299.985 203.549 300.175 203.474 300.374 203.461C300.571 201.207 301.402 191.484 301.451 191.06L301.453 191.042L301.831 182.985C301.845 182.692 301.966 182.415 302.171 182.206C302.377 181.997 302.652 181.871 302.945 181.852L304.94 181.722C304.967 181.721 304.993 181.709 305.012 181.69C305.031 181.67 305.042 181.644 305.042 181.616C305.042 181.396 305.085 181.178 305.169 180.975C305.254 180.772 305.377 180.587 305.533 180.432C305.689 180.276 305.874 180.153 306.077 180.069C306.281 179.984 306.499 179.941 306.719 179.941H312.625C313.007 179.941 313.377 180.081 313.663 180.334C313.95 180.586 314.135 180.935 314.182 181.314C314.185 181.34 314.197 181.364 314.217 181.382C314.237 181.399 314.262 181.408 314.289 181.408H314.289C314.96 181.394 315.614 181.621 316.132 182.047C316.65 182.474 316.997 183.071 317.112 183.732C317.919 188.423 319.537 199.071 318.737 204.99C318.459 207.051 319.059 205.418 319.164 207.143C319.175 207.309 319.152 207.476 319.098 207.634C319.044 207.792 318.959 207.938 318.848 208.063C319.075 208.145 319.26 208.313 319.363 208.531C319.466 208.749 319.479 208.998 319.399 209.226L319.503 209.2C319.473 209.321 319.419 209.434 319.345 209.534C319.27 209.633 319.177 209.717 319.07 209.781C318.964 209.845 318.845 209.887 318.722 209.905C318.599 209.923 318.474 209.917 318.353 209.886L301.057 208.325C300.55 208.197 298.918 209.407 299.046 208.9Z" fill="#70B69C"/>
</g>
<defs>
<clipPath id="clip0_240_306">
<rect width="390" height="260" fill="white"/>
</clipPath>
</defs>
</svg>
