<svg id="visual" viewBox="0 0 900 600" width="900" height="600" xmlns="http://www.w3.org/2000/svg" xmlns:xlink="http://www.w3.org/1999/xlink" version="1.1"><path d="M0 196L21.5 195C43 194 86 192 128.8 199.5C171.7 207 214.3 224 257.2 220C300 216 343 191 385.8 186.3C428.7 181.7 471.3 197.3 514.2 200.3C557 203.3 600 193.7 642.8 193.3C685.7 193 728.3 202 771.2 198.3C814 194.7 857 178.3 878.5 170.2L900 162L900 0L878.5 0C857 0 814 0 771.2 0C728.3 0 685.7 0 642.8 0C600 0 557 0 514.2 0C471.3 0 428.7 0 385.8 0C343 0 300 0 257.2 0C214.3 0 171.7 0 128.8 0C86 0 43 0 21.5 0L0 0Z" fill="#cccccc"></path><path d="M0 174L21.5 175.8C43 177.7 86 181.3 128.8 186C171.7 190.7 214.3 196.3 257.2 186.3C300 176.3 343 150.7 385.8 150.8C428.7 151 471.3 177 514.2 184.2C557 191.3 600 179.7 642.8 177.5C685.7 175.3 728.3 182.7 771.2 176.3C814 170 857 150 878.5 140L900 130L900 0L878.5 0C857 0 814 0 771.2 0C728.3 0 685.7 0 642.8 0C600 0 557 0 514.2 0C471.3 0 428.7 0 385.8 0C343 0 300 0 257.2 0C214.3 0 171.7 0 128.8 0C86 0 43 0 21.5 0L0 0Z" fill="#999a9c"></path><path d="M0 114L21.5 116.2C43 118.3 86 122.7 128.8 124.2C171.7 125.7 214.3 124.3 257.2 127.5C300 130.7 343 138.3 385.8 142.8C428.7 147.3 471.3 148.7 514.2 139.2C557 129.7 600 109.3 642.8 98.8C685.7 88.3 728.3 87.7 771.2 89C814 90.3 857 93.7 878.5 95.3L900 97L900 0L878.5 0C857 0 814 0 771.2 0C728.3 0 685.7 0 642.8 0C600 0 557 0 514.2 0C471.3 0 428.7 0 385.8 0C343 0 300 0 257.2 0C214.3 0 171.7 0 128.8 0C86 0 43 0 21.5 0L0 0Z" fill="#686a6e"></path><path d="M0 85L21.5 87.3C43 89.7 86 94.3 128.8 93.7C171.7 93 214.3 87 257.2 80C300 73 343 65 385.8 61.2C428.7 57.3 471.3 57.7 514.2 65C557 72.3 600 86.7 642.8 95.7C685.7 104.7 728.3 108.3 771.2 110.2C814 112 857 112 878.5 112L900 112L900 0L878.5 0C857 0 814 0 771.2 0C728.3 0 685.7 0 642.8 0C600 0 557 0 514.2 0C471.3 0 428.7 0 385.8 0C343 0 300 0 257.2 0C214.3 0 171.7 0 128.8 0C86 0 43 0 21.5 0L0 0Z" fill="#3b3e43"></path><path d="M0 67L21.5 63.2C43 59.3 86 51.7 128.8 46.7C171.7 41.7 214.3 39.3 257.2 38.2C300 37 343 37 385.8 42.7C428.7 48.3 471.3 59.7 514.2 60.5C557 61.3 600 51.7 642.8 51.7C685.7 51.7 728.3 61.3 771.2 64C814 66.7 857 62.3 878.5 60.2L900 58L900 0L878.5 0C857 0 814 0 771.2 0C728.3 0 685.7 0 642.8 0C600 0 557 0 514.2 0C471.3 0 428.7 0 385.8 0C343 0 300 0 257.2 0C214.3 0 171.7 0 128.8 0C86 0 43 0 21.5 0L0 0Z" fill="#13161d"></path></svg>