<svg id="visual" viewBox="0 0 900 600" width="900" height="600" xmlns="http://www.w3.org/2000/svg" xmlns:xlink="http://www.w3.org/1999/xlink" version="1.1"><path d="M0 156L129 236L257 293L386 224L514 209L643 179L771 221L900 132L900 0L771 0L643 0L514 0L386 0L257 0L129 0L0 0Z" fill="#13161d"></path><path d="M0 198L129 187L257 182L386 214L514 142L643 267L771 257L900 151L900 0L771 0L643 0L514 0L386 0L257 0L129 0L0 0Z" fill="#121a23"></path><path d="M0 198L129 147L257 188L386 104L514 210L643 167L771 203L900 243L900 0L771 0L643 0L514 0L386 0L257 0L129 0L0 0Z" fill="#101f28"></path><path d="M0 208L129 96L257 214L386 127L514 88L643 164L771 204L900 156L900 0L771 0L643 0L514 0L386 0L257 0L129 0L0 0Z" fill="#0c242b"></path><path d="M0 176L129 105L257 132L386 71L514 84L643 90L771 102L900 102L900 0L771 0L643 0L514 0L386 0L257 0L129 0L0 0Z" fill="#09292d"></path><path d="M0 142L129 130L257 86L386 134L514 102L643 104L771 116L900 89L900 0L771 0L643 0L514 0L386 0L257 0L129 0L0 0Z" fill="#082d2e"></path><path d="M0 60L129 58L257 106L386 115L514 108L643 104L771 127L900 95L900 0L771 0L643 0L514 0L386 0L257 0L129 0L0 0Z" fill="#0b322d"></path><path d="M0 30L129 49L257 54L386 82L514 90L643 101L771 28L900 64L900 0L771 0L643 0L514 0L386 0L257 0L129 0L0 0Z" fill="#12362b"></path><path d="M0 79L129 24L257 42L386 15L514 16L643 49L771 80L900 22L900 0L771 0L643 0L514 0L386 0L257 0L129 0L0 0Z" fill="#1c3a28"></path><path d="M0 12L129 34L257 9L386 0L514 22L643 41L771 47L900 26L900 0L771 0L643 0L514 0L386 0L257 0L129 0L0 0Z" fill="#263d25"></path></svg>